<svg height="250" preserveAspectRatio="xMidYMid meet" viewBox="0 50 190 94" width="500" xmlns="http://www.w3.org/2000/svg" zoomAndPan="magnify"><g fill="#e0e0e0"><path d="m19.484375-36.78125c5.351563 0 9.445313 1.28125 12.28125 3.84375 2.84375 2.5625 4.265625 6.433594 4.265625 11.609375v21.328125h-8.03125v-4.421875c-1.042969 1.585937-2.53125 2.796875-4.46875 3.640625-1.929688.84375-4.257812 1.265625-6.984375 1.265625-2.71875 0-5.105469-.4648438-7.15625-1.390625-2.042969-.9375-3.621094-2.234375-4.734375-3.890625-1.105469-1.664063-1.65625-3.539063-1.65625-5.625 0-3.269531 1.210938-5.890625 3.640625-7.859375 2.425781-1.976562 6.253906-2.96875 11.484375-2.96875h9.390625v-.546875c0-2.539063-.761719-4.492187-2.28125-5.859375-1.523437-1.363281-3.777344-2.046875-6.765625-2.046875-2.054688 0-4.070312.320313-6.046875.953125-1.96875.636719-3.636719 1.523438-5 2.65625l-3.328125-6.203125c1.90625-1.445313 4.195312-2.554687 6.875-3.328125 2.675781-.769531 5.515625-1.15625 8.515625-1.15625zm-1.15625 31.0625c2.132813 0 4.03125-.488281 5.6875-1.46875 1.65625-.976562 2.820313-2.375 3.5-4.1875v-4.21875h-8.78125c-4.90625 0-7.359375 1.609375-7.359375 4.828125 0 1.542969.613281 2.773437 1.84375 3.6875 1.226562.90625 2.929688 1.359375 5.109375 1.359375zm0 0" transform="translate(4.097349 117.593498)"/><path d="m13.6875-31.0625c2.457031-3.8125 6.773438-5.71875 12.953125-5.71875v8.09375c-.730469-.132812-1.390625-.203125-1.984375-.203125-3.3125 0-5.902344.96875-7.765625 2.90625-1.855469 1.929687-2.78125 4.710937-2.78125 8.34375v17.640625h-8.515625v-36.375h8.09375zm0 0" transform="translate(45.448763 117.593498)"/><path d="m13.6875-31.0625c2.457031-3.8125 6.773438-5.71875 12.953125-5.71875v8.09375c-.730469-.132812-1.390625-.203125-1.984375-.203125-3.3125 0-5.902344.96875-7.765625 2.90625-1.855469 1.929687-2.78125 4.710937-2.78125 8.34375v17.640625h-8.515625v-36.375h8.09375zm0 0" transform="translate(74.060939 117.593498)"/><path d="m19.484375-36.78125c5.351563 0 9.445313 1.28125 12.28125 3.84375 2.84375 2.5625 4.265625 6.433594 4.265625 11.609375v21.328125h-8.03125v-4.421875c-1.042969 1.585937-2.53125 2.796875-4.46875 3.640625-1.929688.84375-4.257812 1.265625-6.984375 1.265625-2.71875 0-5.105469-.4648438-7.15625-1.390625-2.042969-.9375-3.621094-2.234375-4.734375-3.890625-1.105469-1.664063-1.65625-3.539063-1.65625-5.625 0-3.269531 1.210938-5.890625 3.640625-7.859375 2.425781-1.976562 6.253906-2.96875 11.484375-2.96875h9.390625v-.546875c0-2.539063-.761719-4.492187-2.28125-5.859375-1.523437-1.363281-3.777344-2.046875-6.765625-2.046875-2.054688 0-4.070312.320313-6.046875.953125-1.96875.636719-3.636719 1.523438-5 2.65625l-3.328125-6.203125c1.90625-1.445313 4.195312-2.554687 6.875-3.328125 2.675781-.769531 5.515625-1.15625 8.515625-1.15625zm-1.15625 31.0625c2.132813 0 4.03125-.488281 5.6875-1.46875 1.65625-.976562 2.820313-2.375 3.5-4.1875v-4.21875h-8.78125c-4.90625 0-7.359375 1.609375-7.359375 4.828125 0 1.542969.613281 2.773437 1.84375 3.6875 1.226562.90625 2.929688 1.359375 5.109375 1.359375zm0 0" transform="translate(102.673116 117.593498)"/><path d="m39.65625-36.375-17.03125 39.296875c-1.59375 3.957031-3.527344 6.738281-5.796875 8.34375-2.273437 1.613281-5.023437 2.421875-8.25 2.421875-1.8125 0-3.605469-.296875-5.375-.890625-1.773437-.585937-3.2226562-1.398437-4.359375-2.4375l3.40625-6.265625c.8125.769531 1.773438 1.378906 2.890625 1.828125 1.113281.457031 2.238281.6875 3.375.6875 1.5 0 2.734375-.386719 3.703125-1.15625.976562-.773437 1.878906-2.070313 2.703125-3.890625l.609375-1.421875-15.875-36.515625h8.859375l11.4375 26.90625 11.515625-26.90625zm0 0" transform="translate(144.024529 117.593498)"/></g></svg>
