<svg height="250" preserveAspectRatio="xMidYMid meet" viewBox="40 80 295 215" width="500" xmlns="http://www.w3.org/2000/svg" zoomAndPan="magnify"><g fill="#819feb"><path d="m63.28125-90.40625c8.707031 0 16.492188 1.902344 23.359375 5.703125 6.863281 3.792969 12.25 9.148437 16.15625 16.0625 3.90625 6.917969 5.859375 14.898437 5.859375 23.9375 0 9.042969-1.953125 17.054687-5.859375 24.03125-3.90625 6.96875-9.292969 12.355469-16.15625 16.15625-6.867187 3.792969-14.652344 5.6875-23.359375 5.6875-6.136719 0-11.746094-1.058594-16.828125-3.171875-5.074219-2.125-9.339844-5.304688-12.796875-9.546875v11.546875h-19.921875v-124.234375h20.921875v45.71875c3.570312-3.90625 7.785156-6.863281 12.640625-8.875 4.851563-2.007813 10.179687-3.015625 15.984375-3.015625zm-2.34375 73.671875c7.707031 0 14.039062-2.566406 19-7.703125 4.96875-5.132812 7.453125-11.890625 7.453125-20.265625s-2.484375-15.125-7.453125-20.25c-4.960938-5.132813-11.292969-7.703125-19-7.703125-5.023438 0-9.542969 1.148438-13.5625 3.4375-4.011719 2.28125-7.1875 5.542969-9.53125 9.78125-2.34375 4.242188-3.515625 9.152344-3.515625 14.734375 0 5.585937 1.171875 10.496094 3.515625 14.734375 2.34375 4.242188 5.519531 7.507812 9.53125 9.796875 4.019531 2.292969 8.539062 3.4375 13.5625 3.4375zm0 0" transform="translate(-2.103284 247.148264)"/><path d="m53.90625 1.171875c-9.042969 0-17.195312-1.953125-24.453125-5.859375-7.25-3.90625-12.914063-9.34375-16.984375-16.3125-4.074219-6.976562-6.109375-14.878906-6.109375-23.703125 0-8.8125 2.035156-16.675781 6.109375-23.59375 4.070312-6.925781 9.734375-12.34375 16.984375-16.25 7.257813-3.90625 15.410156-5.859375 24.453125-5.859375 9.15625 0 17.359375 1.953125 24.609375 5.859375 7.257813 3.90625 12.925781 9.324219 17 16.25 4.070313 6.917969 6.109375 14.78125 6.109375 23.59375 0 8.824219-2.039062 16.726563-6.109375 23.703125-4.074219 6.96875-9.742187 12.40625-17 16.3125-7.25 3.90625-15.453125 5.859375-24.609375 5.859375zm0-17.90625c7.707031 0 14.070312-2.566406 19.09375-7.703125 5.019531-5.132812 7.53125-11.890625 7.53125-20.265625s-2.511719-15.125-7.53125-20.25c-5.023438-5.132813-11.386719-7.703125-19.09375-7.703125-7.699219 0-14.03125 2.570312-19 7.703125-4.96875 5.125-7.453125 11.875-7.453125 20.25s2.484375 15.132813 7.453125 20.265625c4.96875 5.136719 11.300781 7.703125 19 7.703125zm0 0" transform="translate(112.749829 247.148264)"/><path d="m53.90625 1.171875c-9.042969 0-17.195312-1.953125-24.453125-5.859375-7.25-3.90625-12.914063-9.34375-16.984375-16.3125-4.074219-6.976562-6.109375-14.878906-6.109375-23.703125 0-8.8125 2.035156-16.675781 6.109375-23.59375 4.070312-6.925781 9.734375-12.34375 16.984375-16.25 7.257813-3.90625 15.410156-5.859375 24.453125-5.859375 9.15625 0 17.359375 1.953125 24.609375 5.859375 7.257813 3.90625 12.925781 9.324219 17 16.25 4.070313 6.917969 6.109375 14.78125 6.109375 23.59375 0 8.824219-2.039062 16.726563-6.109375 23.703125-4.074219 6.96875-9.742187 12.40625-17 16.3125-7.25 3.90625-15.453125 5.859375-24.609375 5.859375zm0-17.90625c7.707031 0 14.070312-2.566406 19.09375-7.703125 5.019531-5.132812 7.53125-11.890625 7.53125-20.265625s-2.511719-15.125-7.53125-20.25c-5.023438-5.132813-11.386719-7.703125-19.09375-7.703125-7.699219 0-14.03125 2.570312-19 7.703125-4.96875 5.125-7.453125 11.875-7.453125 20.25s2.484375 15.132813 7.453125 20.265625c4.96875 5.136719 11.300781 7.703125 19 7.703125zm0 0" transform="translate(220.738555 247.148264)"/><path d="m13.734375-124.234375h20.921875v124.234375h-20.921875zm0 0" transform="translate(328.72728 247.148264)"/></g></svg>
