<svg height="250" preserveAspectRatio="xMidYMid meet" viewBox="-4 50 200 80" width="500" xmlns="http://www.w3.org/2000/svg" zoomAndPan="magnify"><g fill="#53ed9e"><path d="m54.296875-66.59375v66.59375h-10.765625v-6.1875c-1.855469 2.273438-4.148438 3.976562-6.875 5.109375-2.71875 1.1328125-5.726562 1.703125-9.015625 1.703125-4.605469 0-8.75-1.015625-12.4375-3.046875-3.679687-2.03125-6.5625-4.914063-8.65625-8.65625-2.09375-3.738281-3.140625-8.035156-3.140625-12.890625 0-4.84375 1.046875-9.117188 3.140625-12.828125 2.09375-3.707031 4.976563-6.578125 8.65625-8.609375 3.6875-2.039062 7.832031-3.0625 12.4375-3.0625 3.175781 0 6.078125.542969 8.703125 1.625 2.632812 1.074219 4.878906 2.6875 6.734375 4.84375v-24.59375zm-25.3125 57.625c2.695313 0 5.117187-.613281 7.265625-1.84375 2.15625-1.226562 3.863281-2.976562 5.125-5.25 1.257812-2.269531 1.890625-4.90625 1.890625-7.90625 0-2.988281-.632813-5.617188-1.890625-7.890625-1.261719-2.269531-2.96875-4.019531-5.125-5.25-2.148438-1.226563-4.570312-1.84375-7.265625-1.84375-2.6875 0-5.109375.617187-7.265625 1.84375-2.15625 1.230469-3.867188 2.980469-5.125 5.25-1.25 2.273437-1.875 4.902344-1.875 7.890625 0 3 .625 5.636719 1.875 7.90625 1.257812 2.273438 2.96875 4.023438 5.125 5.25 2.15625 1.230469 4.578125 1.84375 7.265625 1.84375zm0 0" transform="translate(4.857425 124.676411)"/><path d="m7.359375-47.921875h11.21875v47.921875h-11.21875zm5.65625-7.90625c-2.03125 0-3.742187-.640625-5.125-1.921875-1.375-1.289062-2.0625-2.894531-2.0625-4.8125 0-1.90625.6875-3.5 2.0625-4.78125 1.382813-1.289062 3.09375-1.9375 5.125-1.9375s3.734375.617188 5.109375 1.84375c1.375 1.21875 2.0625 2.757812 2.0625 4.609375 0 1.980469-.671875 3.640625-2.015625 4.984375s-3.0625 2.015625-5.15625 2.015625zm0 0" transform="translate(66.510333 124.676411)"/><path d="m29.34375.625c-4.960938 0-9.417969-1.046875-13.375-3.140625-3.949219-2.09375-7.03125-5.007813-9.25-8.75-2.210938-3.738281-3.3125-7.972656-3.3125-12.703125 0-4.71875 1.101562-8.929688 3.3125-12.640625 2.21875-3.71875 5.285156-6.625 9.203125-8.71875 3.925781-2.09375 8.398437-3.140625 13.421875-3.140625 4.726562 0 8.875.960938 12.4375 2.875 3.5625 1.917969 6.238281 4.667969 8.03125 8.25l-8.625 5.03125c-1.375-2.207031-3.09375-3.863281-5.15625-4.96875-2.0625-1.113281-4.320312-1.671875-6.765625-1.671875-4.199219 0-7.671875 1.367187-10.421875 4.09375-2.75 2.71875-4.125 6.351563-4.125 10.890625 0 4.554688 1.359375 8.195312 4.078125 10.921875 2.726563 2.71875 6.21875 4.078125 10.46875 4.078125 2.445313 0 4.703125-.550781 6.765625-1.65625 2.0625-1.113281 3.78125-2.773438 5.15625-4.984375l8.625 5.015625c-1.855469 3.59375-4.5625 6.367188-8.125 8.3125-3.5625 1.9375-7.679688 2.90625-12.34375 2.90625zm0 0" transform="translate(92.445835 124.676411)"/><path d="m36.171875-2.609375c-1.324219 1.085937-2.929687 1.898437-4.8125 2.4375-1.875.53125-3.859375.796875-5.953125.796875-5.273438 0-9.34375-1.375-12.21875-4.125-2.867188-2.75-4.296875-6.757812-4.296875-12.03125v-23.0625h-7.90625v-8.96875h7.90625v-10.953125h11.21875v10.953125h12.828125v8.96875h-12.828125v22.796875c0 2.335937.566406 4.117187 1.703125 5.34375 1.132812 1.230469 2.78125 1.84375 4.9375 1.84375 2.507812 0 4.601562-.660156 6.28125-1.984375zm0 0" transform="translate(144.586072 124.676411)"/></g></svg>
