<svg height="250" preserveAspectRatio="xMidYMid meet" viewBox="20 50 350 265" width="500" xmlns="http://www.w3.org/2000/svg" zoomAndPan="magnify"><g fill="#55f3e3"><path d="m72.09375 1.5625c-12.09375 0-22.996094-2.609375-32.703125-7.828125-9.699219-5.226563-17.273437-12.503906-22.71875-21.828125-5.449219-9.332031-8.171875-19.894531-8.171875-31.6875 0-11.78125 2.722656-22.296875 8.171875-31.546875 5.445313-9.257813 13.019531-16.5 22.71875-21.71875 9.707031-5.226563 20.609375-7.84375 32.703125-7.84375 12.238281 0 23.207031 2.617187 32.90625 7.84375 9.695312 5.21875 17.269531 12.460937 22.71875 21.71875 5.445312 9.25 8.171875 19.765625 8.171875 31.546875 0 11.792969-2.726563 22.355469-8.171875 31.6875-5.449219 9.324219-13.023438 16.601562-22.71875 21.828125-9.699219 5.21875-20.667969 7.828125-32.90625 7.828125zm0-23.953125c10.289062 0 18.796875-3.429687 25.515625-10.296875 6.71875-6.863281 10.078125-15.894531 10.078125-27.09375 0-11.1875-3.359375-20.210938-10.078125-27.078125-6.71875-6.863281-15.226563-10.296875-25.515625-10.296875-10.304688 0-18.777344 3.433594-25.421875 10.296875-6.636719 6.867187-9.953125 15.890625-9.953125 27.078125 0 11.199219 3.316406 20.230469 9.953125 27.09375 6.644531 6.867188 15.117187 10.296875 25.421875 10.296875zm0 0" transform="translate(5.485047 266.329887)"/><path d="m84.625-120.890625c11.644531 0 22.054688 2.539063 31.234375 7.609375 9.175781 5.074219 16.375 12.242188 21.59375 21.5 5.226563 9.25 7.84375 19.917969 7.84375 32 0 12.09375-2.617187 22.808594-7.84375 32.140625-5.21875 9.324219-12.417969 16.523437-21.59375 21.59375-9.179687 5.074219-19.589844 7.609375-31.234375 7.609375-8.210938 0-15.710938-1.417969-22.5-4.25-6.792969-2.832031-12.5-7.085938-17.125-12.765625v15.453125h-26.640625v-166.109375h27.984375v61.109375c4.769531-5.21875 10.398438-9.171875 16.890625-11.859375 6.5-2.6875 13.628906-4.03125 21.390625-4.03125zm-3.140625 98.5c10.300781 0 18.769531-3.429687 25.40625-10.296875 6.644531-6.863281 9.96875-15.894531 9.96875-27.09375 0-11.1875-3.324219-20.210938-9.96875-27.078125-6.636719-6.863281-15.105469-10.296875-25.40625-10.296875-6.710937 0-12.75 1.53125-18.125 4.59375-5.375 3.054688-9.632813 7.417969-12.765625 13.09375-3.136719 5.667969-4.703125 12.230469-4.703125 19.6875 0 7.46875 1.566406 14.042969 4.703125 19.71875 3.132812 5.667969 7.390625 10.03125 12.765625 13.09375 5.375 3.054688 11.414063 4.578125 18.125 4.578125zm0 0" transform="translate(149.885691 266.329887)"/><path d="m6.046875 45c-11.789063 0-20.75-2.3125-26.875-6.9375l8.0625-20.828125c4.179687 3.132813 9.625 4.703125 16.34375 4.703125 5.226563 0 9.222656-1.605469 11.984375-4.8125 2.757812-3.210938 4.140625-7.949219 4.140625-14.21875v-122.453125h27.984375v121.78125c0 13.28125-3.65625 23.726563-10.96875 31.34375-7.3125 7.613281-17.539062 11.421875-30.671875 11.421875zm27.546875-184.25c-5.085938 0-9.34375-1.601562-12.78125-4.8125-3.429688-3.207031-5.140625-7.203125-5.140625-11.984375 0-4.769531 1.710937-8.757813 5.140625-11.96875 3.4375-3.207031 7.695312-4.8125 12.78125-4.8125 5.070312 0 9.320312 1.53125 12.75 4.59375 3.4375 3.054687 5.15625 6.890625 5.15625 11.515625 0 4.929688-1.683594 9.074219-5.046875 12.4375-3.355469 3.355469-7.640625 5.03125-12.859375 5.03125zm0 0" transform="translate(303.46529 266.329887)"/></g></svg>
