<svg height="250" preserveAspectRatio="xMidYMid meet" viewBox="0 100 370 175" width="500" xmlns="http://www.w3.org/2000/svg" zoomAndPan="magnify"><g fill="#52a1e7"><path d="m29.640625.84375c-5.199219 0-10.28125-.679688-15.25-2.03125-4.960937-1.363281-8.917969-3.085938-11.875-5.171875l5.765625-11.40625c2.875 1.929687 6.332031 3.46875 10.375 4.625 4.039062 1.15625 8.019531 1.734375 11.9375 1.734375 8.96875 0 13.453125-2.359375 13.453125-7.078125 0-2.238281-1.140625-3.796875-3.421875-4.671875-2.28125-.882812-5.945312-1.726562-10.984375-2.53125-5.28125-.789062-9.585937-1.707031-12.90625-2.75-3.3125-1.039062-6.195313-2.859375-8.640625-5.453125-2.4375-2.601563-3.65625-6.226563-3.65625-10.875 0-6.070313 2.539062-10.925781 7.625-14.5625 5.082031-3.644531 11.941406-5.46875 20.578125-5.46875 4.394531 0 8.789063.5 13.1875 1.5 4.40625 1 8.007813 2.339844 10.8125 4.015625l-5.765625 11.40625c-5.4375-3.207031-11.558594-4.8125-18.359375-4.8125-4.398437 0-7.734375.664062-10.015625 1.984375-2.28125 1.324219-3.421875 3.0625-3.421875 5.21875 0 2.40625 1.21875 4.109375 3.65625 5.109375 2.445313 1 6.226563 1.9375 11.34375 2.8125 5.125.804688 9.320313 1.726562 12.59375 2.765625 3.28125 1.042969 6.101563 2.804687 8.46875 5.28125 2.363281 2.480469 3.546875 6 3.546875 10.5625 0 6-2.605469 10.804687-7.8125 14.40625-5.199219 3.59375-12.277344 5.390625-21.234375 5.390625zm0 0" transform="translate(5.879887 229.499985)"/><path d="m48.359375-3.484375c-1.761719 1.449219-3.902344 2.53125-6.421875 3.25-2.523438.71875-5.183594 1.078125-7.984375 1.078125-7.03125 0-12.46875-1.835938-16.3125-5.515625-3.84375-3.6875-5.765625-9.050781-5.765625-16.09375v-30.828125h-10.5625v-12h10.5625v-14.640625h15v14.640625h17.171875v12h-17.171875v30.46875c0 3.125.757812 5.511719 2.28125 7.15625 1.519531 1.636719 3.722656 2.453125 6.609375 2.453125 3.351563 0 6.148437-.878906 8.390625-2.640625zm0 0" transform="translate(67.679913 229.499985)"/><path d="m24.125-54.71875c4.3125-6.71875 11.910156-10.078125 22.796875-10.078125v14.28125c-1.28125-.238281-2.445313-.359375-3.484375-.359375-5.835938 0-10.390625 1.699219-13.671875 5.09375-3.28125 3.398438-4.921875 8.296875-4.921875 14.703125v31.078125h-15v-64.078125h14.28125zm0 0" transform="translate(118.559941 229.499985)"/><path d="m9.84375-64.078125h15v64.078125h-15zm7.5625-10.5625c-2.71875 0-5-.859375-6.84375-2.578125-1.835938-1.71875-2.75-3.859375-2.75-6.421875s.914062-4.703125 2.75-6.421875c1.84375-1.71875 4.125-2.578125 6.84375-2.578125s4.992188.824219 6.828125 2.46875c1.84375 1.636719 2.765625 3.695313 2.765625 6.171875 0 2.636719-.902344 4.855469-2.703125 6.65625-1.792969 1.804688-4.089844 2.703125-6.890625 2.703125zm0 0" transform="translate(168.95997 229.499985)"/><path d="m46.203125-64.796875c8.070313 0 14.546875 2.359375 19.421875 7.078125 4.882812 4.71875 7.328125 11.71875 7.328125 21v36.71875h-15v-34.796875c0-5.601563-1.320313-9.820313-3.953125-12.65625-2.636719-2.84375-6.398438-4.265625-11.28125-4.265625-5.523438 0-9.882812 1.664062-13.078125 4.984375-3.199219 3.3125-4.796875 8.089844-4.796875 14.328125v32.40625h-15v-64.078125h14.28125v8.28125c2.476562-2.957031 5.597656-5.195313 9.359375-6.71875 3.757813-1.519531 8-2.28125 12.71875-2.28125zm0 0" transform="translate(203.639984 229.499985)"/><path d="m73.4375-64.078125v54.359375c0 22.5625-11.523438 33.84375-34.5625 33.84375-6.15625 0-11.996094-.78125-17.515625-2.34375-5.523437-1.5625-10.078125-3.824219-13.671875-6.78125l6.71875-11.28125c2.789062 2.320312 6.328125 4.179688 10.609375 5.578125 4.28125 1.40625 8.625 2.109375 13.03125 2.109375 7.03125 0 12.1875-1.605469 15.46875-4.8125 3.28125-3.199219 4.921875-8.078125 4.921875-14.640625v-3.359375c-2.5625 2.804688-5.683594 4.929688-9.359375 6.375-3.679687 1.4375-7.71875 2.15625-12.125 2.15625-6.074219 0-11.574219-1.300781-16.5-3.90625-4.917969-2.601562-8.796875-6.265625-11.640625-10.984375-2.835938-4.71875-4.25-10.113281-4.25-16.1875 0-6.082031 1.414062-11.460937 4.25-16.140625 2.84375-4.6875 6.722656-8.304688 11.640625-10.859375 4.925781-2.5625 10.425781-3.84375 16.5-3.84375 4.644531 0 8.863281.761719 12.65625 2.28125 3.800781 1.523437 6.984375 3.839844 9.546875 6.953125v-8.515625zm-34.203125 48.484375c5.6875 0 10.347656-1.695312 13.984375-5.09375 3.644531-3.40625 5.46875-7.828125 5.46875-13.265625 0-5.363281-1.824219-9.722656-5.46875-13.078125-3.636719-3.363281-8.296875-5.046875-13.984375-5.046875-5.761719 0-10.460937 1.683594-14.09375 5.046875-3.636719 3.355469-5.453125 7.714844-5.453125 13.078125 0 5.4375 1.816406 9.859375 5.453125 13.265625 3.632813 3.398438 8.332031 5.09375 14.09375 5.09375zm0 0" transform="translate(285.840028 229.499985)"/></g></svg>
