<svg fill="none" height="20" viewBox="-4 0 24 20" width="20" xmlns="http://www.w3.org/2000/svg"><g clip-rule="evenodd" fill="#256bfb" fill-rule="evenodd"><path d="m5 3.33341c-.46023 0-.83333.3731-.83333.83334v11.66665c0 .4603.3731.8333.83333.8333h10c.4602 0 .8333-.373.8333-.8333v-5.8333c0-.46026.3731-.83335.8334-.83335.4602 0 .8333.37309.8333.83335v5.8333c0 1.3808-1.1193 2.5-2.5 2.5h-10c-1.38071 0-2.5-1.1192-2.5-2.5v-11.66665c0-1.38071 1.11929-2.5 2.5-2.5h5c.4602 0 .8333.37309.8333.83333 0 .46023-.3731.83333-.8333.83333z"/><path d="m6.72008 9.71977c-.12749.1275-.2102.29293-.2357.47143l-.39283 2.7499c-.07857.5499.39283 1.0213.94281.9427l2.74985-.3928c.1785-.0255.34389-.1082.47139-.2357l6.2854-6.28539c.9764-.9763.9764-2.55922 0-3.53553-.9763-.97631-2.5592-.97631-3.5355 0zm6.87462-2.1606-4.32118 4.32123-1.37492.1964.19641-1.3749 4.32119-4.32123zm1.1786-1.1785-1.1786-1.17852.5893-.58926c.3254-.32543.853-.32543 1.1785 0 .3254.32544.3254.85307 0 1.17852z"/></g></svg>
