<svg fill="none" height="80" viewBox="2 2 20 20" width="80" xmlns="http://www.w3.org/2000/svg"><g clip-rule="evenodd" fill="#fff" fill-rule="evenodd"><path d="m12 20c4.4183 0 8-3.5817 8-8 0-4.41828-3.5817-8-8-8-4.41828 0-8 3.58172-8 8 0 4.4183 3.58172 8 8 8zm0 2c5.5228 0 10-4.4772 10-10 0-5.52285-4.4772-10-10-10-5.52285 0-10 4.47715-10 10 0 5.5228 4.47715 10 10 10z"/><path d="m12 6c.5523 0 1 .44771 1 1v4.5858l2.2071 2.2071c.3905.3905.3905 1.0237 0 1.4142s-1.0237.3905-1.4142 0l-2.2071-2.2071c-.3751-.3751-.5858-.8838-.5858-1.4142v-4.5858c0-.55229.4477-1 1-1z"/></g></svg>
