<svg height="250" preserveAspectRatio="xMidYMid meet" viewBox="40 80 295 215" width="500" xmlns="http://www.w3.org/2000/svg" zoomAndPan="magnify"><g fill="#f46b89"><path d="m41.46875-78.3125c11.414062 0 20.144531 2.734375 26.1875 8.203125 6.039062 5.460937 9.0625 13.699219 9.0625 24.71875v45.390625h-17.125v-9.421875c-2.21875 3.386719-5.386719 5.976563-9.5 7.765625-4.105469 1.78125-9.058594 2.671875-14.859375 2.671875-5.804687 0-10.882813-.9921875-15.234375-2.96875-4.34375-1.988281-7.703125-4.742187-10.078125-8.265625-2.367187-3.53125-3.546875-7.519531-3.546875-11.96875 0-6.957031 2.582031-12.539062 7.75-16.75 5.175781-4.207031 13.328125-6.3125 24.453125-6.3125h20.015625v-1.15625c0-5.414062-1.621094-9.570312-4.859375-12.46875-3.242187-2.90625-8.054687-4.359375-14.4375-4.359375-4.34375 0-8.621094.679687-12.828125 2.03125-4.210938 1.355469-7.761719 3.242187-10.65625 5.65625l-7.109375-13.1875c4.0625-3.09375 8.941406-5.460937 14.640625-7.109375 5.707031-1.644531 11.75-2.46875 18.125-2.46875zm-2.453125 66.125c4.539063 0 8.570313-1.035156 12.09375-3.109375 3.53125-2.082031 6.023437-5.054687 7.484375-8.921875v-8.984375h-18.71875c-10.4375 0-15.65625 3.433594-15.65625 10.296875 0 3.28125 1.300781 5.890625 3.90625 7.828125 2.613281 1.929687 6.242188 2.890625 10.890625 2.890625zm0 0" transform="translate(.011908 239.305393)"/><path d="m41.46875-78.3125c11.414062 0 20.144531 2.734375 26.1875 8.203125 6.039062 5.460937 9.0625 13.699219 9.0625 24.71875v45.390625h-17.125v-9.421875c-2.21875 3.386719-5.386719 5.976563-9.5 7.765625-4.105469 1.78125-9.058594 2.671875-14.859375 2.671875-5.804687 0-10.882813-.9921875-15.234375-2.96875-4.34375-1.988281-7.703125-4.742187-10.078125-8.265625-2.367187-3.53125-3.546875-7.519531-3.546875-11.96875 0-6.957031 2.582031-12.539062 7.75-16.75 5.175781-4.207031 13.328125-6.3125 24.453125-6.3125h20.015625v-1.15625c0-5.414062-1.621094-9.570312-4.859375-12.46875-3.242187-2.90625-8.054687-4.359375-14.4375-4.359375-4.34375 0-8.621094.679687-12.828125 2.03125-4.210938 1.355469-7.761719 3.242187-10.65625 5.65625l-7.109375-13.1875c4.0625-3.09375 8.941406-5.460937 14.640625-7.109375 5.707031-1.644531 11.75-2.46875 18.125-2.46875zm-2.453125 66.125c4.539063 0 8.570313-1.035156 12.09375-3.109375 3.53125-2.082031 6.023437-5.054687 7.484375-8.921875v-8.984375h-18.71875c-10.4375 0-15.65625 3.433594-15.65625 10.296875 0 3.28125 1.300781 5.890625 3.90625 7.828125 2.613281 1.929687 6.242188 2.890625 10.890625 2.890625zm0 0" transform="translate(88.027145 239.305393)"/><path d="m54.8125-78.3125c7.539062 0 14.285156 1.648438 20.234375 4.9375 5.945313 3.28125 10.609375 7.921875 13.984375 13.921875 3.382812 5.992187 5.078125 12.902344 5.078125 20.734375 0 7.835938-1.695313 14.773438-5.078125 20.8125-3.375 6.042969-8.039062 10.710938-13.984375 14-5.949219 3.28125-12.695313 4.921875-20.234375 4.921875-5.3125 0-10.171875-.9179688-14.578125-2.75-4.398437-1.84375-8.09375-4.597656-11.09375-8.265625v10h-17.25v-107.609375h18.125v39.59375c3.09375-3.382813 6.742187-5.945313 10.953125-7.6875 4.207031-1.738281 8.820312-2.609375 13.84375-2.609375zm-2.03125 63.8125c6.675781 0 12.164062-2.222656 16.46875-6.671875 4.300781-4.445313 6.453125-10.296875 6.453125-17.546875s-2.152344-13.097656-6.453125-17.546875c-4.304688-4.445313-9.792969-6.671875-16.46875-6.671875-4.34375 0-8.261719.996094-11.75 2.984375-3.480469 1.980469-6.234375 4.808594-8.265625 8.484375-2.023437 3.667969-3.03125 7.917969-3.03125 12.75 0 4.835938 1.007813 9.089844 3.03125 12.765625 2.03125 3.667969 4.785156 6.496094 8.265625 8.484375 3.488281 1.980469 7.40625 2.96875 11.75 2.96875zm0 0" transform="translate(176.042381 239.305393)"/><path d="m54.8125-78.3125c7.539062 0 14.285156 1.648438 20.234375 4.9375 5.945313 3.28125 10.609375 7.921875 13.984375 13.921875 3.382812 5.992187 5.078125 12.902344 5.078125 20.734375 0 7.835938-1.695313 14.773438-5.078125 20.8125-3.375 6.042969-8.039062 10.710938-13.984375 14-5.949219 3.28125-12.695313 4.921875-20.234375 4.921875-5.3125 0-10.171875-.9179688-14.578125-2.75-4.398437-1.84375-8.09375-4.597656-11.09375-8.265625v10h-17.25v-107.609375h18.125v39.59375c3.09375-3.382813 6.742187-5.945313 10.953125-7.6875 4.207031-1.738281 8.820312-2.609375 13.84375-2.609375zm-2.03125 63.8125c6.675781 0 12.164062-2.222656 16.46875-6.671875 4.300781-4.445313 6.453125-10.296875 6.453125-17.546875s-2.152344-13.097656-6.453125-17.546875c-4.304688-4.445313-9.792969-6.671875-16.46875-6.671875-4.34375 0-8.261719.996094-11.75 2.984375-3.480469 1.980469-6.234375 4.808594-8.265625 8.484375-2.023437 3.667969-3.03125 7.917969-3.03125 12.75 0 4.835938 1.007813 9.089844 3.03125 12.765625 2.03125 3.667969 4.785156 6.496094 8.265625 8.484375 3.488281 1.980469 7.40625 2.96875 11.75 2.96875zm0 0" transform="translate(275.512645 239.305393)"/></g></svg>
