<svg height="250" preserveAspectRatio="xMidYMid meet" viewBox="40 60 295 255" width="500" xmlns="http://www.w3.org/2000/svg" zoomAndPan="magnify"><g fill="#05f0ba"><path d="m57.359375-108.28125c15.769531 0 27.832031 3.777344 36.1875 11.328125 8.351563 7.554687 12.53125 18.949219 12.53125 34.1875v62.765625h-23.65625v-13.03125c-3.074219 4.679688-7.453125 8.257812-13.140625 10.734375-5.679688 2.46875-12.527344 3.703125-20.546875 3.703125-8.023437 0-15.042969-1.3710938-21.0625-4.109375-6.011719-2.738281-10.65625-6.546875-13.9375-11.421875-3.273437-4.882812-4.90625-10.40625-4.90625-16.5625 0-9.625 3.570313-17.34375 10.71875-23.15625 7.15625-5.8125 18.421875-8.71875 33.796875-8.71875h27.671875v-1.609375c0-7.488281-2.242187-13.238281-6.71875-17.25-4.480469-4.007813-11.132813-6.015625-19.953125-6.015625-6.023438 0-11.9375.9375-17.75 2.8125s-10.726562 4.484375-14.734375 7.828125l-9.828125-18.25c5.613281-4.28125 12.363281-7.554687 20.25-9.828125 7.882812-2.269531 16.242188-3.40625 25.078125-3.40625zm-3.421875 91.4375c6.289062 0 11.875-1.4375 16.75-4.3125s8.316406-6.984375 10.328125-12.328125v-12.4375h-25.875c-14.4375 0-21.65625 4.746094-21.65625 14.234375 0 4.554688 1.800781 8.167969 5.40625 10.84375 3.613281 2.667969 8.628906 4 15.046875 4zm0 0" transform="translate(-2.999995 258.110359)"/><path d="m77.203125-108.28125c13.5 0 24.328125 3.945312 32.484375 11.828125 8.15625 7.886719 12.234375 19.585937 12.234375 35.09375v61.359375h-25.0625v-58.15625c0-9.351562-2.210937-16.398438-6.625-21.140625-4.40625-4.75-10.6875-7.125-18.84375-7.125-9.230469 0-16.515625 2.777344-21.859375 8.328125-5.34375 5.542969-8.015625 13.527344-8.015625 23.953125v54.140625h-25.078125v-107.078125h23.875v13.828125c4.132812-4.945312 9.34375-8.6875 15.625-11.21875 6.289062-2.539062 13.378906-3.8125 21.265625-3.8125zm0 0" transform="translate(118.723854 258.110359)"/><path d="m116.703125-107.078125-50.125 115.703125c-4.679687 11.625-10.359375 19.8125-17.046875 24.5625s-14.777344 7.125-24.265625 7.125c-5.34375 0-10.625-.871094-15.84375-2.609375-5.210937-1.742187-9.484375-4.148437-12.828125-7.21875l10.03125-18.453125c2.40625 2.269531 5.242188 4.070312 8.515625 5.40625 3.269531 1.34375 6.578125 2.015625 9.921875 2.015625 4.414062 0 8.0625-1.136719 10.9375-3.40625 2.875-2.273437 5.515625-6.085937 7.921875-11.4375l1.796875-4.203125-46.71875-107.484375h26.0625l33.6875 79.203125 33.890625-79.203125zm0 0" transform="translate(256.089328 258.110359)"/></g></svg>
