<svg height="250" preserveAspectRatio="xMidYMid meet" viewBox="40 80 295 215" width="500" xmlns="http://www.w3.org/2000/svg" zoomAndPan="magnify"><g fill="#d6e149"><path d="m54.265625-77.53125c7.46875 0 14.144531 1.632812 20.03125 4.890625 5.882813 3.25 10.5 7.84375 13.84375 13.78125 3.351563 5.9375 5.03125 12.78125 5.03125 20.53125s-1.679687 14.621094-5.03125 20.609375c-3.34375 5.980469-7.960937 10.59375-13.84375 13.84375-5.886719 3.25-12.5625 4.875-20.03125 4.875-5.261719 0-10.070313-.90625-14.421875-2.71875-4.355469-1.820312-8.015625-4.550781-10.984375-8.1875v9.90625h-17.09375v-106.515625h17.953125v39.1875c3.0625-3.351563 6.671875-5.890625 10.828125-7.609375 4.164063-1.726562 8.738281-2.59375 13.71875-2.59375zm-2.015625 63.171875c6.601562 0 12.035156-2.195313 16.296875-6.59375 4.257813-4.40625 6.390625-10.195313 6.390625-17.375 0-7.175781-2.132812-12.96875-6.390625-17.375-4.261719-4.40625-9.695313-6.609375-16.296875-6.609375-4.304688 0-8.179688.984375-11.625 2.953125-3.449219 1.960937-6.179688 4.757813-8.1875 8.390625-2 3.636719-3 7.851562-3 12.640625 0 4.78125 1 8.992187 3 12.625 2.007812 3.636719 4.738281 6.4375 8.1875 8.40625 3.445312 1.960937 7.320312 2.9375 11.625 2.9375zm0 0" transform="translate(-2.237978 238.646442)"/><path d="m41.0625-77.53125c11.289062 0 19.925781 2.710938 25.90625 8.125 5.976562 5.40625 8.96875 13.5625 8.96875 24.46875v44.9375h-16.9375v-9.328125c-2.199219 3.34375-5.335938 5.902344-9.40625 7.671875-4.0625 1.769531-8.964844 2.65625-14.703125 2.65625-5.75 0-10.78125-.9804688-15.09375-2.9375-4.304687-1.957031-7.625-4.679688-9.96875-8.171875-2.34375-3.5-3.515625-7.453125-3.515625-11.859375 0-6.882812 2.554688-12.410156 7.671875-16.578125 5.125-4.164063 13.191406-6.25 24.203125-6.25h19.8125v-1.140625c0-5.363281-1.605469-9.476562-4.8125-12.34375-3.210938-2.875-7.96875-4.3125-14.28125-4.3125-4.3125 0-8.554688.671875-12.71875 2.015625-4.15625 1.335937-7.671875 3.199219-10.546875 5.59375l-7.03125-13.0625c4.019531-3.0625 8.851563-5.40625 14.5-7.03125 5.644531-1.632813 11.628906-2.453125 17.953125-2.453125zm-2.4375 65.46875c4.488281 0 8.476562-1.023438 11.96875-3.078125 3.5-2.0625 5.96875-5.003906 7.40625-8.828125v-8.90625h-18.515625c-10.34375 0-15.515625 3.398438-15.515625 10.1875 0 3.261719 1.289062 5.851562 3.875 7.765625 2.59375 1.90625 6.1875 2.859375 10.78125 2.859375zm0 0" transform="translate(96.244871 238.646442)"/><path d="m35.453125 1c-6.21875 0-12.296875-.8125-18.234375-2.4375-5.929688-1.625-10.664062-3.679688-14.203125-6.171875l6.890625-13.640625c3.445312 2.304688 7.585938 4.148438 12.421875 5.53125 4.832031 1.386719 9.59375 2.078125 14.28125 2.078125 10.71875 0 16.078125-2.820313 16.078125-8.46875 0-2.675781-1.367188-4.539063-4.09375-5.59375-2.730469-1.050781-7.109375-2.054687-13.140625-3.015625-6.3125-.957031-11.460937-2.054688-15.4375-3.296875-3.96875-1.25-7.414063-3.425781-10.328125-6.53125-2.917969-3.113281-4.375-7.445313-4.375-13 0-7.269531 3.035156-13.082031 9.109375-17.4375 6.082031-4.363281 14.289063-6.546875 24.625-6.546875 5.257813 0 10.519531.601562 15.78125 1.796875 5.269531 1.199219 9.582031 2.804687 12.9375 4.8125l-6.890625 13.640625c-6.511719-3.832031-13.835938-5.75-21.96875-5.75-5.261719 0-9.257812.792969-11.984375 2.375-2.730469 1.585938-4.09375 3.667969-4.09375 6.25 0 2.867188 1.457031 4.898438 4.375 6.09375 2.914063 1.199219 7.4375 2.324219 13.5625 3.375 6.125.960938 11.148437 2.0625 15.078125 3.3125 3.925781 1.242188 7.300781 3.34375 10.125 6.3125 2.820312 2.96875 4.234375 7.179688 4.234375 12.625 0 7.179688-3.117187 12.921875-9.34375 17.234375-6.21875 4.304687-14.6875 6.453125-25.40625 6.453125zm0 0" transform="translate(183.386406 238.646442)"/><path d="m11.765625-76.65625h17.953125v76.65625h-17.953125zm9.0625-12.640625c-3.261719 0-5.992187-1.023437-8.1875-3.078125-2.199219-2.0625-3.296875-4.625-3.296875-7.6875s1.097656-5.617188 3.296875-7.671875c2.195313-2.0625 4.925781-3.09375 8.1875-3.09375 3.25 0 5.972656.984375 8.171875 2.953125 2.207031 1.960938 3.3125 4.417969 3.3125 7.375 0 3.167969-1.078125 5.828125-3.234375 7.984375-2.15625 2.148437-4.90625 3.21875-8.25 3.21875zm0 0" transform="translate(257.320337 238.646442)"/><path d="m35.453125 1c-6.21875 0-12.296875-.8125-18.234375-2.4375-5.929688-1.625-10.664062-3.679688-14.203125-6.171875l6.890625-13.640625c3.445312 2.304688 7.585938 4.148438 12.421875 5.53125 4.832031 1.386719 9.59375 2.078125 14.28125 2.078125 10.71875 0 16.078125-2.820313 16.078125-8.46875 0-2.675781-1.367188-4.539063-4.09375-5.59375-2.730469-1.050781-7.109375-2.054687-13.140625-3.015625-6.3125-.957031-11.460937-2.054688-15.4375-3.296875-3.96875-1.25-7.414063-3.425781-10.328125-6.53125-2.917969-3.113281-4.375-7.445313-4.375-13 0-7.269531 3.035156-13.082031 9.109375-17.4375 6.082031-4.363281 14.289063-6.546875 24.625-6.546875 5.257813 0 10.519531.601562 15.78125 1.796875 5.269531 1.199219 9.582031 2.804687 12.9375 4.8125l-6.890625 13.640625c-6.511719-3.832031-13.835938-5.75-21.96875-5.75-5.261719 0-9.257812.792969-11.984375 2.375-2.730469 1.585938-4.09375 3.667969-4.09375 6.25 0 2.867188 1.457031 4.898438 4.375 6.09375 2.914063 1.199219 7.4375 2.324219 13.5625 3.375 6.125.960938 11.148437 2.0625 15.078125 3.3125 3.925781 1.242188 7.300781 3.34375 10.125 6.3125 2.820312 2.96875 4.234375 7.179688 4.234375 12.625 0 7.179688-3.117187 12.921875-9.34375 17.234375-6.21875 4.304687-14.6875 6.453125-25.40625 6.453125zm0 0" transform="translate(298.809478 238.646442)"/></g></svg>
