<svg height="250" preserveAspectRatio="xMidYMid meet" viewBox="40 80 295 215" width="500" xmlns="http://www.w3.org/2000/svg" zoomAndPan="magnify"><g fill="#9eff70"><path d="m47.53125 1.015625c-8.042969 0-15.261719-1.691406-21.65625-5.078125-6.398438-3.394531-11.390625-8.117188-14.984375-14.171875-3.585937-6.0625-5.375-12.921875-5.375-20.578125 0-7.644531 1.789063-14.472656 5.375-20.484375 3.59375-6.007813 8.5625-10.707031 14.90625-14.09375 6.34375-3.394531 13.585937-5.09375 21.734375-5.09375 7.65625 0 14.363281 1.554687 20.125 4.65625 5.769531 3.09375 10.109375 7.546875 13.015625 13.359375l-13.953125 8.140625c-2.230469-3.582031-5.015625-6.269531-8.359375-8.0625-3.34375-1.789063-7.007813-2.6875-10.984375-2.6875-6.78125 0-12.402344 2.203125-16.859375 6.609375-4.449219 4.40625-6.671875 10.292969-6.671875 17.65625 0 7.367188 2.203125 13.257812 6.609375 17.671875 4.40625 4.40625 10.046875 6.609375 16.921875 6.609375 3.976562 0 7.640625-.894531 10.984375-2.6875 3.34375-1.789062 6.128906-4.484375 8.359375-8.078125l13.953125 8.140625c-3.011719 5.8125-7.402344 10.296875-13.171875 13.453125-5.761719 3.148437-12.417969 4.71875-19.96875 4.71875zm0 0" transform="translate(.000005 238.371819)"/><path d="m46.796875 1.015625c-7.84375 0-14.917969-1.691406-21.21875-5.078125-6.292969-3.394531-11.210937-8.117188-14.75-14.171875-3.542969-6.0625-5.3125-12.921875-5.3125-20.578125 0-7.644531 1.769531-14.472656 5.3125-20.484375 3.539063-6.007813 8.457031-10.707031 14.75-14.09375 6.300781-3.394531 13.375-5.09375 21.21875-5.09375 7.945313 0 15.066406 1.699219 21.359375 5.09375 6.300781 3.386719 11.21875 8.085937 14.75 14.09375 3.539062 6.011719 5.3125 12.839844 5.3125 20.484375 0 7.65625-1.773438 14.515625-5.3125 20.578125-3.53125 6.054687-8.449219 10.777344-14.75 14.171875-6.292969 3.386719-13.414062 5.078125-21.359375 5.078125zm0-15.546875c6.6875 0 12.207031-2.226562 16.5625-6.6875 4.363281-4.457031 6.546875-10.320312 6.546875-17.59375 0-7.257812-2.183594-13.117188-6.546875-17.578125-4.355469-4.457031-9.875-6.6875-16.5625-6.6875s-12.1875 2.230469-16.5 6.6875c-4.304687 4.460937-6.453125 10.320313-6.453125 17.578125 0 7.273438 2.148438 13.136719 6.453125 17.59375 4.3125 4.460938 9.8125 6.6875 16.5 6.6875zm0 0" transform="translate(84.447175 238.371819)"/><path d="m11.921875-107.84375h18.171875v107.84375h-18.171875zm0 0" transform="translate(178.196616 238.371819)"/><path d="m46.796875 1.015625c-7.84375 0-14.917969-1.691406-21.21875-5.078125-6.292969-3.394531-11.210937-8.117188-14.75-14.171875-3.542969-6.0625-5.3125-12.921875-5.3125-20.578125 0-7.644531 1.769531-14.472656 5.3125-20.484375 3.539063-6.007813 8.457031-10.707031 14.75-14.09375 6.300781-3.394531 13.375-5.09375 21.21875-5.09375 7.945313 0 15.066406 1.699219 21.359375 5.09375 6.300781 3.386719 11.21875 8.085937 14.75 14.09375 3.539062 6.011719 5.3125 12.839844 5.3125 20.484375 0 7.65625-1.773438 14.515625-5.3125 20.578125-3.53125 6.054687-8.449219 10.777344-14.75 14.171875-6.292969 3.386719-13.414062 5.078125-21.359375 5.078125zm0-15.546875c6.6875 0 12.207031-2.226562 16.5625-6.6875 4.363281-4.457031 6.546875-10.320312 6.546875-17.59375 0-7.257812-2.183594-13.117188-6.546875-17.578125-4.355469-4.457031-9.875-6.6875-16.5625-6.6875s-12.1875 2.230469-16.5 6.6875c-4.304687 4.460937-6.453125 10.320313-6.453125 17.578125 0 7.273438 2.148438 13.136719 6.453125 17.59375 4.3125 4.460938 9.8125 6.6875 16.5 6.6875zm0 0" transform="translate(220.202169 238.371819)"/><path d="m29.21875-66.28125c5.226562-8.132812 14.429688-12.203125 27.609375-12.203125v17.296875c-1.554687-.289062-2.960937-.4375-4.21875-.4375-7.074219 0-12.59375 2.0625-16.5625 6.1875-3.96875 4.117188-5.953125 10.046875-5.953125 17.796875v37.640625h-18.171875v-77.609375h17.296875zm0 0" transform="translate(313.95161 238.371819)"/></g></svg>
