<svg height="250" preserveAspectRatio="xMidYMid meet" viewBox="40 35 295 295" width="500" xmlns="http://www.w3.org/2000/svg" zoomAndPan="magnify"><g fill="#5ebfe8"><path d="m21.96875-143.015625h33.46875v143.015625h-33.46875zm16.875-23.578125c-6.074219 0-11.167969-1.914062-15.28125-5.75-4.105469-3.84375-6.15625-8.617188-6.15625-14.328125 0-5.71875 2.050781-10.492187 6.15625-14.328125 4.113281-3.84375 9.207031-5.765625 15.28125-5.765625 6.0625 0 11.144531 1.835937 15.25 5.5 4.113281 3.65625 6.171875 8.25 6.171875 13.78125 0 5.898437-2.011719 10.855469-6.03125 14.875-4.011719 4.011719-9.140625 6.015625-15.390625 6.015625zm0 0" transform="translate(.279142 282.917959)"/><path d="m103.109375-144.625c18.039063 0 32.503906 5.265625 43.390625 15.796875 10.894531 10.53125 16.34375 26.15625 16.34375 46.875v81.953125h-33.484375v-77.671875c0-12.5-2.949219-21.914063-8.84375-28.25-5.886719-6.34375-14.277344-9.515625-25.171875-9.515625-12.324219 0-22.058594 3.710938-29.203125 11.125-7.136719 7.40625-10.703125 18.074219-10.703125 32v72.3125h-33.46875v-143.015625h31.859375v18.46875c5.539063-6.601563 12.503906-11.597656 20.890625-14.984375 8.394531-3.394531 17.859375-5.09375 28.390625-5.09375zm0 0" transform="translate(77.680579 282.917959)"/><path d="m107.9375-7.765625c-3.929688 3.210937-8.703125 5.621094-14.328125 7.234375-5.625 1.601562-11.5625 2.40625-17.8125 2.40625-15.71875 0-27.867187-4.101562-36.4375-12.3125-8.5625-8.21875-12.84375-20.179688-12.84375-35.890625v-68.84375h-23.5625v-26.78125h23.5625v-32.671875h33.484375v32.671875h38.296875v26.78125h-38.296875v68.03125c0 6.96875 1.691406 12.28125 5.078125 15.9375 3.394531 3.65625 8.304687 5.484375 14.734375 5.484375 7.5 0 13.75-1.960938 18.75-5.890625zm0 0" transform="translate(261.140754 282.917959)"/></g></svg>
