<svg height="250" preserveAspectRatio="xMidYMid meet" viewBox="40 80 295 215" width="500" xmlns="http://www.w3.org/2000/svg" zoomAndPan="magnify"><g fill="#fd6066"><path d="m49.0625-70.09375c6.75 0 12.785156 1.476562 18.109375 4.421875 5.320313 2.9375 9.492187 7.089844 12.515625 12.453125 3.03125 5.367188 4.546875 11.554688 4.546875 18.5625 0 7.011719-1.515625 13.21875-4.546875 18.625-3.023438 5.40625-7.195312 9.585938-12.515625 12.53125-5.324219 2.9375-11.359375 4.40625-18.109375 4.40625-9.34375 0-16.742188-3.113281-22.1875-9.34375v33.625h-16.234375v-94.5h15.453125v9.09375c2.675781-3.289062 5.984375-5.757812 9.921875-7.40625 3.9375-1.644531 8.285156-2.46875 13.046875-2.46875zm-1.8125 57.109375c5.96875 0 10.875-1.988281 14.71875-5.96875 3.851562-3.976563 5.78125-9.210937 5.78125-15.703125 0-6.488281-1.929688-11.722656-5.78125-15.703125-3.84375-3.976563-8.75-5.96875-14.71875-5.96875-3.898438 0-7.402344.886719-10.515625 2.65625-3.117187 1.773437-5.585937 4.304687-7.40625 7.59375-1.8125 3.292969-2.71875 7.101563-2.71875 11.421875 0 4.324219.90625 8.132812 2.71875 11.421875 1.820313 3.292969 4.289063 5.824219 7.40625 7.59375 3.113281 1.773437 6.617187 2.65625 10.515625 2.65625zm0 0" transform="translate(.000005 232.930603)"/><path d="m10.640625-96.3125h16.234375v96.3125h-16.234375zm0 0" transform="translate(89.044268 232.930603)"/><path d="m37.125-70.09375c10.207031 0 18.015625 2.449219 23.421875 7.34375 5.40625 4.886719 8.109375 12.261719 8.109375 22.125v40.625h-15.3125v-8.4375c-1.992188 3.03125-4.824219 5.351562-8.5 6.953125-3.679688 1.59375-8.109375 2.390625-13.296875 2.390625-5.199219 0-9.746094-.8867188-13.640625-2.65625-3.886719-1.769531-6.890625-4.234375-9.015625-7.390625-2.117187-3.164063-3.171875-6.738281-3.171875-10.71875 0-6.226563 2.3125-11.222656 6.9375-14.984375 4.625-3.769531 11.914062-5.65625 21.875-5.65625h17.90625v-1.03125c0-4.84375-1.453125-8.5625-4.359375-11.15625-2.898437-2.601562-7.199219-3.90625-12.90625-3.90625-3.898437 0-7.726563.609375-11.484375 1.828125-3.761719 1.210937-6.945312 2.890625-9.546875 5.046875l-6.359375-11.8125c3.632812-2.757812 8.003906-4.875 13.109375-6.34375 5.113281-1.476562 10.523437-2.21875 16.234375-2.21875zm-2.203125 59.1875c4.0625 0 7.671875-.925781 10.828125-2.78125 3.15625-1.863281 5.382812-4.523438 6.6875-7.984375v-8.046875h-16.75c-9.34375 0-14.015625 3.070312-14.015625 9.203125 0 2.949219 1.164063 5.289063 3.5 7.015625 2.34375 1.730469 5.59375 2.59375 9.75 2.59375zm0 0" transform="translate(126.557083 232.930603)"/><path d="m49.96875-70.09375c8.738281 0 15.75 2.554688 21.03125 7.65625 5.28125 5.105469 7.921875 12.679688 7.921875 22.71875v39.71875h-16.234375v-37.640625c0-6.0625-1.429688-10.625-4.28125-13.6875-2.855469-3.070313-6.921875-4.609375-12.203125-4.609375-5.96875 0-10.683594 1.796875-14.140625 5.390625-3.460938 3.585937-5.1875 8.75-5.1875 15.5v35.046875h-16.234375v-69.3125h15.453125v8.953125c2.675781-3.195313 6.046875-5.617187 10.109375-7.265625 4.070313-1.644531 8.660156-2.46875 13.765625-2.46875zm0 0" transform="translate(205.346983 232.930603)"/><path d="m75.796875-34.265625c0 1.125-.085937 2.726563-.25 4.796875h-54.390625c.945312 5.105469 3.429688 9.152344 7.453125 12.140625 4.03125 2.992187 9.03125 4.484375 15 4.484375 7.613281 0 13.890625-2.507812 18.828125-7.53125l8.6875 9.984375c-3.117188 3.730469-7.054688 6.546875-11.8125 8.453125-4.761719 1.8984375-10.125 2.84375-16.09375 2.84375-7.617188 0-14.324219-1.507812-20.125-4.53125-5.792969-3.03125-10.265625-7.25-13.421875-12.65625-3.15625-5.414062-4.734375-11.539062-4.734375-18.375 0-6.75 1.53125-12.828125 4.59375-18.234375 3.070312-5.40625 7.332031-9.625 12.78125-12.65625 5.457031-3.03125 11.601562-4.546875 18.4375-4.546875 6.75 0 12.785156 1.496094 18.109375 4.484375 5.320313 2.980469 9.472656 7.179687 12.453125 12.59375 2.988281 5.40625 4.484375 11.65625 4.484375 18.75zm-35.046875-22.84375c-5.1875 0-9.578125 1.539063-13.171875 4.609375-3.59375 3.074219-5.777344 7.164062-6.546875 12.265625h39.328125c-.699219-5.019531-2.824219-9.085937-6.375-12.203125-3.542969-3.113281-7.953125-4.671875-13.234375-4.671875zm0 0" transform="translate(294.261442 232.930603)"/></g></svg>
