<svg height="250" preserveAspectRatio="xMidYMid meet" viewBox="40 80 295 215" width="500" xmlns="http://www.w3.org/2000/svg" zoomAndPan="magnify"><g fill="#f35a9d"><path d="m94.453125-83.5v113.84375h-19.546875v-40.515625c-6.574219 7.511719-15.492188 11.265625-26.75 11.265625-8.125 0-15.398438-1.769531-21.8125-5.3125-6.40625-3.539062-11.414062-8.539062-15.015625-15-3.59375-6.46875-5.390625-13.976562-5.390625-22.53125 0-8.445312 1.820312-15.898438 5.46875-22.359375 3.65625-6.46875 8.660156-11.472656 15.015625-15.015625 6.363281-3.539062 13.609375-5.3125 21.734375-5.3125 5.738281 0 10.976562.992188 15.71875 2.96875 4.75 1.980469 8.738281 4.949219 11.96875 8.90625v-10.9375zm-44.09375 67.859375c7.1875 0 13.125-2.394531 17.8125-7.1875 4.695313-4.800781 7.046875-11.109375 7.046875-18.921875 0-7.820312-2.351562-14.128906-7.046875-18.921875-4.6875-4.789063-10.625-7.1875-17.8125-7.1875-7.199219 0-13.121094 2.398437-17.765625 7.1875-4.636719 4.792969-6.953125 11.101563-6.953125 18.921875 0 7.8125 2.316406 14.121094 6.953125 18.921875 4.644531 4.792969 10.566406 7.1875 17.765625 7.1875zm0 0" transform="translate(.000005 243.014831)"/><path d="m93.671875-83.5v83.5h-18.609375v-10.640625c-3.125 3.761719-7.039062 6.65625-11.734375 8.6875-4.6875 2.03125-9.746094 3.046875-15.171875 3.046875-11.148438 0-19.929688-3.097656-26.34375-9.296875-6.40625-6.207031-9.609375-15.410156-9.609375-27.609375v-47.6875h19.546875v45.03125c0 7.511719 1.691406 13.117188 5.078125 16.8125 3.382813 3.699219 8.207031 5.546875 14.46875 5.546875 6.976563 0 12.523437-2.160156 16.640625-6.484375 4.125-4.320312 6.1875-10.550781 6.1875-18.6875v-42.21875zm0 0" transform="translate(107.276575 243.014831)"/><path d="m44.71875-84.4375c12.300781 0 21.707031 2.949219 28.21875 8.84375 6.519531 5.886719 9.78125 14.765625 9.78125 26.640625v48.953125h-18.453125v-10.171875c-2.398437 3.65625-5.8125 6.449219-10.25 8.375-4.429687 1.925781-9.765625 2.890625-16.015625 2.890625-6.261719 0-11.734375-1.0703125-16.421875-3.203125-4.6875-2.132813-8.3125-5.101563-10.875-8.90625-2.554687-3.8125-3.828125-8.113281-3.828125-12.90625 0-7.507813 2.785156-13.53125 8.359375-18.0625 5.582031-4.53125 14.367187-6.796875 26.359375-6.796875h21.578125v-1.265625c0-5.832031-1.746094-10.3125-5.234375-13.4375-3.492188-3.125-8.679688-4.6875-15.5625-4.6875-4.6875 0-9.304688.730469-13.84375 2.1875-4.53125 1.460937-8.359375 3.492187-11.484375 6.09375l-7.671875-14.234375c4.382812-3.332031 9.648438-5.882812 15.796875-7.65625 6.15625-1.769531 12.671875-2.65625 19.546875-2.65625zm-2.65625 71.296875c4.90625 0 9.257812-1.117187 13.0625-3.359375 3.800781-2.238281 6.484375-5.441406 8.046875-9.609375v-9.703125h-20.171875c-11.261719 0-16.890625 3.703125-16.890625 11.109375 0 3.542969 1.40625 6.355469 4.21875 8.4375 2.820313 2.085937 6.734375 3.125 11.734375 3.125zm0 0" transform="translate(213.771246 243.014831)"/><path d="m63.015625-4.53125c-2.292969 1.875-5.078125 3.28125-8.359375 4.21875s-6.75 1.40625-10.40625 1.40625c-9.167969 0-16.257812-2.394531-21.265625-7.1875-5-4.800781-7.5-11.785156-7.5-20.953125v-40.1875h-13.765625v-15.640625h13.765625v-19.078125h19.546875v19.078125h22.359375v15.640625h-22.359375v39.71875c0 4.0625.988281 7.164063 2.96875 9.296875 1.976562 2.136719 4.84375 3.203125 8.59375 3.203125 4.382812 0 8.035156-1.144531 10.953125-3.4375zm0 0" transform="translate(308.693808 243.014831)"/></g></svg>
