<svg height="250" preserveAspectRatio="xMidYMid meet" viewBox="40 80 295 215" width="500" xmlns="http://www.w3.org/2000/svg" zoomAndPan="magnify"><g fill="#f5849c"><path d="m36.828125-83.53125c6.59375-10.257812 18.191406-15.390625 34.796875-15.390625v21.796875c-1.960938-.363281-3.730469-.546875-5.3125-.546875-8.917969 0-15.882812 2.601563-20.890625 7.796875-5 5.1875-7.5 12.664062-7.5 22.421875v47.453125h-22.90625v-97.828125h21.8125zm0 0" transform="translate(.015339 252.762715)"/><path d="m106.984375-48.359375c0 1.585937-.125 3.84375-.375 6.78125h-76.75c1.34375 7.199219 4.851563 12.90625 10.53125 17.125 5.675781 4.210937 12.726563 6.3125 21.15625 6.3125 10.75 0 19.601563-3.539063 26.5625-10.625l12.28125 14.109375c-4.398437 5.25-9.953125 9.21875-16.671875 11.90625s-14.292969 4.03125-22.71875 4.03125c-10.75 0-20.21875-2.132812-28.40625-6.40625-8.179688-4.28125-14.496094-10.234375-18.953125-17.859375-4.449219-7.632813-6.671875-16.273437-6.671875-25.921875 0-9.53125 2.164062-18.109375 6.5-25.734375 4.332031-7.632813 10.34375-13.585937 18.03125-17.859375 7.695312-4.28125 16.367188-6.421875 26.015625-6.421875 9.53125 0 18.050781 2.109375 25.5625 6.328125 7.507813 4.210938 13.367187 10.132812 17.578125 17.765625 4.21875 7.625 6.328125 16.449219 6.328125 26.46875zm-49.46875-32.25c-7.324219 0-13.523437 2.171875-18.59375 6.515625-5.0625 4.335938-8.148437 10.105469-9.25 17.3125h55.515625c-.980469-7.082031-3.976562-12.820312-8.984375-17.21875-5.011719-4.40625-11.242187-6.609375-18.6875-6.609375zm0 0" transform="translate(76.952351 252.762715)"/><path d="m59.90625 1.28125c-10.136719 0-19.234375-2.132812-27.296875-6.40625-8.0625-4.28125-14.355469-10.234375-18.875-17.859375-4.511719-7.632813-6.765625-16.273437-6.765625-25.921875 0-9.65625 2.253906-18.265625 6.765625-25.828125 4.519531-7.570313 10.78125-13.492187 18.78125-17.765625 8-4.28125 17.128906-6.421875 27.390625-6.421875 9.644531 0 18.097656 1.953125 25.359375 5.859375 7.269531 3.90625 12.738281 9.527344 16.40625 16.859375l-17.59375 10.25c-2.804687-4.507813-6.3125-7.894531-10.53125-10.15625-4.210937-2.257813-8.820313-3.390625-13.828125-3.390625-8.554688 0-15.636719 2.78125-21.25 8.34375-5.617188 5.554688-8.421875 12.96875-8.421875 22.25s2.773437 16.703125 8.328125 22.265625c5.5625 5.554687 12.675781 8.328125 21.34375 8.328125 5.007812 0 9.617188-1.128906 13.828125-3.390625 4.21875-2.257813 7.726563-5.648437 10.53125-10.171875l17.59375 10.265625c-3.792969 7.324219-9.324219 12.96875-16.59375 16.9375-7.261719 3.96875-15.652344 5.953125-25.171875 5.953125zm0 0" transform="translate(190.892403 252.762715)"/><path d="m73.828125-5.3125c-2.6875 2.199219-5.960937 3.851562-9.8125 4.953125-3.84375 1.09375-7.902344 1.640625-12.171875 1.640625-10.75 0-19.058594-2.804688-24.921875-8.421875-5.855469-5.625-8.78125-13.804687-8.78125-24.546875v-47.078125h-16.125v-18.328125h16.125v-22.34375h22.890625v22.34375h26.203125v18.328125h-26.203125v46.53125c0 4.761719 1.160156 8.390625 3.484375 10.890625 2.320313 2.5 5.679687 3.75 10.078125 3.75 5.125 0 9.394531-1.335938 12.8125-4.015625zm0 0" transform="translate(297.321935 252.762715)"/></g></svg>
