<svg height="250" preserveAspectRatio="xMidYMid meet" viewBox="40 80 295 215" width="500" xmlns="http://www.w3.org/2000/svg" zoomAndPan="magnify"><g fill="#f79c5e"><path d="m38.546875-2.78125c-1.40625 1.15625-3.117187 2.023438-5.125 2.59375-2 .570312-4.117187.859375-6.34375.859375-5.617187 0-9.953125-1.460937-13.015625-4.390625-3.0625-2.9375-4.59375-7.210938-4.59375-12.828125v-24.578125h-8.421875v-9.578125h8.421875v-11.671875h11.953125v11.671875h13.6875v9.578125h-13.6875v24.296875c0 2.480469.601563 4.375 1.8125 5.6875 1.21875 1.304687 2.972656 1.953125 5.265625 1.953125 2.675781 0 4.910156-.695312 6.703125-2.09375zm0 0" transform="translate(.000005 220.981801)"/><path d="m19.234375-43.625c3.4375-5.351562 9.492187-8.03125 18.171875-8.03125v11.390625c-1.023438-.195313-1.949219-.296875-2.78125-.296875-4.65625 0-8.292969 1.359375-10.90625 4.078125-2.617188 2.710937-3.921875 6.609375-3.921875 11.703125v24.78125h-11.953125v-51.078125h11.390625zm0 0" transform="translate(40.560656 220.981801)"/><path d="m27.359375-51.65625c7.519531 0 13.273437 1.804688 17.265625 5.40625 3.988281 3.605469 5.984375 9.042969 5.984375 16.3125v29.9375h-11.296875v-6.21875c-1.46875 2.230469-3.558594 3.9375-6.265625 5.125-2.710937 1.1757812-5.976563 1.765625-9.796875 1.765625-3.835938 0-7.1875-.6523438-10.0625-1.953125-2.867188-1.3125-5.078125-3.128906-6.640625-5.453125-1.5625-2.332031-2.34375-4.96875-2.34375-7.90625 0-4.582031 1.703125-8.257813 5.109375-11.03125 3.414062-2.78125 8.789062-4.171875 16.125-4.171875h13.203125v-.765625c0-3.570313-1.070313-6.3125-3.203125-8.21875-2.136719-1.914063-5.308594-2.875-9.515625-2.875-2.867187 0-5.6875.449219-8.46875 1.34375-2.773437.886719-5.117187 2.125-7.03125 3.71875l-4.6875-8.703125c2.675781-2.039062 5.894531-3.601562 9.65625-4.6875 3.769531-1.082031 7.757813-1.625 11.96875-1.625zm-1.625 43.625c3 0 5.660156-.679688 7.984375-2.046875 2.320312-1.375 3.960938-3.335937 4.921875-5.890625v-5.9375h-12.328125c-6.898438 0-10.34375 2.265625-10.34375 6.796875 0 2.167969.859375 3.890625 2.578125 5.171875 1.726563 1.273438 4.125 1.90625 7.1875 1.90625zm0 0" transform="translate(80.73865 220.981801)"/><path d="m36.828125-51.65625c6.4375 0 11.597656 1.886719 15.484375 5.65625 3.894531 3.761719 5.84375 9.339844 5.84375 16.734375v29.265625h-11.953125v-27.734375c0-4.46875-1.054687-7.832031-3.15625-10.09375-2.105469-2.269531-5.105469-3.40625-9-3.40625-4.398437 0-7.871094 1.328125-10.421875 3.984375-2.554688 2.648438-3.828125 6.453125-3.828125 11.421875v25.828125h-11.953125v-51.078125h11.390625v6.59375c1.96875-2.351563 4.453125-4.132813 7.453125-5.34375 3-1.21875 6.378906-1.828125 10.140625-1.828125zm0 0" transform="translate(138.805426 220.981801)"/><path d="m23.625.671875c-4.148438 0-8.199219-.542969-12.15625-1.625-3.949219-1.082031-7.101562-2.453125-9.453125-4.109375l4.578125-9.09375c2.300781 1.53125 5.0625 2.761719 8.28125 3.6875 3.21875.917969 6.390625 1.375 9.515625 1.375 7.144531 0 10.71875-1.878906 10.71875-5.640625 0-1.78125-.914063-3.019531-2.734375-3.71875-1.8125-.707031-4.730469-1.378906-8.75-2.015625-4.210938-.632812-7.636719-1.363281-10.28125-2.1875-2.648438-.832031-4.945312-2.285156-6.890625-4.359375-1.9375-2.070313-2.90625-4.960937-2.90625-8.671875 0-4.84375 2.019531-8.710938 6.0625-11.609375 4.050781-2.90625 9.519531-4.359375 16.40625-4.359375 3.507813 0 7.015625.402344 10.515625 1.203125 3.507812.792969 6.382812 1.859375 8.625 3.203125l-4.59375 9.078125c-4.34375-2.550781-9.226562-3.828125-14.640625-3.828125-3.511719 0-6.179687.527344-8 1.578125-1.8125 1.054687-2.71875 2.445313-2.71875 4.171875 0 1.90625.972656 3.261719 2.921875 4.0625 1.945312.792969 4.960938 1.542969 9.046875 2.25 4.070313.636719 7.414063 1.371094 10.03125 2.203125 2.613281.824219 4.863281 2.226563 6.75 4.203125 1.882813 1.980469 2.828125 4.789062 2.828125 8.421875 0 4.78125-2.074219 8.609375-6.21875 11.484375-4.148438 2.867188-9.792969 4.296875-16.9375 4.296875zm0 0" transform="translate(204.333827 220.981801)"/><path d="m32.71875-39.3125c6.1875.761719 10.90625 2.867188 14.15625 6.3125 3.25 3.4375 4.875 7.742188 4.875 12.90625 0 3.898438-.992188 7.4375-2.96875 10.625-1.980469 3.1875-4.964844 5.726562-8.953125 7.609375-3.980469 1.875-8.839844 2.8125-14.578125 2.8125-4.78125 0-9.390625-.683594-13.828125-2.046875-4.429687-1.375-8.203125-3.273438-11.328125-5.703125l5.359375-9.65625c2.425781 2.042969 5.375 3.652344 8.84375 4.828125 3.476563 1.179688 7.066406 1.765625 10.765625 1.765625 4.394531 0 7.851562-.90625 10.375-2.71875 2.519531-1.820313 3.78125-4.289063 3.78125-7.40625 0-3.125-1.199219-5.5625-3.59375-7.3125-2.386719-1.757813-6.039062-2.640625-10.953125-2.640625h-6.109375v-8.515625l15.203125-18.078125h-30.421875v-10.421875h45.625v8.3125zm0 0" transform="translate(253.599693 220.981801)"/><path d="m57.875-70.984375v70.984375h-11.484375v-6.59375c-1.980469 2.417969-4.421875 4.234375-7.328125 5.453125-2.898438 1.2070312-6.09375 1.8125-9.59375 1.8125-4.917969 0-9.339844-1.082031-13.265625-3.25-3.917969-2.164063-6.992187-5.242187-9.21875-9.234375-2.230469-3.988281-3.34375-8.566406-3.34375-13.734375 0-5.15625 1.113281-9.710937 3.34375-13.671875 2.226563-3.957031 5.300781-7.019531 9.21875-9.1875 3.925781-2.164062 8.347656-3.25 13.265625-3.25 3.375 0 6.460938.578125 9.265625 1.734375 2.8125 1.148437 5.207031 2.867187 7.1875 5.15625v-26.21875zm-26.984375 61.421875c2.875 0 5.457031-.648438 7.75-1.953125 2.300781-1.3125 4.117187-3.175781 5.453125-5.59375 1.34375-2.425781 2.015625-5.238281 2.015625-8.4375 0-3.1875-.671875-5.988281-2.015625-8.40625-1.335938-2.425781-3.152344-4.289063-5.453125-5.59375-2.292969-1.3125-4.875-1.96875-7.75-1.96875-2.867187 0-5.449219.65625-7.75 1.96875-2.292969 1.304687-4.109375 3.167969-5.453125 5.59375-1.335938 2.417969-2 5.21875-2 8.40625 0 3.199219.664062 6.011719 2 8.4375 1.34375 2.417969 3.160156 4.28125 5.453125 5.59375 2.300781 1.304687 4.882813 1.953125 7.75 1.953125zm0 0" transform="translate(309.27492 220.981801)"/></g></svg>
