<svg height="250" preserveAspectRatio="xMidYMid meet" viewBox="40 80 295 215" width="500" xmlns="http://www.w3.org/2000/svg" zoomAndPan="magnify"><g fill="#b0e14c"><path d="m37.625-2.703125c-1.367188 1.117187-3.03125 1.953125-5 2.515625-1.960938.5625-4.027344.84375-6.203125.84375-5.480469 0-9.714844-1.429688-12.703125-4.296875-2.980469-2.863281-4.46875-7.035156-4.46875-12.515625v-24h-8.21875v-9.328125h8.21875v-11.390625h11.671875v11.390625h13.34375v9.328125h-13.34375v23.71875c0 2.429688.585937 4.28125 1.765625 5.5625 1.1875 1.273438 2.898438 1.90625 5.140625 1.90625 2.613281 0 4.789063-.679688 6.53125-2.046875zm0 0" transform="translate(4.485952 220.180598)"/><path d="m18.765625-42.578125c3.363281-5.226563 9.28125-7.84375 17.75-7.84375v11.109375c-1-.1875-1.90625-.28125-2.71875-.28125-4.542969 0-8.089844 1.324219-10.640625 3.96875-2.554688 2.648438-3.828125 6.460938-3.828125 11.4375v24.1875h-11.671875v-49.859375h11.109375zm0 0" transform="translate(44.076187 220.180598)"/><path d="m26.703125-50.421875c7.34375 0 12.957031 1.761719 16.84375 5.28125 3.894531 3.511719 5.84375 8.820313 5.84375 15.921875v29.21875h-11.015625v-6.0625c-1.429688 2.179688-3.464844 3.84375-6.109375 5-2.648437 1.1445312-5.839844 1.71875-9.578125 1.71875-3.730469 0-6.996094-.6367188-9.796875-1.90625-2.804687-1.28125-4.96875-3.054688-6.5-5.328125-1.523437-2.269531-2.28125-4.835937-2.28125-7.703125 0-4.488281 1.660156-8.085938 4.984375-10.796875 3.332031-2.707031 8.582031-4.0625 15.75-4.0625h12.875v-.734375c0-3.488281-1.042969-6.164062-3.125-8.03125-2.085938-1.875-5.183594-2.8125-9.296875-2.8125-2.792969 0-5.542969.4375-8.25 1.3125-2.710937.875-5 2.089844-6.875 3.640625l-4.5625-8.5c2.613281-1.988281 5.753906-3.507813 9.421875-4.5625 3.675781-1.0625 7.566406-1.59375 11.671875-1.59375zm-1.578125 42.578125c2.914062 0 5.507812-.664062 7.78125-2 2.28125-1.34375 3.882812-3.257812 4.8125-5.75v-5.796875h-12.046875c-6.71875 0-10.078125 2.214844-10.078125 6.640625 0 2.117188.835938 3.796875 2.515625 5.046875 1.6875 1.242187 4.023437 1.859375 7.015625 1.859375zm0 0" transform="translate(83.292921 220.180598)"/><path d="m35.953125-50.421875c6.28125 0 11.316406 1.839844 15.109375 5.515625 3.800781 3.667969 5.703125 9.109375 5.703125 16.328125v28.578125h-11.671875v-27.078125c0-4.351563-1.027344-7.632813-3.078125-9.84375-2.054687-2.21875-4.980469-3.328125-8.78125-3.328125-4.292969 0-7.683594 1.292969-10.171875 3.875-2.492188 2.585938-3.734375 6.304688-3.734375 11.15625v25.21875h-11.671875v-49.859375h11.109375v6.4375c1.925781-2.300781 4.351563-4.039063 7.28125-5.21875 2.925781-1.1875 6.226563-1.78125 9.90625-1.78125zm0 0" transform="translate(139.970446 220.180598)"/><path d="m23.0625.65625c-4.042969 0-7.996094-.527344-11.859375-1.578125-3.855469-1.0625-6.9375-2.40625-9.25-4.03125l4.484375-8.859375c2.238281 1.492188 4.929688 2.6875 8.078125 3.59375 3.144531.898438 6.242187 1.34375 9.296875 1.34375 6.96875 0 10.453125-1.832031 10.453125-5.5 0-1.75-.886719-2.960938-2.65625-3.640625-1.773437-.6875-4.621094-1.34375-8.546875-1.96875-4.105469-.625-7.449219-1.335937-10.03125-2.140625-2.585938-.8125-4.828125-2.226562-6.734375-4.25-1.898437-2.019531-2.84375-4.835938-2.84375-8.453125 0-4.726563 1.972656-8.507813 5.921875-11.34375 3.957031-2.832031 9.296875-4.25 16.015625-4.25 3.425781 0 6.851563.390625 10.28125 1.171875 3.425781.773438 6.226563 1.8125 8.40625 3.125l-4.484375 8.875c-4.242188-2.488281-9.007812-3.734375-14.296875-3.734375-3.417969 0-6.015625.515625-7.796875 1.546875-1.773438 1.023438-2.65625 2.371094-2.65625 4.046875 0 1.867187.945312 3.1875 2.84375 3.96875 1.90625.78125 4.847656 1.515625 8.828125 2.203125 3.988281.617188 7.257813 1.328125 9.8125 2.140625 2.550781.8125 4.742187 2.183594 6.578125 4.109375 1.832031 1.929688 2.75 4.667969 2.75 8.21875 0 4.667969-2.027344 8.402344-6.078125 11.203125-4.042969 2.804687-9.546875 4.203125-16.515625 4.203125zm0 0" transform="translate(203.931076 220.180598)"/><path d="m51.453125-10.265625v10.265625h-48.1875v-8.125l25.953125-24.65625c2.925781-2.789062 4.90625-5.226562 5.9375-7.3125 1.03125-2.09375 1.546875-4.164062 1.546875-6.21875 0-3.050781-1.03125-5.382812-3.09375-7-2.054687-1.625-5.070313-2.4375-9.046875-2.4375-6.667969 0-11.773438 2.277344-15.3125 6.828125l-8.5-6.546875c2.550781-3.414062 5.988281-6.070312 10.3125-7.96875 4.320312-1.90625 9.160156-2.859375 14.515625-2.859375 7.101563 0 12.769531 1.683594 17 5.046875 4.226563 3.355469 6.34375 7.929688 6.34375 13.71875 0 3.554688-.746094 6.886719-2.234375 10-1.492188 3.105469-4.355469 6.652344-8.59375 10.640625l-17.453125 16.625zm0 0" transform="translate(252.018254 220.180598)"/><path d="m56.484375-69.28125v69.28125h-11.203125v-6.4375c-1.929688 2.367188-4.308594 4.140625-7.140625 5.328125-2.835937 1.1757812-5.960937 1.765625-9.375 1.765625-4.804687 0-9.121094-1.054688-12.953125-3.171875-3.824219-2.125-6.824219-5.128906-9-9.015625-2.179688-3.894531-3.265625-8.363281-3.265625-13.40625 0-5.039062 1.085937-9.488281 3.265625-13.34375 2.175781-3.863281 5.175781-6.851562 9-8.96875 3.832031-2.113281 8.148438-3.171875 12.953125-3.171875 3.289063 0 6.304687.5625 9.046875 1.6875 2.738281 1.117187 5.070312 2.792969 7 5.03125v-25.578125zm-26.328125 59.9375c2.800781 0 5.320312-.632812 7.5625-1.90625 2.238281-1.28125 4.007812-3.101562 5.3125-5.46875 1.3125-2.363281 1.96875-5.101562 1.96875-8.21875 0-3.101562-.65625-5.835938-1.96875-8.203125-1.304688-2.375-3.074219-4.195313-5.3125-5.46875-2.242188-1.28125-4.761719-1.921875-7.5625-1.921875-2.804688 0-5.324219.640625-7.5625 1.921875-2.242188 1.273437-4.015625 3.09375-5.328125 5.46875-1.304687 2.367187-1.953125 5.101563-1.953125 8.203125 0 3.117188.648438 5.855469 1.953125 8.21875 1.3125 2.367188 3.085937 4.1875 5.328125 5.46875 2.238281 1.273438 4.757812 1.90625 7.5625 1.90625zm0 0" transform="translate(306.361448 220.180598)"/></g></svg>
