<svg fill="none" height="20" viewBox="2 2 20 20" width="20" xmlns="http://www.w3.org/2000/svg"><g clip-rule="evenodd" fill="#fff" fill-rule="evenodd"><path d="m10 10c.5523 0 1 .4477 1 1v5c0 .5523-.4477 1-1 1-.55229 0-1-.4477-1-1v-5c0-.5523.44771-1 1-1z"/><path d="m14 10c.5523 0 1 .4477 1 1v5c0 .5523-.4477 1-1 1s-1-.4477-1-1v-5c0-.5523.4477-1 1-1z"/><path d="m10 2c-1.65685 0-3 1.34315-3 3h-3-1c-.55229 0-1 .44772-1 1s.44771 1 1 1h1v12c0 1.6569 1.34315 3 3 3h10c1.6569 0 3-1.3431 3-3v-12h1c.5523 0 1-.44772 1-1s-.4477-1-1-1h-1-3c0-1.65685-1.3431-3-3-3zm5 3c0-.55228-.4477-1-1-1h-4c-.55228 0-1 .44772-1 1zm-8 2h-1v12c0 .5523.44772 1 1 1h10c.5523 0 1-.4477 1-1v-12h-1z"/></g></svg>
