<svg height="250" preserveAspectRatio="xMidYMid meet" viewBox="40 80 295 215" width="500" xmlns="http://www.w3.org/2000/svg" zoomAndPan="magnify"><g fill="#da72e9"><path d="m90-82.578125-35.40625 82.578125h-19.953125l-35.40625-82.578125h20.09375l25.671875 61.234375 26.4375-61.234375zm0 0" transform="translate(4.804091 242.590911)"/><path d="m90.3125-40.828125c0 1.34375-.105469 3.25-.3125 5.71875h-64.796875c1.132813 6.085937 4.097656 10.90625 8.890625 14.46875 4.789062 3.554687 10.742188 5.328125 17.859375 5.328125 9.070313 0 16.546875-2.988281 22.421875-8.96875l10.375 11.90625c-3.71875 4.4375-8.414062 7.792969-14.078125 10.0625-5.667969 2.2617188-12.058594 3.390625-19.171875 3.390625-9.074219 0-17.0625-1.800781-23.96875-5.40625-6.90625-3.613281-12.246094-8.640625-16.015625-15.078125-3.761719-6.445312-5.640625-13.738281-5.640625-21.875 0-8.039062 1.828125-15.285156 5.484375-21.734375 3.664063-6.445313 8.742187-11.472656 15.234375-15.078125 6.5-3.601562 13.820312-5.40625 21.96875-5.40625 8.039062 0 15.226562 1.78125 21.5625 5.34375 6.34375 3.554688 11.289062 8.554688 14.84375 15 3.5625 6.4375 5.34375 13.882812 5.34375 22.328125zm-41.75-27.21875c-6.1875 0-11.421875 1.835937-15.703125 5.5-4.28125 3.65625-6.886719 8.527344-7.8125 14.609375h46.859375c-.824219-5.976562-3.351562-10.820312-7.578125-14.53125-4.230469-3.71875-9.484375-5.578125-15.765625-5.578125zm0 0" transform="translate(94.181749 242.590911)"/><path d="m50.5625 1.078125c-8.554688 0-16.234375-1.800781-23.046875-5.40625-6.804687-3.613281-12.109375-8.640625-15.921875-15.078125-3.8125-6.445312-5.71875-13.738281-5.71875-21.875 0-8.144531 1.90625-15.414062 5.71875-21.8125 3.8125-6.394531 9.09375-11.394531 15.84375-15 6.757812-3.601562 14.46875-5.40625 23.125-5.40625 8.144531 0 15.285156 1.652344 21.421875 4.953125 6.132813 3.292969 10.75 8.03125 13.84375 14.21875l-14.84375 8.65625c-2.375-3.8125-5.34375-6.671875-8.90625-8.578125-3.554687-1.90625-7.445313-2.859375-11.671875-2.859375-7.210938 0-13.1875 2.34375-17.9375 7.03125-4.742188 4.6875-7.109375 10.953125-7.109375 18.796875 0 7.835938 2.34375 14.09375 7.03125 18.78125 4.695313 4.6875 10.703125 7.03125 18.015625 7.03125 4.226562 0 8.117188-.953125 11.671875-2.859375 3.5625-1.90625 6.53125-4.765625 8.90625-8.578125l14.84375 8.65625c-3.199219 6.1875-7.867187 10.960938-14 14.3125-6.136719 3.34375-13.226563 5.015625-21.265625 5.015625zm0 0" transform="translate(190.363243 242.590911)"/><path d="m52.890625-63.5625c10 1.242188 17.625 4.648438 22.875 10.21875 5.257813 5.5625 7.890625 12.523438 7.890625 20.875 0 6.28125-1.601562 12-4.796875 17.15625-3.1875 5.15625-8.007813 9.257812-14.453125 12.296875-6.4375 3.0390625-14.296875 4.5625-23.578125 4.5625-7.730469 0-15.179687-1.109375-22.34375-3.328125-7.167969-2.21875-13.277344-5.285156-18.328125-9.203125l8.65625-15.609375c3.914062 3.292969 8.679688 5.898438 14.296875 7.8125 5.625 1.90625 11.425781 2.859375 17.40625 2.859375 7.113281 0 12.707031-1.46875 16.78125-4.40625 4.070313-2.945313 6.109375-6.941406 6.109375-11.984375 0-5.050781-1.9375-8.992188-5.8125-11.828125-3.867188-2.84375-9.765625-4.265625-17.703125-4.265625h-9.890625v-13.765625l24.59375-29.21875h-49.1875v-16.859375h73.765625v13.453125zm0 0" transform="translate(280.20481 242.590911)"/></g></svg>
