<svg height="18" viewBox="0 0 16 18" width="16" xmlns="http://www.w3.org/2000/svg"><path d="m64.1499729 252.688778c0 .380926-.1899811.734602-.50821.945887l-5.008413 3.326584c-.0664615.04413-.1363762.080059-.2083629.10895v-6.350449c0-.430612.2296667-.828842.6030943-1.045841l5.1104693-2.969152c.0073846.052014.0114223.104717.0114223.158001zm-6.7630815-3.760583-5.0661617-2.98455c.0320885-.023335.0652395-.045506.1000907-.06556l5.0084129-2.879992c.1760619-.101224.3734276-.15181.5707401-.15181.1974188 0 .3947314.050586.5707933.15181l5.0084129 2.880045c.0479735.027568.0932374.058734.1360575.09244l-5.0969752 2.961321c-.380759.221232-.8519397.219804-1.2313705-.003704zm.1880685 8.142004c-.0719336-.028891-.1419014-.064872-.2083098-.109003l-5.008413-3.326531c-.3182289-.211338-.50821-.564961-.50821-.945887v-5.82602c0-.068312.0067471-.135671.0187538-.201708l5.1094599 3.010054c.3698681.217899.5967191.614065.5967191 1.042085zm6.4292333-11.925235-5.008413-2.880044c-.6141977-.3532-1.3773096-.353253-1.9915604 0l-5.008413 2.880044c-.6142509.353147-.9958068 1.011395-.9958068 1.717794v5.82602c0 .66465.3314575 1.281572.8866314 1.650275l5.008413 3.326532c.3356545.222926.7202386.334415 1.104929.334415.3846373 0 .7693808-.111489 1.1049822-.334362l5.0083598-3.326585c.5552271-.36865.8866846-.985625.8866846-1.650275v-5.82602c0-.706399-.3816091-1.364647-.9958068-1.717794z" fill="#fff" fill-rule="evenodd" stroke="#fff" stroke-width=".5" transform="translate(-50 -241)"/></svg>
