<svg height="17" viewBox="0 0 16 17" width="16" xmlns="http://www.w3.org/2000/svg"><g style="stroke:#fff;stroke-width:1.164;fill:none;fill-rule:evenodd;stroke-linecap:round;stroke-linejoin:round" transform="translate(1 1)"><path d="m13.9787142.34775569c0-.23047467-.1859967-.38380992-.4138845-.34040425l-7.88199741 1.8695105c-.22693029.04647238-.41388446.27081364-.41388446.50317551v8.59904055c-.00359067.0469442-.01149014.0875191-.02441655.1311607-.28031157-.5496479-1.23686581-1.32458067-2.59796878-1.32458067-1.46307797 0-2.6465625 1.16770687-2.6465625 2.60811457 0 1.4397 1.18348453 2.6062274 2.6465625 2.6062274 1.24907409 0 2.29850698-.8558466 2.57355223-2.0063327.00311192-.0160412.00789947-.0318466.01077201-.049775.00287254-.0193438.01077201-.0377441.01364454-.0561443.01077201-.0556725.02010775-.1125245.02513469-.168197.0129264-.1070987.02298028-.215377.02298028-.3257784 0-.0872831-.00239378-.1748022-.01364454-.2594904v-6.65522148c0-.23306957.18456039-.46071344.41149067-.50435501l7.87433732-1.69871862c.2278878-.04364157.4114907.11134498.4114907.34441455l.0023938 4.8008086h-.0028726c-.0047875.10521157.0545782.79569198.0028726.88038022-.7437473-.67231608-1.2586492-1.0551824-2.6465625-1.0551824-1.463078 0-2.64632316 1.16770688-2.64632316 2.60599144 0 1.4420591 1.18324516 2.6097659 2.64632316 2.6097659 1.4630779 0 2.6465625-1.1677068 2.6465625-2.6097659 0-.0155694-.0023938-.0342055-.0023938-.0500108z"/><path d="m13.564758.007422-7.881758 1.869511"/></g></svg>
