<svg height="14" viewBox="0 0 16 14" width="16" xmlns="http://www.w3.org/2000/svg"><path d="m13.1250009 1.875h-5.04199237l-1.41503915-1.32568359c-.3515625-.35185576-.82617179-.54931641-1.32421866-.54931641h-3.46875027c-1.03564471 0-1.87500045.83964855-1.87500045 1.875v9.375c0 1.0353515.83935529 1.875 1.875 1.875h11.25c1.0356447 0 1.875-.8396485 1.875-1.875v-7.5c0-1.03417933-.8144537-1.875-1.875-1.875zm.4687491 9.375c0 .2585158-.2102932.46875-.46875.46875h-11.25c-.25845721 0-.46875045-.2102342-.46875045-.46875v-9.375c0-.25851578.21029324-.46875.46875045-.46875h3.44238281c.1251854 0 .24295897.04875004.33134759.13734341l1.8512696 1.73765659h5.625c.2584568 0 .46875.21023422.46875.46875z" fill="#fff" transform="translate(.973632 .8125)"/></svg>
