<svg height="16" viewBox="0 0 19 16" width="19" xmlns="http://www.w3.org/2000/svg"><g style="stroke:#256bfb;stroke-width:1.33824;fill:none;fill-rule:evenodd;stroke-linecap:round;stroke-linejoin:round" transform="translate(1 1)"><path d="m14.5292104 1.8063987c0 .99750783-.8306912 1.80639871-1.8550827 1.80639871-1.0243916 0-1.8550828-.80889088-1.8550828-1.80639871 0-.99750782.8306912-1.8063987 1.8550828-1.8063987 1.0243915 0 1.8550827.80889088 1.8550827 1.8063987z"/><path d="m0 1.806399h10.586911"/><path d="m14.52921 1.806399h2.470637"/><path d="m6.18095513 6.77418152c0 .99750783-.83069122 1.80639871-1.85508278 1.80639871s-1.85508278-.80889088-1.85508278-1.80639871c0-.99750782.83069122-1.8063987 1.85508278-1.8063987s1.85508278.80889088 1.85508278 1.8063987z"/><path d="m0 6.774182h2.355029"/><path d="m6.180955 6.774182h10.818892"/><path d="m12.1061952 12.1936013c0 .9975078-.8306912 1.8063987-1.8550828 1.8063987-1.02439157 0-1.85508278-.8088909-1.85508278-1.8063987s.83069121-1.8063987 1.85508278-1.8063987c1.0243916 0 1.8550828.8088909 1.8550828 1.8063987z"/><path d="m0 12.193601h8.280116"/><path d="m12.106195 12.193601h4.893805"/></g></svg>
