<svg width="15" height="15" viewBox="0 0 15 15" fill="none" xmlns="http://www.w3.org/2000/svg">
<mask id="mask0_0_9233" style="mask-type:luminance" maskUnits="userSpaceOnUse" x="0" y="0" width="15" height="15">
<path fill-rule="evenodd" clip-rule="evenodd" d="M0 0H15V15H0V0Z" fill="white"/>
</mask>
<g mask="url(#mask0_0_9233)">
<path fill-rule="evenodd" clip-rule="evenodd" d="M7.50002 0C11.6421 0 15 3.35792 15 7.50004C15 11.6422 11.6421 15.0001 7.50002 15.0001C3.35791 15.0001 0 11.6422 0 7.50004C0 3.35814 3.35791 0 7.50002 0ZM5.36896 10.3568C5.56079 11.3558 6.2851 13.995 7.50002 13.995C8.71494 13.995 9.43925 11.3558 9.63108 10.3568H5.36896ZM5.21519 5.64839C5.07334 6.86557 5.07334 8.13452 5.21519 9.3517H9.78486C9.92671 8.13452 9.92671 6.86557 9.78486 5.64839H5.21519ZM7.50002 1.00508C6.2851 1.00508 5.56079 3.64454 5.36896 4.64331H9.63108C9.43925 3.64454 8.71494 1.00508 7.50002 1.00508ZM4.34925 4.64331C4.54964 3.52318 4.90785 2.26796 5.54008 1.30611C3.84897 1.84084 2.44582 3.05306 1.66567 4.64331H4.34925ZM4.20493 9.3517C4.07051 8.13002 4.07051 6.87007 4.20493 5.64839H1.27278C1.09851 6.23514 1.00508 6.85678 1.00508 7.50004C1.00508 8.14353 1.09851 8.76495 1.27278 9.3517H4.20493ZM5.54008 13.694C4.90785 12.7324 4.54964 11.4767 4.34925 10.3568H1.66545C2.4456 11.947 3.84897 13.1595 5.54008 13.694ZM10.6508 10.3568C10.4504 11.4769 10.0922 12.7324 9.45997 13.694C11.1509 13.1595 12.5547 11.947 13.3346 10.3568H10.6508ZM10.7951 5.64839C10.9295 6.87007 10.9295 8.13002 10.7951 9.3517H13.7273C13.9015 8.76495 13.995 8.14353 13.995 7.50004C13.995 6.85678 13.9015 6.23514 13.7273 5.64839H10.7951ZM9.45997 1.30611C10.0922 2.26773 10.4506 3.52341 10.6508 4.64331H13.3344C12.5544 3.05306 11.1511 1.84084 9.45997 1.30611Z" fill="#256BFB"/>
</g>
</svg>
