<svg height="4.762497mm" viewBox="0 0 4.7625046 4.7624969" width="4.762505mm" xmlns="http://www.w3.org/2000/svg"><g transform="translate(-125.86874 -96.576299)"><path clip-rule="evenodd" d="m18 5c0-2.76-2.24-5-5-5h-8c-2.76 0-5 2.24-5 5v8c0 2.76 2.24 5 5 5h8c2.76 0 5-2.24 5-5z" fill="#0b1021" fill-rule="evenodd" stroke-linejoin="round" stroke-miterlimit="2" transform="matrix(.26458333 0 0 .26458333 125.86875 96.576297)"/><path d="m127.14703 100.61733c-.0378-.0153-.11753-.0834-.17714-.1513l-.10839-.12343.01-.953395.01-.953385.14092-.131411c.0999-.09315.17054-.131411.24263-.131411.1014 0 .10169-.000542.10242-.192428.00095-.326351.18717-.614175.48377-.748909.18678-.08484.65135-.08484.83811 0 .29487.133948.48252.422778.48377.744636l.00061.188147.12973.02073c.0944.01512.1631.05767.25244.156584l.12273.135844-.01.954488-.01.9545-.14094.13141-.14092.13141-1.08055-.002c-.59431-.00094-1.11149-.0146-1.14931-.0299zm2.01421-.52008c.0402-.0546.0473-.185789.0391-.713898-.009-.601989-.0148-.650367-.077-.695947-.0554-.04048-.20779-.04725-.8812-.03907-.76944.0094-.81698.01359-.86345.07684-.0401.05463-.0473.185776-.0391.71389.009.601985.0148.650365.077.695945.0554.0405.2078.0472.8812.0391.76944-.009.81698-.0136.86345-.0769zm-1.08539-.157292c-.0221-.02209-.0402-.102287-.0402-.178221 0-.104003-.0207-.157459-.0837-.21667-.072-.06757-.0837-.107923-.0837-.287718 0-.176155.0136-.225357.0866-.312085.0799-.09502.10299-.102963.29862-.102963.17923 0 .22789.01341.31494.08664.095.07995.10297.102994.10297.298623 0 .177284-.0137.228253-.0837.311411-.058.06892-.0837.139534-.0837.230123 0 .169375-.0462.211013-.23427.211013-.0846 0-.17201-.018-.19409-.04019zm.60835-1.858991c-.057-.237807-.23082-.409694-.41426-.409694-.18342 0-.35722.171887-.41425.409694l-.0221.09203h.43632.43632z" fill="#fefefe" stroke-width=".033465"/></g></svg>
