<svg fill="none" height="16" viewBox="0 0 16 16" width="16" xmlns="http://www.w3.org/2000/svg" xmlns:xlink="http://www.w3.org/1999/xlink"><clipPath id="a"><path d="m0 0h16v16h-16z"/></clipPath><g clip-path="url(#a)"><path d="m6 1v1c-.26522 0-.51957.10536-.70711.29289-.18753.18754-.29289.44189-.29289.70711v10h-1v-2h-2v2c.00014.1754.04641.3477.13417.4995.08776.1519.21393.278.36583.3657.15194.0881.32439.1346.5.1348v1h7c.5304 0 1.0391-.2107 1.4142-.5858s.5858-.8838.5858-1.4142v-8h3v-2c0-.53043-.2107-1.03914-.5858-1.41421-.3751-.37508-.8838-.58579-1.4142-.58579z" fill="#2a85ff"/><path d="m6 1c-1.1046 0-2 .89543-2 2v7h-2-1v1 2c0 1.1046.89543 2 2 2s2-.8954 2-2v-10c0-.55228.44772-1 1-1s1 .44772 1 1v1 1 1h1 4v-1h-4v-1-1c0-1.1046-.89543-2-2-2zm-4 10h2v2c0 .5523-.44772 1-1 1s-1-.4477-1-1z" fill="#256bfb"/></g></svg>
