<svg clip-rule="evenodd" fill-rule="evenodd" stroke-linejoin="round" stroke-miterlimit="2" viewBox="0 0 18 18" xmlns="http://www.w3.org/2000/svg"><path d="m18 5c0-2.76-2.24-5-5-5h-8c-2.76 0-5 2.24-5 5v8c0 2.76 2.24 5 5 5h8c2.76 0 5-2.24 5-5z" fill="#0b1021"/><path d="m8.824 7.395c.059 0 .117-.02.176-.02 1.035 0 1.875.84 1.875 1.875s-.84 1.875-1.875 1.875c-1.055 0-1.875-.84-1.875-1.875v-.156c.176.097.391.156.625.156.684 0 1.25-.547 1.25-1.25 0-.215-.078-.43-.176-.605zm3.926-.938c.918.84 1.523 1.856 1.816 2.559.059.156.059.332 0 .488-.293.684-.898 1.699-1.816 2.559-.918.859-2.187 1.562-3.75 1.562-1.582 0-2.852-.703-3.77-1.562-.917-.86-1.523-1.875-1.816-2.559-.059-.156-.059-.332 0-.488.293-.703.899-1.719 1.816-2.559.918-.859 2.188-1.582 3.77-1.582 1.563 0 2.832.723 3.75 1.582zm-3.75-.019c-1.562 0-2.812 1.269-2.812 2.812 0 1.563 1.25 2.813 2.812 2.813 1.543 0 2.813-1.25 2.813-2.813 0-1.543-1.27-2.812-2.813-2.812z" fill="#fff" fill-rule="nonzero"/></svg>
