<svg height="1024" width="1024" xmlns="http://www.w3.org/2000/svg" xmlns:xlink="http://www.w3.org/1999/xlink"><linearGradient id="a" gradientTransform="matrix(0 -1 1 0 0 1024)" gradientUnits="userSpaceOnUse" x1="91.76" x2="932.24" y1="512" y2="512"><stop offset="0" stop-color="#112"/><stop offset="1" stop-color="#334"/></linearGradient><path d="m352.28023 91.76001c-9.97764 0-18.717 0-28.69566.0571-8.40582.05-16.8096.14688-25.21032.37536-18.31308.49368-36.78222 1.57386-54.88926 4.83072-18.3702 3.30276-35.4654 8.69652-52.15566 17.19618a175.40226 175.40226 0 0 0 -44.43018 32.29422 175.5012 175.5012 0 0 0 -32.2728 44.44548c-8.5017 16.70862-13.89342 33.82218-17.19516 52.21176-3.25176 18.1101-4.3299 36.58434-4.8246 54.8964-.22746 8.40786-.32334 16.8147-.37536 25.2246-.0612 9.98376-.0561 19.96752-.0561 29.95128l-.41514 115.91996v86.69898l.41514 113.86974c0 10.00314-.0051 20.00628.0561 30.00942.05202 8.42724.1479 16.8504.37536 25.27356.4947 18.3549 1.57386 36.87096 4.8297 55.0239 3.30072 18.41406 8.6904 35.55414 17.18598 52.28418a175.8531 175.8531 0 0 0 32.27688 44.54034 175.43388 175.43388 0 0 0 44.42202 32.35236c16.69944 8.52312 33.80586 13.92708 52.18524 17.238 18.10092 3.25992 36.56292 4.3401 54.86784 4.83684 8.40174.22644 16.80552.32436 25.21032.37536 9.97968.0612 22.37574.57426 32.3544.57426h199.91898l114.67758-.51816c9.99192 0 19.98384.004 29.97576-.0561 8.41704-.051 16.83204-.14892 25.24602-.37638 18.33552-.49572 36.83118-1.57794 54.96372-4.84092 18.39264-3.3099 35.51436-8.71284 52.22502-17.22882a175.6848 175.6848 0 0 0 44.49138-32.35644 175.89288 175.89288 0 0 0 32.31768-44.53218c8.51292-16.74024 13.91178-33.88848 17.2176-52.31376 3.25686-18.14478 4.33704-36.65472 4.83174-55.00248.22746-8.42316.32436-16.84734.37536-25.27458.0602-10.00314.0602-20.00526.0602-30.0084v-316.48866c0-9.98376 0-19.96752-.0602-29.95128-.051-8.4099-.1479-16.81674-.37536-25.2246-.49572-18.3192-1.57692-36.79956-4.83582-54.91782-3.30582-18.37836-8.70264-35.48376-17.21046-52.18218a175.44408 175.44408 0 0 0 -32.32074-44.45364 175.6746 175.6746 0 0 0 -44.48424-32.29218c-16.71882-8.50374-33.84768-13.8975-52.25358-17.2023-18.1254-3.2538-36.61392-4.33296-54.9423-4.82766-8.415-.22746-16.83-.32436-25.24602-.37434-9.99192-.0571-19.98384-.0571-29.97576-.0571h-318.2553z" fill="url(#a)" stroke-width="1.02"/><g fill="#fff"><g stroke-width=".75"><path d="m864.185 512c0 194.505-157.695 352.2-352.2 352.2-109.215 0-206.835-49.74-271.35-127.77l38.415-22.17c56.55 65.115 139.92 106.29 232.935 106.29 170.43 0 308.58-138.15 308.58-308.55 0-35.295-5.94-69.195-16.875-100.755l38.4-22.17c14.295 38.265 22.095 79.68 22.095 122.925z"/><path d="m833.525 368.165-38.01 21.945c-47.235-109.815-156.39-186.69-283.53-186.69-170.4 0-308.55 138.18-308.55 308.58 0 69.225 22.815 133.14 61.365 184.62l-38.01 21.96c-42.15-58.035-66.975-129.405-66.975-206.58 0-194.505 157.665-352.2 352.17-352.2 143.28 0 266.52 85.545 321.54 208.365z"/><path d="m404.165 619.85-68.4 39.39c-3.315 1.905-7.455-.48-7.455-4.305v-78.84z"/><path d="m619.835 619.85 68.4 39.39c3.315 1.905 7.455-.48 7.455-4.305v-78.84s-75.855 43.755-75.855 43.755z"/></g><path d="m224.66 410.88 110.86 64.02v122.8l-110.86-64.04z" transform="matrix(.75 0 0 .75 159.815 159.8)"/><path d="m411.455 403.895v96.075l-83.145-48.015v-87.42c0-3.825 4.14-6.225 7.455-4.305l75.69 43.68z" stroke-width=".75"/><path d="m437.38 512.48-83.36-47.98v-128.3l106.28 61.34v128.12z" transform="matrix(.75 0 0 .75 159.815 159.8)"/><path d="m478.82 397.58 106.28-61.38v127.92l-106.28 61.16z" transform="matrix(.75 0 0 .75 159.815 159.8)"/><path d="m695.69 364.52v87.495l-83.175 47.895v-95.97l75.72-43.71c3.315-1.92 7.455.48 7.455 4.305z" stroke-width=".75"/></g></svg>
