<svg height="26" viewBox="0 0 22 26" width="22" xmlns="http://www.w3.org/2000/svg"><path d="m77.6642431 399.369264c0 .619006-.2985417 1.193729-.7986157 1.537067l-7.8703633 5.405699c-.1044395.071712-.2143055.130095-.3274274.177043v-10.319479c0-.699746.3609048-1.346868.9477196-1.699492l8.0307375-4.824872c.0116044.084524.0179493.170165.0179493.256751zm-10.6276995-6.110948-7.9611113-4.849893c.0504248-.037919.1025194-.073947.1572854-.106535l7.8703633-4.679987c.2766686-.164489.5868147-.246691.8968773-.246691.3102295 0 .6202921.082202.8969607.246691l7.8703633 4.680073c.0753868.044798.1465158.095443.2138046.150216l-8.0095325 4.812145c-.5983356.359503-1.3387623.357182-1.9350108-.006019zm.2955362 13.230757c-.1130384-.046948-.2229879-.105417-.3273439-.177129l-7.8703633-5.405613c-.500074-.343424-.7986157-.918061-.7986157-1.537067v-9.467283c0-.111006.0106026-.220465.0294702-.327774l8.0291513 4.891338c.5812213.354086.9377014.997855.9377014 1.693387zm10.103081-19.378506-7.8703633-4.680073c-.9651679-.573949-2.1643436-.574035-3.129595 0l-7.8703633 4.680073c-.9652513.573863-1.5648392 1.643516-1.5648392 2.791414v9.467283c0 1.080057.5208617 2.082555 1.393278 2.681698l7.8703632 5.405613c.527457.362255 1.1318036.543425 1.7363171.543425.60443 0 1.2090269-.18117 1.7364005-.543339l7.8702798-5.405699c.8724997-.599057 1.3933614-1.601641 1.3933614-2.681698v-9.467283c0-1.147898-.5996714-2.217551-1.5648392-2.791414z" fill="#fff" fill-rule="evenodd" opacity=".5" transform="translate(-57 -382)"/></svg>
