<svg height="2.910431mm" viewBox="0 0 2.9104385 2.9104309" width="2.910439mm" xmlns="http://www.w3.org/2000/svg"><path clip-rule="evenodd" d="m100.01339 180.47699c-.002-.00004-.004-.00004-.005 0h-.275216c-.176635 0-.335158.11053-.399179.27832l-.25526.66904c-.06202.16255.0061.34081.1473.42228v1.10419c0 .24108.191759.43656.428302.43656h1.713213c.23654 0 .42831-.19548.42831-.43656v-1.10419c.14119-.0815.20932-.25973.1473-.42228l-.25527-.66904c-.064-.16779-.22254-.27832-.39918-.27832h-.27521c-.002-.00004-.004-.00004-.005 0zm1.49648 1.41713c-.0641-.008-.12681-.0266-.18539-.0564l-.10009-.051h-.00014l-.0917.0374c-.17018.0694-.36003.0694-.53022 0l-.0918-.0374-.0918.0374c-.17019.0694-.36004.0694-.530228 0l-.09172-.0374h-.000148l-.100095.051c-.05858.0299-.121338.0488-.185375.0564v1.0567c0 .0804.06392.14552.142767.14552h.285535v-.43656c0-.24111.191754-.43656.428294-.43656h.28554c.23654 0 .42831.19545.42831.43656v.43656h.28553c.0789 0 .14277-.0652.14277-.14552zm-.15785-.36777c-.002-.001-.004-.002-.007-.003l-.15874-.75512h.10148c.0589 0 .11172.0368.13306.0928l.25526.66904c.011.0289-.005.0612-.0349.0687-.0636.0162-.13084.009-.18949-.0212zm-.29468.0149-.16257-.77326h-.24151v.76338l.0551.0225c.10211.0416.21602.0416.31813 0zm-.68962-.77326h-.24149l-.162569.77326.03084.0126c.102119.0416.216029.0416.318139 0l.0551-.0225zm-.692262.75511.15875-.75511h-.101484c-.05888 0-.11172.0368-.133058.0928l-.25526.66904c-.01105.0289.0053.0612.0349.0687.06362.0162.130837.009.189492-.0212l.100161-.051c.0022-.001.0043-.002.0065-.003zm1.120572 1.13664v.43656h-.57107v-.43656c0-.0804.0639-.14552.14276-.14552h.28554c.0789 0 .14277.0651.14277.14552z" fill="#fff" fill-rule="evenodd" stroke-width=".264583" transform="translate(-99.055727 -180.47695)"/></svg>
