<svg height="16" viewBox="0 0 16 16" width="16" xmlns="http://www.w3.org/2000/svg"><path d="m7.205295 1.5-.6999975 1.5h1.9894275l-.70005-1.5zm-1.655295 0-.6999975 1.5h-2.72868l1.280325-1.2803325c.140655-.1406475.3314175-.2196675.5303325-.2196675zm-5.53900942 2.1213525c.04782622-.4550625.25019392-.88254.57671842-1.20906l1.753281-1.75328325c.4219575-.42195675.9942525-.65900925 1.59099-.65900925h7.13607c.5967 0 1.169025.23705325 1.590975.65901l1.753275 1.7532825c.32655.3265275.5289.7539975.576675 1.20906.007275.041805.011025.0847875.011025.1286475v9c0 1.242675-1.007325 2.25-2.25 2.25h-10.5c-1.2426375 0-2.25-1.007325-2.25-2.25v-9c0-.04386.0037654-.08685.01099058-.1286475zm1.48900942.8786475v8.25c0 .414225.33579.75.75.75h10.5c.414225 0 .75-.335775.75-.75v-8.25h-3v2.25c0 1.242675-1.007325 2.25-2.25 2.25h-1.5c-1.2426375 0-2.25-1.007325-2.25-2.25v-2.25zm4.5 0v2.25c0 .41421.33579.75.75.75h1.5c.414225 0 .75-.3357825.75-.75v-2.25zm6.8787-1.5-1.280325-1.2803325c-.1407-.1406475-.331425-.2196675-.530325-.2196675h-1.61805l.699975 1.5z" fill="#fff" fill-rule="evenodd" transform="translate(.5 .333333)"/></svg>
