<svg fill="none" height="25" viewBox="0 0 23 25" width="23" xmlns="http://www.w3.org/2000/svg"><g fill="#fff"><path clip-rule="evenodd" d="m20.725 16.3651c0 .5476-.285 1.056-.7624 1.3597l-7.5126 4.782c-.0997.0634-.2045.1151-.3125.1566v-9.1288c0-.619.3445-1.1914.9046-1.5034l7.6657-4.26811c.0111.07477.0172.15053.0172.22712zm-10.1447-5.4058-7.59921-4.29031c.04814-.03354.09786-.06541.15014-.09424l7.51267-4.13999c.264-.14551.5601-.21823.8561-.21823.2961 0 .5921.07272.8561.21823l7.5127 4.14006c.0719.03963.1398.08443.2041.13289l-7.6455 4.25689c-.5711.318-1.2779.316-1.8471-.0053zm.2821 11.7041c-.1079-.0415-.2128-.0932-.3124-.1567l-7.51264-4.7819c-.47735-.3038-.76232-.8121-.76232-1.3597v-8.37489c0-.09819.01012-.19502.02813-.28995l7.66419 4.32694c.55484.3132.89504.8827.89504 1.498zm9.6439-17.14251-7.5126-4.14007c-.9213-.507723-2.066-.507799-2.9874 0l-7.51259 4.14007c-.92138.50764-1.49371 1.45388-1.49371 2.46932v8.37489c0 .9555.49719 1.8423 1.32995 2.3723l7.51262 4.7819c.50343.3204 1.08033.4807 1.65743.4807.5769 0 1.154-.1603 1.6574-.4806l7.5126-4.782c.8328-.5299 1.33-1.4168 1.33-2.3723v-8.37489c0-1.01544-.5724-1.96168-1.4937-2.46932z" fill-rule="evenodd"/><path d="m19.9626 17.7248-.0536-.0843h-.0001zm-7.5126 4.782.0537.0844zm-.3125.1566h-.1v.1456l.1359-.0523zm.9046-10.6322-.0486-.0873zm7.6657-4.26811.0989-.01466-.0211-.14307-.1264.07036zm-17.72671-1.0941-.05717-.08204-.13048.09093.13849.07819zm.15014-.09424-.04826-.08758-.00003.00001zm7.51267-4.13999-.0483-.08759v.00001zm1.7122 0 .0483-.08758v-.00001zm7.5127 4.14006-.0483.08758v.00002zm.2041.13289.0486.08737.1342-.07472-.1226-.09249zm-7.6455 4.25689-.0487-.0874zm-1.565 11.6988-.0359.0933.1359.0524v-.1457zm-.3124-.1567.0537-.0843zm-7.51264-4.7819.05369-.0843zm-.73419-10.02454.04916-.08708-.12142-.06855-.02599.13699zm7.66419 4.32694.04914-.0871zm3.02634-10.64638-.0483.08758zm-2.9874 0 .0483.08758zm-7.51259 4.14007.04826.08758zm-.16376 13.21651.05369-.0844zm7.51262 4.7819-.0537.0843zm3.31483.0001.0537.0843zm7.5126-4.782-.0537-.0844zm-.045-2.3723c0 .5121-.2664.9893-.716 1.2754l.1073.1687c.5051-.3213.8087-.861.8087-1.4441zm-.7161 1.2754-7.5126 4.7819.1074.1688 7.5126-4.782zm-7.5126 4.7819c-.0936.0596-.1924.1083-.2947.1477l.0718.1866c.1136-.0437.2245-.0982.3303-.1655zm-.1588.241v-9.1288h-.2v9.1288zm0-9.1288c0-.5811.3234-1.1209.8533-1.416l-.0973-.1747c-.5905.3288-.956.9339-.956 1.5907zm.8533-1.416 7.6657-4.26814-.0973-.17474-7.6657 4.26818zm7.5181-4.34086c.0104.07031.0161.14116.0161.21247h.2c0-.08187-.0065-.16254-.0183-.24178zm.0161.21247v8.37489h.2v-8.37489zm-9.9955 2.88199-7.59924-4.29029-.09833.17416 7.59927 4.29033zm-7.59123-4.12117c.04604-.03208.09275-.06197.14125-.08872l-.09658-.17513c-.05606.03091-.10879.06476-.15902.09977zm.14122-.0887 7.51261-4.13999-.0965-.17516-7.51263 4.13999zm7.51261-4.13999c.2488-.13707.5281-.20581.8079-.20581v-.2c-.3123 0-.625.0767-.9044.23064zm.8079-.20581c.2798 0 .5591.06874.8079.20581l.0965-.17517c-.2794-.15394-.5921-.23064-.9044-.23064zm.8079.20581 7.5126 4.14006.0965-.17516-7.5126-4.14006zm7.5126 4.14008c.0674.03709.1313.07922.1921.12512l.1205-.15967c-.0676-.051-.1395-.09847-.2161-.14064zm.2037-.04208-7.6455 4.25686.0973.1748 7.6455-4.25692zm-7.6455 4.25686c-.5407.3011-1.2104.2992-1.7492-.005l-.0983.1742c.5995.3384 1.3433.3405 1.9448.0056zm-1.4803 11.6929c-.1023-.0394-.2012-.0882-.2947-.1477l-.1074.1687c.1057.0673.2166.1219.3302.1656zm-.2947-.1477-7.51265-4.7819-.10739.1687 7.51264 4.7819zm-7.51265-4.7819c-.44966-.2862-.71601-.7633-.71601-1.2754h-.2c0 .5831.3036 1.1227.80862 1.4441zm-.71601-1.2754v-8.37489h-.2v8.37489zm0-8.37489c0-.09131.00941-.18188.02638-.27131l-.1965-.03728c-.01905.10042-.02988.20351-.02988.30859zm-.12103-.20287 7.66419 4.32696.0983-.1742-7.66417-4.32692zm7.66419 4.32696c.5248.2963.8442.8333.8442 1.4109h.2c0-.6529-.361-1.2549-.9459-1.5851zm.8442 1.4109v9.1382h.2v-9.1382zm9.7922-8.0919-7.5127-4.14006-.0965.17516 7.5126 4.14007zm-7.5127-4.14006c-.9513-.52428-2.1324-.524361-3.08384 0l.09654.17516c.8913-.491237 1.9996-.491165 2.8908 0zm-3.08383 0-7.51262 4.14006.09652.17517 7.51263-4.14007zm-7.51262 4.14006c-.95187.52445-1.54545 1.50343-1.54545 2.55691h.2c0-.97741.55109-1.89089 1.44197-2.38174zm-1.54545 2.55691v8.37489h.2v-8.37489zm0 8.37489c0 .991.51581 1.909 1.37625 2.4567l.10739-.1688c-.80508-.5124-1.28364-1.368-1.28364-2.2879zm1.37625 2.4566 7.51262 4.7819.10739-.1687-7.51262-4.7819zm7.51262 4.7819c.52003.331 1.11563.4964 1.71113.4964v-.2c-.5586 0-1.1168-.1551-1.60374-.4651zm1.71113.4964c.5954 0 1.1912-.1654 1.7111-.4963l-.1074-.1687c-.4868.3099-1.0452.465-1.6037.465zm1.7111-.4963 7.5126-4.782-.1074-.1687-7.5126 4.782zm7.5126-4.7819c.8605-.5476 1.3763-1.4657 1.3763-2.4567h-.2c0 .9199-.4786 1.7756-1.2837 2.2879zm1.3763-2.4567v-8.37489h-.2v8.37489zm0-8.37489c0-1.05349-.5937-2.03246-1.5454-2.55691l-.0966.17517c.8908.49085 1.442 1.40434 1.442 2.38174z"/></g></svg>
