<svg height="13" viewBox="0 0 12 13" width="12" xmlns="http://www.w3.org/2000/svg"><g fill="#fff" fill-rule="evenodd" transform="translate(-.974061 -.260606)"><path d="m4.9942725 3.64524285c.62347833-1.45726506 2.0697775-2.47857618 3.7557275-2.47857618 2.2551667 0 4.0833333 1.82817152 4.0833333 4.08333116 0 1.20940102-.5265166 2.29658211-1.360975 3.04342338-.2400416.21489988-.608825.19448323-.8236666-.04561664-.2149-.24004154-.194425-.60882468.0456166-.82366623.597625-.53491055.9723584-1.31037597.9723584-2.17414051 0-1.61082748-1.30585-2.91666512-2.9166667-2.91666512-1.3811 0-2.5392675.96048699-2.84039 2.25055714-.04307333.1845374-.17310417.33665315-.34869333.40791311-.17558917.0712658-.37485.05279748-.53435084-.04952497-.27186833-.17441074-.5948425-.27561132-.9432325-.27561132-.96649583 0-1.75.78350188-1.75 1.7499972 0 .64703299.3508225 1.21274936.87542584 1.51625753.27886833.16129158.37416166.51811639.21284666.79700791-.16132083.27889152-.51816333.3741498-.79703166.21285822-.87026917-.5034164-1.4579075-1.4457909-1.4579075-2.52612366 0-1.61082747 1.30583833-2.91666511 2.91666666-2.91666511.3177125 0 .62405.0509833.91093917.14524409z"/><path d="m5.66248081 9.74581417c-.22780915.22780333-.59715421.22780333-.82495986 0-.22780571-.22780917-.22780571-.5971525 0-.82496167l1.74999813-1.74999825c.11345832-.11345798.26202748-.17040855.4107308-.17085425h.00175.00175c.07845833.00023283.15327083.01595177.22153832.04426246.06880416.02846637.13326249.07066354.18919249.12659179l1.74999988 1.74999825c.22780331.22780917.22780331.5971525 0 .82496167-.22780915.22780333-.59715246.22780333-.82496161 0l-.75418578-.75419167v3.2583775c0 .3221692-.26116999.5833333-.5833333.5833333s-.58333329-.2611641-.58333329-.5833333v-3.2583775z" transform="matrix(1 0 0 -1 0 19.833334)"/></g></svg>
