<svg fill="none" height="31" viewBox="0 0 36 31" width="36" xmlns="http://www.w3.org/2000/svg" xmlns:xlink="http://www.w3.org/1999/xlink"><filter id="a" color-interpolation-filters="sRGB" filterUnits="userSpaceOnUse" height="30.1992" width="35.134" x=".399902" y=".400391"><feFlood flood-opacity="0" result="BackgroundImageFix"/><feColorMatrix in="SourceAlpha" result="hardAlpha" type="matrix" values="0 0 0 0 0 0 0 0 0 0 0 0 0 0 0 0 0 0 127 0"/><feOffset dy="4"/><feGaussianBlur stdDeviation="2"/><feComposite in2="hardAlpha" operator="out"/><feColorMatrix type="matrix" values="0 0 0 0 0 0 0 0 0 0 0 0 0 0 0 0 0 0 0.25 0"/><feBlend in2="BackgroundImageFix" mode="normal" result="effect1_dropShadow_0_11451"/><feBlend in="SourceGraphic" in2="effect1_dropShadow_0_11451" mode="normal" result="shape"/></filter><g filter="url(#a)" stroke="#fff" stroke-linecap="round" stroke-linejoin="round" stroke-width="1.2"><path d="m30.1251 12.7363v9.263h-24.31602v-9.263"/><path d="m9.86182 12.5859v2.467h4.63198v-2.467"/><path clip-rule="evenodd" d="m5 5.20898v7.52602h4.862v-1.158h4.631v1.158h6.948v-1.158h4.631v1.158h4.862v-7.52602z" fill-rule="evenodd"/><path d="m21.4409 12.7363v2.316h4.632v-2.316"/><path d="m14.4933 5.21045v-1.146h-3.474v1.146"/><path d="m24.9144 5.21045v-1.146h-3.474v1.146"/><path d="m23.1776 4.064v-1.906c0-.639-.518-1.158-1.158-1.158h-8.105c-.64 0-1.158.519-1.158 1.158v1.906"/></g></svg>
