<svg height="135.46667mm" viewBox="0 0 135.46666 135.46667" width="135.46666mm" xmlns="http://www.w3.org/2000/svg"><path d="m39.449375 17.145-2.75167 8.255001h-19.76437c-9.3397901 0-16.93333006 7.593542-16.93333006 16.933334v67.733335c0 9.33979 7.59353996 16.93333 16.93333006 16.93333h101.599995c9.33979 0 16.93333-7.59354 16.93333-16.93333v-67.733335c0-9.339792-7.59354-16.933334-16.93333-16.933334h-19.764375l-2.75167-8.255001c-1.71979-5.185833-6.56166-8.6783331-12.03854-8.6783331h-32.49083c-5.47687 0-10.31875 3.4925001-12.03854 8.6783331zm28.28396 33.655001a25.399999 25.400001 0 1 1 0 50.799999 25.399999 25.400001 0 1 1 0-50.799999z" fill="#f9f9f9" stroke-width=".264583"/></svg>
