<svg fill="none" height="24" viewBox="0 0 24 24" width="24" xmlns="http://www.w3.org/2000/svg"><g fill="#fff"><path clip-rule="evenodd" d="m7.00839 9.26955c-.00572 0-.01078.00501-.01078.01093l.01078.49719zm0 1.01625c-.5357 0-.97152-.45099-.97152-1.00532 0-.55434.43582-1.00509.97152-1.00509s.9713.45075.9713 1.00509c0 .55433-.4356 1.00532-.9713 1.00532z" fill-rule="evenodd"/><path d="m7.00839 9.26955h.2625v-.2625h-.2625zm-.01078.01093h-.26257l.00013.00569zm.01078.49719-.26244.00569.52494-.00569zm0-.77062c-.15219 0-.27328.12403-.27328.27343h.525c0 .13756-.11098.25157-.25172.25157zm-.27322.27912.01078.49719.52487-.01138-.01078-.49719zm.53572.4915v-.50812h-.525v.50812zm-.2625.24563c-.38234 0-.70902-.32493-.70902-.74282h-.525c0 .69077.54495 1.26782 1.23402 1.26782zm-.70902-.74282c0-.41782.3266-.74259.70902-.74259v-.525c-.68899 0-1.23402.57673-1.23402 1.26759zm.70902-.74259c.38233 0 .7088.3247.7088.74259h.525c0-.69078-.54474-1.26759-1.2338-1.26759zm.7088.74259c0 .41797-.32654.74282-.7088.74282v.525c.68913 0 1.2338-.57712 1.2338-1.26782z"/><path clip-rule="evenodd" d="m12.0453 9.26955c-.0057 0-.0105.00501-.0105.01093l.0105.49719zm0 1.01625c-.5357 0-.9713-.45099-.9713-1.00532 0-.55434.4356-1.00509.9713-1.00509s.9716.45075.9716 1.00509c0 .55433-.4359 1.00532-.9716 1.00532z" fill-rule="evenodd"/><path d="m12.0453 9.26955h.2625v-.2625h-.2625zm-.0105.01093h-.2626l.0001.00557zm.0105.49719-.2624.00558.5249-.00558zm0-.77062c-.159 0-.273.13107-.273.27343h.525c0 .13052-.1043.25157-.252.25157zm-.273.279.0106.4972.5249-.01115-.0106-.4972zm.5355.49162v-.50812h-.525v.50812zm-.2625.24563c-.3822 0-.7088-.32485-.7088-.74282h-.525c0 .6907.5447 1.26782 1.2338 1.26782zm-.7088-.74282c0-.41789.3265-.74259.7088-.74259v-.525c-.689 0-1.2338.57681-1.2338 1.26759zm.7088-.74259c.3824 0 .7091.32477.7091.74259h.525c0-.69086-.5451-1.26759-1.2341-1.26759zm.7091.74259c0 .41789-.3267.74282-.7091.74282v.525c.6891 0 1.2341-.57705 1.2341-1.26782z"/><path clip-rule="evenodd" d="m17.0823 9.26955c-.0057 0-.0105.00501-.0105.01093l.0105.49719zm0 1.01625c-.5357 0-.9713-.45099-.9713-1.00532 0-.55434.4356-1.00509.9713-1.00509s.9715.45075.9715 1.00509c0 .55433-.4358 1.00532-.9715 1.00532z" fill-rule="evenodd"/><path d="m17.0823 9.26955h.2625v-.2625h-.2625zm-.0105.01093h-.2626l.0001.00557zm.0105.49719-.2624.00558.5249-.00558zm0-.77062c-.1591 0-.273.13107-.273.27343h.525c0 .13052-.1043.25157-.252.25157zm-.273.279.0106.4972.5249-.01115-.0106-.4972zm.5355.49162v-.50812h-.525v.50812zm-.2625.24563c-.3822 0-.7088-.32485-.7088-.74282h-.525c0 .6907.5447 1.26782 1.2338 1.26782zm-.7088-.74282c0-.41789.3265-.74259.7088-.74259v-.525c-.689 0-1.2338.57681-1.2338 1.26759zm.7088-.74259c.3824 0 .709.32477.709.74259h.525c0-.69086-.545-1.26759-1.234-1.26759zm.709.74259c0 .41789-.3266.74282-.709.74282v.525c.6891 0 1.234-.57705 1.234-1.26782z"/><path clip-rule="evenodd" d="m3.35329 16.5441h3.28633l.18896 4.0429c.01762.3757.41525.5769.69166.3502l5.35376-4.3931h7.7727c.7827 0 1.4171-.6886 1.4171-1.5382v-11.45141c0-.8496-.6344-1.53848-1.4171-1.53848h-17.29341c-.78269 0-1.41709.68888-1.41709 1.53848v11.45141c0 .8496.6344 1.5382 1.41709 1.5382zm2.63011 6.0103-.23384-4.994h-3.33247c-.78268 0-1.41709-.6889-1.41709-1.5385v-13.48365c0-.8496.63441-1.53825 1.41709-1.53825h19.16581c.7827 0 1.4171.68865 1.4171 1.53825v13.48365c0 .8496-.6344 1.5385-1.4171 1.5385h-8.3949l-6.51293 5.3441c-.27642.2268-.67405.0255-.69167-.3501z" fill-rule="evenodd"/><path d="m6.63962 16.5441.26222-.0122-.0117-.2503h-.25052zm.18896 4.0429-.26221.0123zm.69166.3502.16649.2029h.00003zm5.35376-4.3931v-.2625h-.0939l-.0726.0596zm-6.8906 6.0103-.26221.0123zm-.23384-4.994.26222-.0123-.01172-.2502h-.2505zm7.43844 0v-.2625h-.0939l-.0726.0596zm-6.51293 5.3441.16648.203h.00003zm-3.32178-6.0979h3.28633v-.525h-3.28633zm3.02412-.2502.18896 4.0429.52442-.0245-.18895-4.0429zm.18896 4.0429c.01323.2821.17176.5112.39244.6229.22297.1128.5042.1014.72792-.0821l-.33297-.4059c-.0527.0432-.10849.0446-.15785.0196-.05164-.0262-.10073-.0855-.10512-.1791zm1.12039.5408 5.35374-4.393-.333-.4059-5.35377 4.393zm5.18724-4.3335h7.7727v-.525h-7.7727zm7.7727 0c.9475 0 1.6796-.8268 1.6796-1.8007h-.525c0 .7253-.5367 1.2757-1.1546 1.2757zm1.6796-1.8007v-11.45141h-.525v11.45141zm0-11.45141c0-.97383-.732-1.80098-1.6796-1.80098v.525c.6178 0 1.1546.55061 1.1546 1.27598zm-1.6796-1.80098h-17.29341v.525h17.29341zm-17.29341 0c-.94757 0-1.67959.82715-1.67959 1.80098h.525c0-.72537.53679-1.27598 1.15459-1.27598zm-1.67959 1.80098v11.45141h.525v-11.45141zm0 11.45141c0 .9739.73207 1.8007 1.67959 1.8007v-.525c-.61785 0-1.15459-.5504-1.15459-1.2757zm4.57192 7.5362-.23384-4.994-.52443.0246.23384 4.994zm-.49606-5.2442h-3.33247v.525h3.33247zm-3.33247 0c-.6178 0-1.15459-.5506-1.15459-1.276h-.525c0 .9738.73202 1.801 1.67959 1.801zm-1.15459-1.276v-13.48365h-.525v13.48365zm0-13.48365c0-.72532.53674-1.27575 1.15459-1.27575v-.525c-.94752 0-1.67959.82687-1.67959 1.80075zm1.15459-1.27575h19.16581v-.525h-19.16581zm19.16581 0c.6179 0 1.1546.55043 1.1546 1.27575h.525c0-.97388-.7321-1.80075-1.6796-1.80075zm1.1546 1.27575v13.48365h.525v-13.48365zm0 13.48365c0 .7254-.5368 1.276-1.1546 1.276v.525c.9476 0 1.6796-.8272 1.6796-1.801zm-1.1546 1.276h-8.3949v.525h8.3949zm-8.5614.0596-6.51295 5.3441.33303.4059 6.51292-5.3442zm-6.51292 5.3441c-.0527.0432-.10848.0445-.15785.0195-.05164-.0261-.10073-.0854-.10511-.179l-.52443.0246c.01323.2821.17177.5112.39245.6229.22296.1128.50419.1014.72791-.0821z"/></g></svg>
