<svg height="4.167191mm" viewBox="0 0 4.1671906 4.1671906" width="4.167191mm" xmlns="http://www.w3.org/2000/svg"><path d="m77.623711 136.18122c.325569 0 .595312.26975.595312.59531v2.97656c0 .33486-.269743.59532-.595312.59532h-2.976563c-.334863 0-.595312-.26046-.595312-.59532v-2.97656c0-.32556.260449-.59531.595312-.59531zm-.418571 1.67431c.102314-.10231.102314-.26044 0-.36276-.102341-.10232-.260456-.10232-.36277 0l-1.004597 1.00459-.418579-.40928c-.102319-.10232-.26045-.10232-.362767 0-.10232.10232-.10232.26045 0 .36277l.595312.5953c.102317.10232.260448.10232.362768 0z" fill="#256bfb" stroke-width=".264583" transform="translate(-74.051836 -136.18122)"/></svg>
