<svg height="11" viewBox="0 0 10 11" width="10" xmlns="http://www.w3.org/2000/svg"><g fill="#fff" fill-rule="evenodd" transform="matrix(-1 0 0 1 12 -2)"><path d="m.7812511 5.15625078c.24407791-.24407751.63980544-.24407751.8838871 0l3.62056226 3.62055986 3.62056852-3.62055986c.2440629-.24407751.63981356-.24407751.88387647 0 .24406295.24407744.24406295.63980424 0 .88388543l-3.62056227 3.62055549c-.48815706.4881561-1.27961462.4881561-1.76776544 0l-3.62056664-3.62055549c-.24407796-.24408119-.24407796-.63980799 0-.88388543z" transform="matrix(.00000016 -1 -1 -.00000016 12.785693 12.785695)"/><path d="m4.6875011 5.15625078c.24407791-.24407751.63980544-.24407751.8838871 0l3.62056226 3.62055986 3.62056854-3.62055986c.2440629-.24407751.6398135-.24407751.8838764 0 .244063.24407744.244063.63980424 0 .88388543l-3.6205622 3.62055549c-.48815708.4881561-1.27961464.4881561-1.76776546 0l-3.62056664-3.62055549c-.24407797-.24408119-.24407797-.63980799 0-.88388543z" transform="matrix(.00000016 -1 -1 -.00000016 16.691943 16.691945)"/></g></svg>
