<svg height="9" viewBox="0 0 9 9" width="9" xmlns="http://www.w3.org/2000/svg"><path d="m4.19194223 3.30805773c-.24408089-.24407813-.63980656-.2440782-.88388433 0-.24407714.24407814-.24407726.63980604 0 .88388792l3.30806203 3.30807736-3.3080439 3.30805859c-.24407721.2440631-.24407721.6398142 0 .8838773.24407777.2440631.63980406.2440631.88388495 0l3.30803891-3.30805235 3.30805141 3.30805235c.2440621.2440631.6398116.2440631.8838737 0s.2440621-.6398142 0-.8838773l-3.30803891-3.30805859 3.30803891-3.30807736c.2441246-.24408188.2441246-.63980853 0-.88388667-.2440621-.24407863-.6398116-.24407838-.8838737 0l-3.30805141 3.30807423z" fill="#fff" transform="translate(-3 -3)"/></svg>
