<svg height="19" viewBox="0 0 15 19" width="15" xmlns="http://www.w3.org/2000/svg"><g fill="#fff" fill-rule="evenodd"><path d="m11.1131729 3.2907515c.1725625-.37865417.0701875-.86282642-.22875-1.08143884-.2989375-.2186132-.6811875-.08887859-.8538125.2897698l-4.48023127 9.82935944c-.1785875-.3279875-.4161-.6121958-.70665625-.8246792-1.0462625-.7651458-2.38411875-.3110458-2.9881775 1.0142042-.60406187 1.32525-.24558481 3.0198917.8006775 3.7850375 1.044825.7640375 2.3804375.3123125 2.98568125-1.0087417.00084375-.0018208.00168125-.0036416.0025125-.0054625zm-6.55130002 11.2063821c-.25888125.5679416-.83225.7625333-1.28065.434625-.44839375-.3279084-.60203125-1.0541834-.34314375-1.622125.25888125-.5680209.83225-.7626125 1.28064375-.4347042.4484.3279875.6020375 1.0541833.34315 1.6222042z"/><path d="m3.8868365 3.2907515c-.17258938-.37865417-.07016731-.86282642.22876562-1.08143884.29893313-.2186132.68117688-.08887859.85376438.2897698l4.4802375 9.82935944c.17858125-.3280667.4160875-.6121958.7066437-.8246792 1.04625-.7651458 2.384125-.3110458 2.9881875 1.0142042s.2455625 3.0198917-.8006875 3.7850375-2.3841312.3110458-2.9881937-1.0142042c-.00158125-.0034833-.0031625-.0069666-.00473125-.01045zm6.5532237 11.2106571c.2598125.5646958.8314375.7574666 1.2786875.43035.448375-.3279084.602-1.0541834.343125-1.622125-.258875-.5680209-.83225-.7626125-1.280625-.4347042-.446625.3266417-.6008125 1.0484833-.34625 1.6153958l.003125.0068084c.000625.001425.0013125.00285.0019375.004275z"/></g></svg>
