<svg width="27" height="27" viewBox="0 0 27 27" fill="none" xmlns="http://www.w3.org/2000/svg">
<path d="M14.6272 5.625C14.6272 5.00368 14.1235 4.5 13.5022 4.5C12.8809 4.5 12.3772 5.00368 12.3772 5.625V14.7221L9.23507 11.58C8.79573 11.1406 8.08342 11.1406 7.64408 11.58C7.20474 12.0193 7.20474 12.7316 7.64408 13.171L11.9111 17.4381C12.7898 18.3167 14.2144 18.3167 15.0931 17.4381L19.3579 13.1732C19.7973 12.7338 19.7973 12.0215 19.3579 11.5822C18.9186 11.1428 18.2063 11.1428 17.767 11.5822L14.6272 14.722V5.625Z" fill="white"/>
<path fill-rule="evenodd" clip-rule="evenodd" d="M4.5 15.75C5.12132 15.75 5.625 16.2537 5.625 16.875V19.125C5.625 19.7463 6.12868 20.25 6.75 20.25H20.25C20.8713 20.25 21.375 19.7463 21.375 19.125V16.875C21.375 16.2537 21.8787 15.75 22.5 15.75C23.1213 15.75 23.625 16.2537 23.625 16.875V19.125C23.625 20.989 22.114 22.5 20.25 22.5H6.75C4.88604 22.5 3.375 20.989 3.375 19.125V16.875C3.375 16.2537 3.87868 15.75 4.5 15.75Z" fill="white"/>
</svg>
