<svg height="17" viewBox="0 0 16 17" width="16" xmlns="http://www.w3.org/2000/svg"><path d="m3.33333333 1.66666667h8.33333337c.46025 0 .8333333.3731.8333333.83333333v4.16666667h-10v-4.16666667c0-.46023333.3731-.83333333.83333333-.83333333zm-2.5 5v-4.16666667c0-1.38070833 1.11929167-2.5 2.5-2.5h8.33333337c1.38075 0 2.5 1.11929167 2.5 2.5v4.16666667c.46025 0 .8333333.3731.8333333.83333333v1.1885c0 1.234-.90025 2.2833333-2.1198333 2.471l-1.76025.27075c-.8653334.1331667-1.4801667.9131667-1.40750003 1.78575l.08.9593333c.11175 1.3410834-.94666667 2.4913334-2.29241667 2.4913334-1.34578333 0-2.40415-1.15025-2.29238333-2.4913334l.07994166-.9593333c.07270834-.8725833-.54210833-1.6525833-1.40748333-1.78575l-1.76021667-.27075c-1.21958333-.1876667-2.11985833-1.237-2.11985833-2.471v-1.1885c0-.46024167.37309583-.83333333.83333333-.83333333zm12.49999997 1.66666666h-11.66666663v.35516667c0 .41133333.30009166.76116667.70661666.82366667l1.760225.27083333c1.73074167.26625 2.96038334 1.8263333 2.81495834 3.5713333l-.07994167.9594167c-.03079167.3694167.26075833.68625.631475.68625s.66226667-.3168333.631475-.68625l-.07994167-.9594167c-.145425-1.745 1.08421667-3.3050833 2.81496667-3.5713333l1.76025-.27083333c.4065-.0625.7065833-.41233334.7065833-.82366667z" fill="#fff" fill-rule="evenodd" transform="translate(.833333 .166667)"/></svg>
