<svg height="18" viewBox="0 0 20 18" width="20" xmlns="http://www.w3.org/2000/svg"><path d="m11 7c-.53043 0-1.03914-.21071-1.41421-.58579l-1.12132-1.12132c-.18754-.18753-.44189-.29289-.70711-.29289h-2.75736c-.55228 0-1 .44772-1 1v12c0 .5523.44772 1 1 1h14c.5523 0 1-.4477 1-1v-10c0-.55228-.4477-1-1-1zm0-2h8c1.6569 0 3 1.34315 3 3v10c0 1.6569-1.3431 3-3 3h-14c-1.65685 0-3-1.3431-3-3v-12c0-1.65685 1.34315-3 3-3h2.75736c.79565 0 1.55871.316071 2.12132.87868z" fill="#fff" fill-rule="evenodd" transform="translate(-2 -3)"/></svg>
