<svg height="18" viewBox="0 0 13 18" width="13" xmlns="http://www.w3.org/2000/svg"><g fill="#fff" fill-rule="evenodd" transform="translate(-2 -1)"><path d="m12.1972035 11.5046667c.6046786-.86125.9654422-1.9514417.9654422-3.14235003 0-2.77743334-1.9719749-5.02898334-4.40449823-5.02898334-2.43252331 0-4.40446906 2.25155-4.40446906 5.02898334 0 1.19080833.36066143 2.28085003.9652452 3.14210003l.00434989.0061666c.12800066.1820834.24650599.3738334.36962397.5601667.21383802.32375.51537451.7783333.8657232 1.3010833.65288508.97425 1.46844586 2.17525 2.20004499 3.2063334.73389815-1.03325 1.55129814-2.2361667 2.20546044-3.2116667.3509837-.5234167.6529946-.9784167.8671318-1.3024167.1225414-.1853333.2388061-.37825.3659456-.5594166zm1.1410435 1.0444166c-.0008271.0012223-.0015326.0022778-.0021165.0031667-.0373682.0570833-.3806155.5806667-.8779336 1.3264167-.7378028 1.10625-1.8147658 2.7014166-2.73556327 3.9874166-.50370424.7034167-1.42507832.7031667-1.92848333-.0005833-1.04920443-1.4667222-2.25228504-3.2372778-3.60924183-5.3116667l-.00474401-.00675c-.80479261-1.14625-1.28618104-2.6013333-1.28618104-4.18476663 0-3.6979 2.62547309-6.69565 5.86416405-6.69565 3.23871283 0 5.86419323 2.99775 5.86419323 6.69565 0 .98520833-.186403 1.92068333-.5210381 2.76310003-.2024597.5095833-.4592201.9850833-.7617418 1.4168333l-.0021896.003-.0012407.0018333h.0034303z"/><path d="m8.75816993 9.16666667c.40308748 0 .7298475-.37309167.7298475-.83333334 0-.46024166-.32676002-.83333333-.7298475-.83333333-.40308747 0-.72984749.37309167-.72984749.83333333 0 .46024167.32676002.83333334.72984749.83333334zm2.18954247-.83333334c0 1.38070834-.98029464 2.49999997-2.18954247 2.49999997-1.20924782 0-2.18954248-1.11929163-2.18954248-2.49999997 0-1.38070833.98029466-2.5 2.18954248-2.5 1.20924783 0 2.18954247 1.11929167 2.18954247 2.5z"/></g></svg>
