<?xml version="1.0" encoding="UTF-8" standalone="no"?>
<!-- Created with Inkscape (http://www.inkscape.org/) -->

<svg
   width="21.136mm"
   height="26.33444mm"
   viewBox="0 0 21.136 26.33444"
   version="1.1"
   id="svg1"
   xml:space="preserve"
   xmlns:inkscape="http://www.inkscape.org/namespaces/inkscape"
   xmlns:sodipodi="http://sodipodi.sourceforge.net/DTD/sodipodi-0.dtd"
   xmlns="http://www.w3.org/2000/svg"
   xmlns:svg="http://www.w3.org/2000/svg"><sodipodi:namedview
     id="namedview1"
     pagecolor="#ffffff"
     bordercolor="#000000"
     borderopacity="0.25"
     inkscape:showpageshadow="2"
     inkscape:pageopacity="0.0"
     inkscape:pagecheckerboard="0"
     inkscape:deskcolor="#d1d1d1"
     inkscape:document-units="mm" /><defs
     id="defs1" /><g
     inkscape:label="Layer 1"
     inkscape:groupmode="layer"
     id="layer1"
     transform="translate(-68.277315,-213.15391)"><path
       style="fill:#ffffff"
       d="m 79.17252,239.47379 c -5.926357,0.0483 -7.761725,-0.0168 -8.381664,-0.297 -0.436562,-0.19734 -1.05371,-0.64188 -1.371438,-0.98785 -0.317728,-0.34598 -0.704681,-0.96422 -0.859896,-1.37388 -0.168719,-0.44529 -0.282208,-3.08214 -0.282208,-6.55693 0,-4.31027 0.09326,-6.0353 0.360899,-6.67586 0.198494,-0.47506 0.731423,-1.17553 1.184287,-1.55659 0.452864,-0.38106 1.167431,-0.7684 1.587927,-0.86075 0.715197,-0.15709 0.773641,-0.26831 0.905575,-1.7233 0.08946,-0.98654 0.410796,-2.05102 0.878641,-2.9106 0.405682,-0.74537 1.202496,-1.69711 1.770697,-2.11497 0.568201,-0.41786 1.625919,-0.90196 2.350483,-1.07578 0.725251,-0.17398 1.807708,-0.23763 2.408247,-0.1416 0.599971,0.0959 1.66369,0.48621 2.363821,0.86727 0.70013,0.38106 1.585403,1.10246 1.967272,1.60312 0.381869,0.50065 0.857604,1.45287 1.057188,2.11604 0.199584,0.66317 0.36288,1.64424 0.36288,2.18016 0,0.90371 0.075,0.99687 1.033795,1.28414 0.578246,0.17324 1.388628,0.71386 1.839033,1.22684 0.442881,0.50442 0.877804,1.30662 0.966496,1.78267 0.08869,0.47606 0.12433,3.50631 0.0792,6.7339 -0.07612,5.44349 -0.121556,5.92119 -0.627577,6.59824 -0.300033,0.40144 -0.874065,0.97537 -1.275627,1.2754 -0.692734,0.51759 -1.118579,0.54868 -8.318027,0.60733 z m -0.549753,-2.57536 c 4.423967,0 7.347037,-0.10446 7.663608,-0.27389 0.4822,-0.25806 0.511773,-0.61072 0.511773,-6.10281 0,-3.51205 -0.108867,-6.03234 -0.273893,-6.34069 -0.260419,-0.4866 -0.625707,-0.51177 -7.425727,-0.51177 -4.423966,0 -7.347037,0.10447 -7.663608,0.27389 -0.482199,0.25807 -0.511772,0.61072 -0.511772,6.10281 0,3.51205 0.108866,6.03234 0.273892,6.34069 0.260419,0.4866 0.625707,0.51177 7.425727,0.51177 z m 0.191909,-2.64583 c -0.22065,0 -0.598228,-0.21773 -0.839063,-0.48385 -0.244757,-0.27046 -0.437882,-0.9246 -0.437882,-1.48316 0,-0.67991 -0.211413,-1.25056 -0.661458,-1.78541 -0.386353,-0.45915 -0.661459,-1.11878 -0.661459,-1.586 0,-0.55693 0.273265,-1.07318 0.899584,-1.6995 0.648229,-0.64822 1.136152,-0.89958 1.74625,-0.89958 0.610098,0 1.098021,0.25136 1.74625,0.89958 0.626318,0.62632 0.899583,1.14257 0.899583,1.6995 0,0.46722 -0.275106,1.12685 -0.661458,1.586 -0.461283,0.54821 -0.661459,1.10243 -0.661459,1.83138 0,0.67663 -0.170645,1.19971 -0.483854,1.48316 -0.26612,0.24083 -0.664385,0.43788 -0.885034,0.43788 z m 0.01321,-13.22917 H 82.8294 l -4.11e-4,-1.12447 c -2.27e-4,-0.61847 -0.208586,-1.53274 -0.463021,-2.03172 -0.254436,-0.49898 -0.781163,-1.14068 -1.170505,-1.42601 -0.389342,-0.28532 -1.282311,-0.56827 -1.984375,-0.62877 -0.89234,-0.0769 -1.5495,0.0337 -2.183714,0.36768 -0.498978,0.26272 -1.143617,0.80015 -1.43253,1.1943 -0.316542,0.43184 -0.573616,1.2993 -0.646884,2.18281 l -0.121587,1.46618 z"
       id="path6" /></g></svg>
