<svg height="12" viewBox="0 0 13 12" width="13" xmlns="http://www.w3.org/2000/svg"><g fill="#fff" fill-rule="evenodd" transform="translate(.025939 .614394)"><path d="m3.33333333 1.25h-1.33333333c-.36818667 0-.66666667.279825-.66666667.625v1.25c0 .345175.29848.625.66666667.625h1.33333333c.36818667 0 .66666667-.279825.66666667-.625v-1.25c0-.345175-.29848-.625-.66666667-.625zm-1.33333333-1.25c-1.10456667 0-2 .83946875-2 1.875v1.25c0 1.03553125.89543333 1.875 2 1.875h1.33333333c1.10456667 0 2-.83946875 2-1.875v-1.25c0-1.03553125-.89543333-1.875-2-1.875z"/><path d="m3.33333333 7.5h-1.33333333c-.36818667 0-.66666667.279825-.66666667.625v1.25c0 .345175.29848.625.66666667.625h1.33333333c.36818667 0 .66666667-.279825.66666667-.625v-1.25c0-.345175-.29848-.625-.66666667-.625zm-1.33333333-1.25c-1.10456667 0-2 .83946875-2 1.875v1.25c0 1.0355313.89543333 1.875 2 1.875h1.33333333c1.10456667 0 2-.8394687 2-1.875v-1.25c0-1.03553125-.89543333-1.875-2-1.875z"/><path d="m10 1.25h-1.33333333c-.36818667 0-.66666667.279825-.66666667.625v1.25c0 .345175.29848.625.66666667.625h1.33333333c.3681867 0 .6666667-.279825.6666667-.625v-1.25c0-.345175-.29848-.625-.6666667-.625zm-1.33333333-1.25c-1.10456667 0-2 .83946875-2 1.875v1.25c0 1.03553125.89543333 1.875 2 1.875h1.33333333c1.1045667 0 2-.83946875 2-1.875v-1.25c0-1.03553125-.8954333-1.875-2-1.875z"/><path d="m10 7.5h-1.33333333c-.36818667 0-.66666667.279825-.66666667.625v1.25c0 .345175.29848.625.66666667.625h1.33333333c.3681867 0 .6666667-.279825.6666667-.625v-1.25c0-.345175-.29848-.625-.6666667-.625zm-1.33333333-1.25c-1.10456667 0-2 .83946875-2 1.875v1.25c0 1.0355313.89543333 1.875 2 1.875h1.33333333c1.1045667 0 2-.8394687 2-1.875v-1.25c0-1.03553125-.8954333-1.875-2-1.875z"/></g></svg>
