<svg height="18" viewBox="0 0 16 18" width="16" xmlns="http://www.w3.org/2000/svg"><path d="m641.879587 210.048202c.638198-.367025 1.418408-.395244 2.07846-.084699l.162358.084694 5.008401 2.880038c.642299.369304 1.058501 1.034491 1.114681 1.764911l.006513.169612v5.82602c0 .69092-.318226 1.336362-.858678 1.757906l-.139686.100618-5.008376 3.326595c-.371745.246876-.803532.376103-1.243287.376103-.376957 0-.74793-.094934-1.080381-.277571l-.162865-.098594-5.008404-3.326525c-.576814-.383075-.939383-1.004796-.991749-1.686862l-.006574-.17167v-5.82602c0-.739123.370303-1.430715.977047-1.84416l.144155-.090367zm1.991566.433439c-.488246-.280771-1.084844-.306306-1.592783-.076576l-.149526.076577-5.008432 2.880056c-.492003.282864-.813388.790118-.863536 1.347835l-.006876.153225v5.82602c0 .528028.239227 1.021298.647474 1.348859l.127475.093166 5.008408 3.326528c.289508.192278.624858.29267.966616.29267.284787 0 .56524-.069731.818299-.204201l.148363-.088411 5.008395-3.326608c.441349-.293039.720716-.76497.767863-1.284761l.007107-.157242v-5.82602c0-.565424-.280406-1.096242-.740555-1.418488l-.129876-.082583zm-7.24834 4.134688.064105-.352574 5.41822 3.19195c.40147.236516.66335.647393.711711 1.103828l.008111.153656v6.726828l-.343174-.13783-.130569-.060104-.122884-.072636-5.008402-3.326524c-.344823-.228999-.566428-.595595-.611416-1.000643l-.008488-.153502v-5.82602l.005767-.122942zm12.711083-.314198.052173.367485.010395.096784.003509.096358v5.82602c0 .413132-.183308.800231-.496472 1.06203l-.123419.092106-5.008442 3.326604-.122949.072625-.130589.060068-.343115.137705v-6.720166c0-.472499.229018-.912588.609044-1.185336l.11846-.07667zm-.434896.829869-4.745311 2.758063c-.259444.150763-.431367.4115-.470294.703071l-.008408.126616-.000987 5.91325 4.829481-3.206609c.21742-.144354.357919-.373327.389647-.627374l.006845-.110239zm-11.799-.045v5.601778c0 .259982.11334.503383.308162.670741l.088393.066896 4.827445 3.205585.00096-5.918811c0-.296983-.137782-.574723-.368953-.755413l-.104662-.071271zm5.899973-4.490717c.194833 0 .387334.040457.565075.119039l.130343.066048 5.00835 2.880009.084485.052928.081641.059829.289248.227683-5.415257 3.146241c-.412982.239955-.914123.262564-1.343583.068316l-.140279-.072781-5.394529-3.177995.369583-.266606.061148-.037633 5.008428-2.880001c.211939-.121851.451886-.185077.695347-.185077zm0 .5c-.117415 0-.233368.022819-.341216.067121l-.104901.051413-4.743856 2.727183 4.703778 2.770789c.263898.155452.583731.175748.862311.060592l.116582-.057647 4.735329-2.751734-4.78184-2.749174c-.101736-.058492-.213742-.095926-.329466-.110988z" fill="#fff" transform="translate(-635 -209)"/></svg>
