<svg height="18" viewBox="0 0 22 18" width="22" xmlns="http://www.w3.org/2000/svg"><g style="stroke:#fff;stroke-width:2;fill:none;fill-rule:evenodd;stroke-linecap:round;stroke-linejoin:round" transform="translate(1 1)"><path d="m4.37810872 8.65478461-2.18893176-2.99660176-2.18917696 2.99660176"/><path d="m9.99998774 16c-4.3138654 0-7.8109579-3.5817578-7.8109579-8.00006278 0-.49876393.04462704-.98697997.12995786-1.46037876"/><path d="m4.08168219 2.778989c1.43247893-1.70172423 3.5525085-2.77886343 5.91823199-2.77886343"/><path d="m15.6218913 7.34521539 2.1889317 2.99660181 2.189177-2.99660181"/><path d="m9.99998774 0c4.31386536 0 7.81095786 3.58175782 7.81095786 8.00006278 0 .49876393-.044627.98697997-.1299578 1.46037876"/><path d="m15.9183178 13.2210361c-1.4324789 1.7017242-3.5525085 2.7788634-5.918232 2.7788634"/></g></svg>
