<svg height="16" viewBox="0 0 16 16" width="16" xmlns="http://www.w3.org/2000/svg"><g fill="#fff" fill-rule="evenodd" transform="translate(-2 -2)"><path d="m16.6666667 8.33333294c-.46025 0-.8333334-.37309167-.8333334-.83333334v-2.15480833l-10.48814163 10.48814163h2.15480833c.46023333 0 .83333333.3730834.83333333.8333334s-.3731.8333333-.83333333.8333333h-3.33333333c-.92047417 0-1.66666667-.7461667-1.66666667-1.6666667v-3.3333333c0-.46025.37309583-.8333333.83333333-.8333333.46023334 0 .83333334.3730833.83333334.8333333v2.1548333l10.48816663-10.48816663h-2.1548333c-.46025 0-.8333333-.3731-.8333333-.83333333 0-.4602375.3730833-.83333334.8333333-.83333334h3.3333333c.9205 0 1.6666667.7461925 1.6666667 1.66666667v3.33333333c0 .46024167-.3730833.83333334-.8333333.83333334z"/><path d="m2.5 4.16666667c0-.92047417.74619167-1.66666667 1.66666667-1.66666667h3.33333333c.46023333 0 .83333333.37309583.83333333.83333333 0 .46023334-.3731.83333334-.83333333.83333334h-3.33333333v3.33333333c0 .46023333-.3731.83333333-.83333334.83333333-.4602375 0-.83333333-.3731-.83333333-.83333333z"/><path d="m11.6666667 13.3333333c0-.9204741.7461916-1.6666666 1.6666666-1.6666666h3.3333334c.4602333 0 .8333333.3730958.8333333.8333333 0 .4602333-.3731.8333333-.8333333.8333333h-3.3333334v3.3333334c0 .4602333-.3731.8333333-.8333333.8333333-.4602375 0-.8333333-.3731-.8333333-.8333333z" transform="matrix(-1 0 0 -1 29.166666 29.166666)"/></g></svg>
