<svg height="19" viewBox="0 0 15 19" width="15" xmlns="http://www.w3.org/2000/svg"><g fill="none" fill-rule="evenodd" transform="translate(.895425 1)"><path d="m1.07761876 12.9740042 1.73046739-11.91474966 9.11425645 8.03618462-4.70920559-.32378094 2.29080449 6.18927198-2.73887635.9796075-2.29080449-6.18927198zm-.49035679.9431457c.18471837.0928561.38699364.1290749.58407602.1120594.24035643-.0206617.47255261-.120324.65479817-.2931531l2.20277272-2.0899914 1.72329625 4.6566603c.09792299.2639836.29822002.4791083.55712247.5977308.17309619.0794867.36251288.1115731.54945677.0955299.09297739-.0080216.18546021-.027954.27472839-.0600404l2.73887636-.9796075c.55934798-.1998108.84767678-.8077508.64416508-1.3575951l-1.72354349-4.65666023 3.05415869.21002003c.0571218.0038893.1137489.0034031.169387-.0014584.3924338-.033788.7408517-.27735293.898122-.64221418.1795255-.41663704.069733-.89939151-.2727502-1.20153844l-9.11425644-8.03618461c-.22502506-.19835229-.52052499-.29193762-.81330484-.26665743-.0927301.00777852-.18496565.02771098-.27472839.05979738-.3736405.13369333-.64218688.45868967-.6983195.84567109l-1.73046738 11.91474969c-.06503472.4479942.1666669.8869945.57641032 1.0928822z" fill="#fff"/><path d="m1.07761876 12.9740042 1.73046739-11.91474966 9.11425645 8.03618462-4.70920559-.32378094 2.29080449 6.18927198-2.73887635.9796075-2.29080449-6.18927198zm-.49035679.9431457c.18471837.0928561.38699364.1290749.58407602.1120594.24035643-.0206617.47255261-.120324.65479817-.2931531l2.20277272-2.0899914 1.72329625 4.6566603c.09792299.2639836.29822002.4791083.55712247.5977308.17309619.0794867.36251288.1115731.54945677.0955299.09297739-.0080216.18546021-.027954.27472839-.0600404l2.73887636-.9796075c.55934798-.1998108.84767678-.8077508.64416508-1.3575951l-1.72354349-4.65666023 3.05415869.21002003c.0571218.0038893.1137489.0034031.169387-.0014584.3924338-.033788.7408517-.27735293.898122-.64221418.1795255-.41663704.069733-.89939151-.2727502-1.20153844l-9.11425644-8.03618461c-.22502506-.19835229-.52052499-.29193762-.81330484-.26665743-.0927301.00777852-.18496565.02771098-.27472839.05979738-.3736405.13369333-.64218688.45868967-.6983195.84567109l-1.73046738 11.91474969c-.06503472.4479942.1666669.8869945.57641032 1.0928822z" stroke="#fff" stroke-linecap="round" stroke-linejoin="round" stroke-width=".5"/></g></svg>
