<svg height="22" viewBox="0 0 20 22" width="20" xmlns="http://www.w3.org/2000/svg"><g fill="#fff" fill-rule="evenodd" transform="translate(-1.304575 -.9)"><path d="m11.475 13.3875c1.0562451 0 1.9125-.8562549 1.9125-1.9125s-.8562549-1.9125-1.9125-1.9125-1.9125.8562549-1.9125 1.9125.8562549 1.9125 1.9125 1.9125zm3.825-1.9125c0 2.1124901-1.7125099 3.825-3.825 3.825-2.11249013 0-3.825-1.7125099-3.825-3.825 0-2.11249013 1.71250987-3.825 3.825-3.825 2.1124901 0 3.825 1.71250987 3.825 3.825z"/><path d="m10.8811994 2.86875-.3706042 1.11179362c-.3585555 1.07568563-1.14025164 1.82413294-1.93748683 2.26804332-.05670562.03157537-.11285662.06404962-.16842431.09741318-.78410587.47071407-1.82463975.77434257-2.93682544.54675507l-1.14919256-.23517056.383418-1.87367625 1.14919256.23517056c.540549.110619 1.09598682-.02882138 1.56904369-.31279894.0733635-.04404487.14750156-.08693269.22239506-.12862519.48148144-.26809425.87925275-.67908094 1.05352932-1.2018915l.37059468-1.11180318c.26031994-.78095025.99116273-1.30771013 1.81436003-1.30771013h1.1876721c.82314 0 1.5540019.52675892 1.8142931 1.30771013l.3706425 1.11180318c.1742288.52281056.5720288.93379725 1.0535006 1.2018915.0748744.0416925.1489838.08458032.2224238.12861563.4730569.28398712 1.0284469.42341793 1.569015.31279893l1.1491256-.23515143c.8065013-.16503919 1.6281113.20451318 2.0396813.91741669l.5938312 1.02851381c.41157.71291306.3208219 1.60921575-.2252925 2.22513637l-.7793437.87885113c-.3651919.41185686-.5230688.96107906-.5143669 1.51149656.0014344.086445.0014344.17289 0 .259335-.0087019.5503219.149175 1.0995919.5143669 1.5114488l.7793437.8787937c.5461144.6159206.6368625 1.5123094.2252925 2.2251937l-.5938312 1.0285426c-.41157.7128843-1.23318 1.0823793-2.0396813.9173306l-1.14903-.2351419c-.5405681-.1105425-1.0960537.0288788-1.5691106.312885-.0733444.0439875-.1475494.0869231-.2224238.1286156-.4814718.2681325-.8792718.6791288-1.0535006 1.2019107l-.3706425 1.1118318c-.2602912.7808738-.9911531 1.3076719-1.8142931 1.3076719h-1.1876721c-.8231973 0-1.55404009-.5267981-1.81436003-1.3076719l-.37059468-1.1118318c-.17427657-.5227819-.57204788-.9337782-1.05352932-1.2019107-.07491262-.0416925-.14906981-.0846281-.22245243-.1286156-.47305688-.2840062-1.02851382-.4234275-1.56906282-.312885l-1.14911606.2351419c-.80649169.1650487-1.62810169-.2044463-2.03969655-.9173306l-.59381308-1.0285426c-.41159869-.7128843-.32083096-1.6092731.22533649-2.2251937l1.43093345 1.2689438.59382169 1.0285425 1.14911606-.2352375c1.11219525-.2275875 2.15273869.0761175 2.93685413.5467837.05558681.0333731.11174737.0658856.16847212.0974419.79723519.4439869 1.57893133 1.1923481 1.93749633 2.2680337l.3705947 1.1118319h1.1876721l.3705469-1.1118319c.3585937-1.0756856 1.1402325-1.8240468 1.9374581-2.2680337.0568012-.0315563.1129331-.0640688.1684912-.0974419.784125-.4706662 1.8246207-.7743712 2.936835-.5466881l1.1491257.2351419.5938312-1.0285425-.7793437-.8788894c-.750465-.8462813-1.0101825-1.8957656-.9956475-2.81061.0010518-.0662681.0010518-.1325363 0-.1987088-.014535-.9148826.2451825-1.96442435.9956475-2.81069604l.7793437-.87885112-.5938312-1.02851381-1.1492213.23516099c-1.1121187.22758751-2.15271-.07604099-2.9367394-.54675506-.0555581-.033354-.1117856-.06582825-.1684912-.09740362-.7972256-.44391038-1.5788644-1.19235769-1.9374581-2.26804332l-.3705469-1.11179362zm-8.58728848 11.12616 1.43093345 1.2689438.77937244-.8788894c.75041719-.8462813 1.01013469-1.8958613.99563794-2.81061-.00104231-.0662681-.00104231-.1325363 0-.1987088.01449675-.9148348-.24521119-1.96437654-.99563794-2.81063866l-.77937244-.8789085.59382169-1.02851381.383418-1.87367625c-.80649169-.16502963-1.62810169.20451318-2.03969655.91742625l-.59381308 1.02851381c-.41159869.71291306-.32083192 1.60921575.22533553 2.22513637l.77937435.8789085c.36520144.41184729.52304006.96111729.51431906 1.51143919-.001377.086445-.001377.17289-.00000956.2592394.008721.5504175-.14910806 1.0995919-.51431906 1.5114487z"/></g></svg>
