<svg height="22" viewBox="0 0 22 22" width="22" xmlns="http://www.w3.org/2000/svg"><path d="m7.19886976 2.53021c-.18225.54673-.59822.97652-1.10173 1.25688-.07832.0436-.15585.08845-.23257.13451-.4947.29697-1.07555.44279-1.64083.32711l-1.20177-.24593c-.84339-.17258-1.70259.21387-2.133016.9594l-.620981 1.07557c-.43043.74553-.3355105 1.68284.235645 2.32694l.815032.91912c.38191.43069.54697 1.00509.53785 1.58059-.00144.0904-.00144.1808-.00001.2711.00912.5756-.15594 1.1499-.53785 1.5806l-.815021.9191c-.5711555.6441-.666076 1.5815-.235646 2.327l.620981 1.0756c.430426.7455 1.289626 1.1319 2.133016.9593l1.20169-.2459c.56528-.1156 1.14615.0302 1.64085.3272.07674.046.15429.0909.23263.1345.50351.2804.91948.7102 1.10173 1.2569l.38755 1.1627c.27223.8166 1.03651 1.3675 1.89737 1.3675h1.24201004c.8608 0 1.6251-.5509 1.8973-1.3675l.3876-1.1627c.1822-.5467.5982-.9765 1.1017-1.2569.0783-.0436.1559-.0885.2326-.1345.4947-.297 1.0756-.4428 1.6409-.3272l1.2016.2459c.8434.1726 1.7026-.2138 2.133-.9593l.621-1.0756c.4304-.7455.3355-1.6829-.2356-2.327l-.815-.919c-.3819-.4307-.547-1.0051-.5379-1.5806.0015-.0904.0015-.1808 0-.2712-.0091-.5756.156-1.14995.5379-1.58065l.815-.91906c.5711-.6441.666-1.58141.2356-2.32694l-.621-1.07557c-.4304-.74552-1.2896-1.13198-2.133-.95939l-1.2017.24591c-.5653.11568-1.1461-.03013-1.6408-.32711-.0768-.04605-.1543-.0909-.2326-.1345-.5035-.28036-.9195-.71015-1.1017-1.25688l-.3876-1.16267c-.2722-.816681-1.0365-1.36754-1.8973-1.36754h-1.24201004c-.86086 0-1.62514.55086-1.89737 1.36754zm5.90593004 8.46979c0 1.6569-1.3431 3-3 3-1.65682004 0-2.99997004-1.3431-2.99997004-3 0-1.65685 1.34315-3 2.99997004-3 1.6569 0 3 1.34315 3 3z" fill="#fff" fill-rule="evenodd" opacity=".9" transform="translate(.895169)"/></svg>
