<svg height="18" viewBox="0 0 16 18" width="16" xmlns="http://www.w3.org/2000/svg"><g fill="#fff" fill-rule="evenodd" transform="translate(-2.104575 -1.2)"><path d="m11.1889804 6.0653152c.1653334.55937247.4706617 1.05865842.8754229 1.45727458l-2.85342261 1.71205368c-.16533764-.55936822-.47067699-1.05864992-.87543992-1.45725758z" fill-rule="nonzero"/><path d="m8.33554077 12.6226222 2.85342353 1.7120513c.1653249-.559376.4706618-1.058657.8754232-1.4572726l-2.85340653-1.7120427c-.16533769.5593691-.47067714 1.0586484-.8754402 1.457264z" fill-rule="nonzero"/><path d="m14.45 6.8c.9388845 0 1.7-.7611155 1.7-1.7s-.7611155-1.7-1.7-1.7-1.7.7611155-1.7 1.7.7611155 1.7 1.7 1.7zm3.4-1.7c0 1.877769-1.522231 3.4-3.4 3.4s-3.4-1.522231-3.4-3.4 1.522231-3.4 3.4-3.4 3.4 1.522231 3.4 3.4z"/><path d="m14.45 17c.9388845 0 1.7-.7611155 1.7-1.7s-.7611155-1.7-1.7-1.7-1.7.7611155-1.7 1.7.7611155 1.7 1.7 1.7zm3.4-1.7c0 1.877769-1.522231 3.4-3.4 3.4s-3.4-1.522231-3.4-3.4 1.522231-3.4 3.4-3.4 3.4 1.522231 3.4 3.4z"/><path d="m5.95 11.9c.9388845 0 1.7-.7611155 1.7-1.7s-.7611155-1.7-1.7-1.7-1.7.7611155-1.7 1.7.7611155 1.7 1.7 1.7zm3.4-1.7c0 1.877769-1.522231 3.4-3.4 3.4s-3.4-1.522231-3.4-3.4 1.522231-3.4 3.4-3.4 3.4 1.522231 3.4 3.4z"/></g></svg>
