<svg height="12" viewBox="0 0 17 12" width="17" xmlns="http://www.w3.org/2000/svg" xmlns:xlink="http://www.w3.org/1999/xlink"><mask id="a" fill="#fff"><path d="m0 0h17v12h-17z" fill="#fff" fill-rule="evenodd"/></mask><path d="m3.47109949 6.18278165c-1.30237978.00607187-2.3601699 1.06092109-2.3601699 2.3564371 0 1.29956393 1.06390023 2.35680505 2.37164951 2.35680505h9.5708435c1.5636334 0 2.8356478-1.26442064 2.8356478-2.81845108 0-1.55403043-1.2720144-2.81845112-2.8356478-2.81845112-.2758808 0-.5506507.04047913-.816348.11996541-.1683059.05041491-.3504983.0185836-.4914012-.08537415-.1410881-.10414175-.2242227-.26845021-.2242227-.44306243 0-.00864782.0001852-.01747963.0005555-.02649543-.0116648-2.05321165-1.69620432-3.72021565-3.76494036-3.72021565-2.07614224 0-3.76512553 1.67859575-3.76512553 3.74174318 0 .22797108.02147798.4585181.06387846.6853852.03055056.16320447-.01444209.33137684-.12238741.45796611-.10553831.12382932-.26051299.19503578-.42363449.19503578-.00907259.000184-.02277405-.00018399-.03869738-.00128797m9.58232311 5.81721835h-9.5708435c-1.92024179 0-3.4825791-1.5523745-3.4825791-3.46078125 0-1.70729912 1.25072156-3.1295884 2.8893427-3.41036633-.00555465-.09438996-.00851713-.18896392-.00851713-.28316989 0-2.67180629 2.18742036-4.84571933 4.87624027-4.84571933 2.46219026 0 4.50426396 1.82358461 4.83050696 4.18278165.1544192-.0183996.3099494-.0275994.4658498-.0275994 2.1761259 0 3.9465774 1.75955399 3.9465774 3.92242727s-1.7704515 3.92242728-3.9465774 3.92242728" fill="#fff" fill-rule="evenodd" mask="url(#a)" stroke="#fff" stroke-width=".2"/></svg>
