<svg height="11" viewBox="0 0 22 11" width="22" xmlns="http://www.w3.org/2000/svg"><path d="m20.5806053 17.1999063c-1.1084345-4.7232155-5.3603965-7.52617906-9.4971008-6.2605906-2.32241955.7105234-4.08390869 2.5441852-4.99753947 4.8685005l1.48612778-.4599934c.5446533-.168595 1.10587999.1988817 1.25353842.8207617.14764821.6218918-.17418402 1.2626952-.71884754 1.4312785l-3.23945285 1.0027151c-.03615082.01372-.0730782.0251767-.11063908.0342417l-.41453896.12831c-.26205769.0811183-.54160838.0398067-.77694635-.1148-.23533796-.1546184-.40710034-.4098151-.47736863-.7092634l-1.00952314-4.3018038c-.14605555-.62237.1774238-1.2621001.72251239-1.4288634.54509369-.1667634 1.10537012.20258 1.25142434.82495l.33355213 1.4213502c1.19255818-2.7431953 3.35125677-4.90921717 6.16879336-5.77121242 5.2268795-1.59911166 10.5994352 1.94255032 11.9998963 7.91051762.1461156.62237-.1773822 1.2621001-.7225055 1.4288634-.5450211.1667634-1.1053691-.20258-1.2513824-.8249617z" fill="#fff" transform="translate(-1.522876 -8)"/></svg>
