<?xml version="1.0" encoding="UTF-8" standalone="no"?>
<!-- Created with Inkscape (http://www.inkscape.org/) -->

<svg
   width="21.034372mm"
   height="26.33444mm"
   viewBox="0 0 21.034372 26.33444"
   version="1.1"
   id="svg1"
   xml:space="preserve"
   xmlns:inkscape="http://www.inkscape.org/namespaces/inkscape"
   xmlns:sodipodi="http://sodipodi.sourceforge.net/DTD/sodipodi-0.dtd"
   xmlns="http://www.w3.org/2000/svg"
   xmlns:svg="http://www.w3.org/2000/svg"><sodipodi:namedview
     id="namedview1"
     pagecolor="#ffffff"
     bordercolor="#000000"
     borderopacity="0.25"
     inkscape:showpageshadow="2"
     inkscape:pageopacity="0.0"
     inkscape:pagecheckerboard="0"
     inkscape:deskcolor="#d1d1d1"
     inkscape:document-units="mm" /><defs
     id="defs1" /><g
     inkscape:label="Layer 1"
     inkscape:groupmode="layer"
     id="layer1"
     transform="translate(-21.970463,-181.00636)"><path
       style="fill:#ffffff"
       d="m 32.865669,207.32623 c -5.926357,0.0483 -7.761725,-0.0168 -8.381664,-0.297 -0.436563,-0.19734 -1.05371,-0.64188 -1.371438,-0.98785 -0.317729,-0.34598 -0.704682,-0.96422 -0.859896,-1.37388 -0.168719,-0.44529 -0.282208,-3.08214 -0.282208,-6.55693 0,-4.31027 0.09326,-6.0353 0.360898,-6.67586 0.198495,-0.47506 0.731424,-1.17553 1.184287,-1.55659 0.452864,-0.38106 1.167431,-0.7684 1.587928,-0.86075 0.715197,-0.15709 0.77364,-0.26831 0.905575,-1.7233 0.08946,-0.98654 0.410796,-2.05102 0.878641,-2.9106 0.405682,-0.74537 1.202496,-1.69711 1.770697,-2.11497 0.568201,-0.41786 1.625918,-0.90196 2.350483,-1.07578 0.72525,-0.17398 1.807708,-0.23763 2.408243,-0.1416 0.59997,0.0959 1.67194,0.4907 2.38215,0.87724 0.71021,0.38655 1.53231,1.04129 1.82689,1.45499 0.35106,0.49302 0.48087,0.97022 0.37676,1.38505 -0.11086,0.44167 -0.37847,0.65953 -0.8858,0.72112 -0.52021,0.0631 -1.00466,-0.15336 -1.70336,-0.76129 -0.53702,-0.46724 -1.40023,-0.92905 -1.91823,-1.02623 -0.518006,-0.0972 -1.346469,-0.10077 -1.841029,-0.008 -0.49456,0.0928 -1.223363,0.42368 -1.619562,0.73533 -0.396199,0.31165 -0.884528,0.95954 -1.085175,1.43975 -0.200647,0.48022 -0.364813,1.34686 -0.364813,1.92588 v 1.05276 l 5.934469,0.0802 c 5.512,0.0745 5.98644,0.11905 6.66439,0.62573 0.40144,0.30003 0.97538,0.87431 1.27542,1.27617 0.51673,0.69211 0.54551,1.07762 0.54551,7.30644 0,6.22883 -0.0288,6.61433 -0.54551,7.30644 -0.30004,0.40186 -0.87407,0.97614 -1.27563,1.27617 -0.69273,0.51759 -1.11858,0.54868 -8.318026,0.60733 z m -0.549753,-2.57536 c 4.423969,0 7.347039,-0.10446 7.663609,-0.27389 0.4822,-0.25806 0.51177,-0.61072 0.51177,-6.10281 0,-3.51204 -0.10887,-6.03234 -0.27389,-6.34069 -0.26042,-0.4866 -0.62571,-0.51177 -7.425729,-0.51177 -4.423966,0 -7.347036,0.10447 -7.663607,0.27389 -0.4822,0.25807 -0.511773,0.61072 -0.511773,6.10281 0,3.51205 0.108867,6.03234 0.273893,6.34069 0.260419,0.4866 0.625707,0.51177 7.425727,0.51177 z m 0.191908,-2.64583 c -0.220649,0 -0.598227,-0.21773 -0.839062,-0.48385 -0.244757,-0.27046 -0.437882,-0.92459 -0.437882,-1.48316 0,-0.67991 -0.211414,-1.25056 -0.661459,-1.78541 -0.386352,-0.45915 -0.661458,-1.11878 -0.661458,-1.586 0,-0.55693 0.273265,-1.07318 0.899583,-1.6995 0.648229,-0.64822 1.136152,-0.89958 1.74625,-0.89958 0.610098,0 1.098019,0.25136 1.746249,0.89958 0.62632,0.62632 0.89958,1.14257 0.89958,1.6995 0,0.46722 -0.2751,1.12685 -0.66145,1.586 -0.46129,0.54821 -0.66146,1.10243 -0.66146,1.83138 0,0.67663 -0.17065,1.19971 -0.48386,1.48316 -0.266116,0.24083 -0.664382,0.43788 -0.885031,0.43788 z"
       id="path5"
       inkscape:export-filename="unlock.svg"
       inkscape:export-xdpi="96"
       inkscape:export-ydpi="96" /></g></svg>
