<svg height="15" viewBox="0 0 15 15" width="15" xmlns="http://www.w3.org/2000/svg"><path d="m46.0892566 138.020729c0 .357119-.2035511.68869-.5445106.886769l-5.3661568 3.118673c-.0712088.041372-.1461174.075055-.223246.10214v-5.953545c0-.4037.2460715-.777039.6461724-.980476l5.4755029-2.78358c.0079121.048763.0122381.098171.0122381.148125zm-7.2461587-3.525546-5.4280304-2.798016c.0343806-.021876.0698995-.042661.10724-.061462l5.3661568-2.699993c.1886377-.094897.4001009-.142321.6115072-.142321.2115202 0 .4229265.047424.6115642.142321l5.3661568 2.700042c.0514001.025845.0998971.055064.1457758.086663l-5.4610448 2.776238c-.4079561.207406-.9127925.206066-1.3193256-.003472zm.201502 7.633128c-.0770717-.027085-.1520373-.060817-.2231891-.102189l-5.3661568-3.118624c-.3409595-.198129-.5445106-.52965-.5445106-.886769v-5.461894c0-.064042.007229-.127191.0200932-.1891l5.4744214 2.821925c.3962872.204281.6393419.575686.6393419.976954zm6.8884643-11.179907-5.3661568-2.700042c-.658069-.331125-1.4756889-.331174-2.1338148 0l-5.3661568 2.700042c-.6581259.331075-1.0669358.948182-1.0669358 1.610431v5.461894c0 .62311.355133 1.201474.9499622 1.547134l5.3661568 3.118623c.3596298.208993.7716842.313514 1.1838525.313514.4121114 0 .8243366-.104521 1.1839095-.313465l5.3660998-3.118672c.5948862-.34561.9500192-.924024.9500192-1.547134v-5.461894c0-.662249-.4088668-1.279356-1.0669358-1.610431z" fill="#fff" fill-rule="evenodd" transform="translate(-32 -128)"/></svg>
