<svg height="2.645996mm" viewBox="0 0 2.6458359 2.6459961" width="2.645836mm" xmlns="http://www.w3.org/2000/svg"><g clip-rule="evenodd" fill="#fff" fill-rule="evenodd" stroke-width=".264583" transform="translate(-106.4159 -181.11473)"><path d="m108.92727 182.57512c-.0743 0-.13448.0605-.13448.13513v.44357c0 .18559-.1503.33663-.33498.33663h-1.43801c-.18472 0-.33499-.15104-.33499-.33663v-.44357c0-.0746-.0602-.13513-.13448-.13513-.0743 0-.13443.0605-.13443.13513v.44357c0 .33461.27087.60689.6039.60689h1.43801c.33298 0 .60392-.27228.60392-.60689v-.44357c0-.0746-.0602-.13513-.13446-.13513"/><path d="m107.17498 181.92123c.0331 0 .0664-.0123.0924-.037l.33695-.32044v1.46411c0 .0747.0602.13513.13443.13513.0743 0 .13448-.0605.13448-.13513v-1.46415l.33699.32048c.026.0247.0592.037.0924.037.0357 0 .0713-.0142.0977-.0422.0511-.0542.0487-.13971-.005-.19099l-.56391-.53627c-.00074-.00071-.002-.001-.002-.002-.001-.001-.002-.002-.003-.003-.00098-.00087-.002-.002-.003-.003s-.003-.002-.004-.003c-.001-.00083-.002-.002-.003-.003-.001-.00079-.002-.001-.003-.002-.001-.00095-.003-.002-.004-.003-.001-.00063-.002-.001-.003-.002-.001-.00067-.003-.001-.004-.002-.002-.00083-.003-.002-.005-.002-.00098-.00048-.002-.00099-.003-.001-.001-.00064-.003-.001-.004-.002-.002-.00059-.003-.001-.005-.002-.00007-.00004-.00015-.00008-.00019-.00008-.00091-.00031-.002-.00071-.003-.00098-.002-.00052-.003-.00099-.005-.001-.002-.00043-.003-.00082-.005-.001-.00016-.00004-.00032-.00008-.00047-.00012-.00087-.00019-.002-.00047-.003-.00067-.002-.00035-.003-.00067-.005-.00095-.002-.00027-.003-.00051-.005-.00071-.001-.00015-.002-.00039-.003-.00051-.002-.0002-.003-.00035-.005-.00047-.001-.00012-.003-.0002-.004-.00024-.001-.00008-.003-.00016-.004-.0002-.00086 0-.002-.00012-.003-.00012-.00082 0-.002.00012-.003.00012-.001.00004-.003.00012-.004.0002-.001.00004-.003.00012-.004.00024-.002.00012-.003.00027-.005.00047-.001.00012-.002.00036-.003.00047l-.00003.00004c-.002.0002-.003.0004-.005.00067-.002.00032-.004.00064-.005.001-.00067.00016-.001.00036-.002.00051-.00036.00008-.00071.0002-.001.00028-.001.00036-.003.00071-.004.001-.002.00047-.003.00094-.005.001-.00063.00019-.001.00047-.002.00067-.00036.00012-.00071.00027-.001.00039-.002.00055-.003.001-.005.002-.002.00059-.003.001-.005.002-.00099.00039-.002.0009-.003.001-.002.00071-.003.001-.005.002-.001.00067-.003.001-.004.002-.001.00059-.002.001-.003.002-.001.00091-.003.002-.004.003-.001.00075-.002.001-.004.002-.001.00079-.002.002-.003.002-.001.00098-.003.002-.004.003-.001.00082-.002.002-.003.003-.001.00095-.002.002-.003.003-.00079.00075-.002.001-.002.002l-.56382.53627c-.0539.0513-.0563.13679-.005.19099.0264.0281.062.0422.0977.0422"/></g></svg>
