<svg viewBox="0 0 93.69 93.69" xmlns="http://www.w3.org/2000/svg"><g fill="#fff" fill-rule="evenodd"><path d="m93.69 46.85c0 25.87-20.98 46.85-46.85 46.85-14.76 0-27.92-6.83-36.5-17.49l5.03-3.03c7.53 8.99 18.83 14.71 31.47 14.71 22.67 0 41.04-18.37 41.04-41.04 0-4.92-.87-9.63-2.45-13.99l5.09-2.96c2.05 5.26 3.17 10.97 3.17 16.95z"/><path d="m89.81 28.17-5.06 2.93c-6.17-14.86-20.82-25.3-37.91-25.3-22.66 0-41.04 18.38-41.04 41.05 0 9.35 3.13 17.98 8.4 24.88l-5 3c-5.78-7.79-9.2-17.44-9.2-27.88 0-25.87 20.97-46.85 46.84-46.85 19.24 0 35.76 11.59 42.97 28.17z"/><path d="m32.5 61.19-9.1 5.24c-.44.25-.99-.06-.99-.57v-10.49z"/><path d="m61.19 61.19 9.1 5.24c.44.25.99-.06.99-.57v-10.49z"/><path d="m33.47 47.38v12.24l-11.06-6.38v-12.25z"/><path d="m33.47 32.47v12.78l-11.06-6.39v-11.63c0-.51.55-.83.99-.57z"/><path d="m45.92 39.66v12.78l-2.29-1.32-8.31-4.78v-12.8z"/><path d="m58.37 33.54v12.76l-10.6 6.1v-12.74z"/><path d="m71.28 27.23v11.64l-11.06 6.37v-12.77l10.07-5.81c.44-.25.99.06.99.57z"/></g></svg>
