<svg viewBox="0 0 480.16 93.69" xmlns="http://www.w3.org/2000/svg"><g fill="#fff" fill-rule="evenodd"><path d="m259.35 46.85c0 25.87-20.98 46.85-46.85 46.85-14.76 0-27.92-6.83-36.5-17.49l5.03-3.03c7.53 8.99 18.83 14.71 31.47 14.71 22.67 0 41.04-18.37 41.04-41.04 0-4.92-.87-9.63-2.45-13.99l5.09-2.96c2.05 5.26 3.17 10.97 3.17 16.95z"/><path d="m255.47 28.17-5.06 2.93c-6.17-14.86-20.82-25.3-37.91-25.3-22.66 0-41.04 18.38-41.04 41.04 0 9.35 3.13 17.98 8.4 24.88l-5 3c-5.79-7.79-9.21-17.44-9.21-27.88 0-25.87 20.97-46.85 46.84-46.85 19.24 0 35.76 11.59 42.97 28.17z"/><path d="m198.16 61.19-9.1 5.24c-.44.25-.99-.06-.99-.57v-10.49z"/><path d="m226.85 61.19 9.1 5.24c.44.25.99-.06.99-.57v-10.49z"/><path d="m199.13 47.38v12.24l-11.06-6.38v-12.25z"/><path d="m199.13 32.47v12.78l-11.06-6.39v-11.63c0-.51.55-.83.99-.57z"/><path d="m211.58 39.66v12.78l-2.29-1.32-8.32-4.78v-12.8z"/><path d="m224.03 33.54v12.76l-10.61 6.1v-12.74z"/><path d="m236.93 27.23v11.64l-11.06 6.37v-12.77l10.07-5.81c.44-.25.99.06.99.57z"/><path d="m0 23.26v7.29h16.49v37.46h8.18v-37.46h16.49v-7.29zm80.29 17.71h-25.83v-17.71h-8.18v44.75h8.18v-19.75h25.83v19.75h8.18v-44.75h-8.18zm24.55 6.97h25.83v-6.33h-25.83v-11.51h28.38v-6.84h-36.57v44.75h37.2v-6.84h-29.02v-13.23zm167.11 20.07h8.31v-44.75h-8.31zm47.31-17.26c7.42-.06 10.42-3.13 10.42-10.61v-6.26c0-7.61-3.13-10.61-10.61-10.61h-30.3v44.75h8.18v-16.75h13.81l11.7 16.75h9.14l-12.34-17.26zm-3.2-21.22c4.16 0 5.43 1.21 5.43 5.37v4.86c0 4.16-1.28 5.37-5.43 5.37h-19.11v-15.6zm51.91 21.22c7.42-.06 10.42-3.13 10.42-10.61v-6.26c0-7.61-3.13-10.61-10.61-10.61h-30.3v44.75h8.18v-16.75h13.81l11.7 16.75h9.14l-12.34-17.26zm-3.2-21.22c4.16 0 5.43 1.21 5.43 5.37v4.86c0 4.16-1.28 5.37-5.43 5.37h-19.11v-15.6zm53.06 38.48c8.18 0 11.89-3.71 11.89-11.89v-20.97c0-8.18-3.71-11.89-11.89-11.89h-20.33c-8.18 0-11.89 3.71-11.89 11.89v20.97c0 8.18 3.71 11.89 11.89 11.89zm-17.64-7.03c-4.67 0-6.39-1.6-6.39-6.39v-17.9c0-4.79 1.73-6.39 6.39-6.39h14.96c4.67 0 6.39 1.73 6.39 6.39v17.9c0 4.67-1.73 6.39-6.39 6.39zm67.63-10.23c7.42-.06 10.42-3.13 10.42-10.61v-6.26c0-7.61-3.13-10.61-10.61-10.61h-30.3v44.75h8.18v-16.75h13.81l11.7 16.75h9.14l-12.34-17.26zm-3.2-21.22c4.16 0 5.43 1.21 5.43 5.37v4.86c0 4.16-1.28 5.37-5.43 5.37h-19.11v-15.6z"/></g></svg>
