<svg height="1024" width="1024" xmlns="http://www.w3.org/2000/svg" xmlns:xlink="http://www.w3.org/1999/xlink"><linearGradient id="a" gradientTransform="matrix(0 -1.2 1.2 0 -102.4 1126.4)" gradientUnits="userSpaceOnUse" x1="91.76" x2="932.24" y1="512" y2="512"><stop offset="0" stop-color="#223"/><stop offset="1" stop-color="#223"/></linearGradient><path d="m320.33628 7.71201c-11.97317 0-22.4604 0-34.4348.06852-10.08698.06-20.17152.176256-30.25238.450432-21.9757.592416-44.13866 1.888632-65.86711 5.796864-22.04424 3.963312-42.55848 10.435824-62.58679 20.635416a210.48271 210.48271 0 0 0 -53.31622 38.753064 210.60144 210.60144 0 0 0 -38.72736 53.334574c-10.20204 20.05035-16.672104 40.58662-20.634192 62.65411-3.902112 21.73212-5.19588 43.90121-5.78952 65.87568-.272952 10.08944-.388008 20.17764-.450432 30.26952-.07344 11.98052-.06732 23.96103-.06732 35.94154l-.498168 139.10395v104.03878l.498168 136.64369c0 12.00376-.00612 24.00753.06732 36.0113.062424 10.11269.17748 20.22048.450432 30.32827.59364 22.02588 1.888632 44.24515 5.79564 66.02868 3.960864 22.09687 10.42848 42.66497 20.623176 62.74102a211.02372 211.02372 0 0 0 38.732256 53.44841 210.52066 210.52066 0 0 0 53.30642 38.82283c20.03933 10.22774 40.56704 16.71254 62.62229 20.68564 21.72111 3.9119 43.87551 5.2081 65.84141 5.8042 10.08209.2717 20.16662.3892 30.25238.4504 11.97562.073 26.85089.6891 38.82528.6891h239.90278l137.6131-.6218c11.9903 0 23.9806 0 35.97091-.067 10.10045-.061 20.19845-.1787 30.29522-.4517 22.00263-.5948 44.19742-1.8935 65.95647-5.8091 22.07116-3.9718 42.61723-10.45537 62.67002-20.67455a210.82176 210.82176 0 0 0 53.38966-38.82772 211.07146 211.07146 0 0 0 38.78121-53.43862c10.21551-20.08829 16.69417-40.66618 20.66117-62.77651 3.9082-21.77374 5.2044-43.98567 5.798-66.00298.273-10.10779.3893-20.21681.4505-30.32949.072-12.00377.072-24.00632.072-36.01008v-379.7864c0-11.98051 0-23.96102-.072-35.94153-.061-10.09188-.1775-20.18009-.4505-30.26952-.5948-21.98304-1.8923-44.15947-5.8029-65.90139-3.967-22.05403-10.44321-42.58051-20.6526-62.61861a210.5329 210.5329 0 0 0 -38.78488-53.34467 210.80952 210.80952 0 0 0 -53.38109-38.750616c-20.06259-10.204488-40.61722-16.677-62.7043-20.64276-21.75048-3.90456-43.9367-5.199552-65.93076-5.793192-10.098-.272952-20.196-.389232-30.29522-.449208-11.99031-.06852-23.98061-.06852-35.97091-.06852h-381.90636z" fill="url(#a)" stroke-width="1.224"/><g fill="#fff" transform="matrix(1.2 0 0 1.2 -102.4 -102.4)"><g stroke-width=".75"><path d="m864.185 512c0 194.505-157.695 352.2-352.2 352.2-109.215 0-206.835-49.74-271.35-127.77l38.415-22.17c56.55 65.115 139.92 106.29 232.935 106.29 170.43 0 308.58-138.15 308.58-308.55 0-35.295-5.94-69.195-16.875-100.755l38.4-22.17c14.295 38.265 22.095 79.68 22.095 122.925z"/><path d="m833.525 368.165-38.01 21.945c-47.235-109.815-156.39-186.69-283.53-186.69-170.4 0-308.55 138.18-308.55 308.58 0 69.225 22.815 133.14 61.365 184.62l-38.01 21.96c-42.15-58.035-66.975-129.405-66.975-206.58 0-194.505 157.665-352.2 352.17-352.2 143.28 0 266.52 85.545 321.54 208.365z"/><path d="m404.165 619.85-68.4 39.39c-3.315 1.905-7.455-.48-7.455-4.305v-78.84z"/><path d="m619.835 619.85 68.4 39.39c3.315 1.905 7.455-.48 7.455-4.305v-78.84s-75.855 43.755-75.855 43.755z"/></g><path d="m224.66 410.88 110.86 64.02v122.8l-110.86-64.04z" transform="matrix(.75 0 0 .75 159.815 159.8)"/><path d="m411.455 403.895v96.075l-83.145-48.015v-87.42c0-3.825 4.14-6.225 7.455-4.305l75.69 43.68z" stroke-width=".75"/><path d="m437.38 512.48-83.36-47.98v-128.3l106.28 61.34v128.12z" transform="matrix(.75 0 0 .75 159.815 159.8)"/><path d="m478.82 397.58 106.28-61.38v127.92l-106.28 61.16z" transform="matrix(.75 0 0 .75 159.815 159.8)"/><path d="m695.69 364.52v87.495l-83.175 47.895v-95.97l75.72-43.71c3.315-1.92 7.455.48 7.455 4.305z" stroke-width=".75"/></g></svg>
