<svg height="151" viewBox="0 0 39.952082 39.952085" width="151" xmlns="http://www.w3.org/2000/svg"><g transform="translate(0 -257.0479)"><path d="m9.8723608 33.153786-1.121-16.063c-.135-1.936-1.675-3.477-3.611-3.616l-38.5549998-2.751c-.094-.007-.188-.01-.281-.01-1.916 0-3.569 1.406-3.852 3.33l-2.211 14.994h-31.459l-2.211-14.994c-.297-2.018-2.101-3.469-4.133-3.32l-38.554991 2.751c-1.936.139-3.476 1.68-3.611 3.616l-1.121 16.063-32.547 3.138c.015-3.498.06-7.33.06-8.093 0-34.3740006 43.605-50.896 97.780991-51.086h.066.067c54.1759998.19 97.766 16.7119994 97.766 51.086 0 .777.047 4.593.063 8.093z" fill="#478cbf" transform="matrix(.15879653 -.0472856 -.0472856 -.15879653 23.562519 284.4518)"/><g fill="none" fill-rule="evenodd" transform="matrix(1.11378982 .7376197 -.7376197 1.11378982 24.128446 255.738296)"><path d="m19.62 11.558-3.203 2.98-2.972-5.995 1.538-3.448c.4-.7 1.024-.692 1.414 0z" fill="#ffa000"/><path d="m13.445 8.543 2.972 5.995-11.97 11.135z" fill="#f57f17"/><path d="m23.123 7.003c.572-.55 1.164-.362 1.315.417l3.116 18.105-10.328 6.2c-.36.2-1.32.286-1.32.286s-.874-.104-1.207-.3l-10.252-6.038z" fill="#ffca28"/><path d="m13.445 8.543-8.997 17.13 4.007-25.035c.148-.78.592-.855.988-.167z" fill="#ffa000"/></g><path d="m105.92383 68.443359-21.089846 8.5625c-1.678223.681376-2.61116 2.458955-2.216796 4.226563l1.949218 8.728516-16.441406 6.201171-3.451172-7.410156c-.76775-1.647929-2.660033-2.499285-4.402344-1.980469l-22.919922 6.826172c-1.74171.518638-2.860363 2.264972-2.601562 4.064453l1.166016 8.089841-17.158204 3.80469-3.142578-8.37305c-.637013-1.696003-2.388426-2.673846-4.166015-2.326168l-22.351563 4.374998c-.11545.02262.159108 1.24393.046875 1.27735l1.3671878 4.69531 20.0878902-3.93164 3.542969 9.4414c.42702 1.13782 1.625718 1.78601 2.8125 1.52344l23.632813-5.23828c1.246186-.27373 2.069118-1.46819 1.886718-2.73242l-1.353515-9.394533 18.880859-5.621094 4.007813 8.603517c.513701 1.10416 1.756313 1.65297 2.90625 1.31055.055816-.01663.112803-.03564.167968-.05664l22.648438-8.541021c1.137099-.429421 1.784504-1.630339 1.519531-2.816406l-2.197265-9.839844 18.958982-7.697265-1.42578-4.677735s-.55325-1.138509-.66406-1.09375z" fill="#fff" transform="matrix(.26458334 0 0 .26458334 0 257.047899)"/><path d="m-5.6639654 275.32393 2.2467278 7.54506.2853686.95833.2596925.87212c.017195-.005.034536-.009.052-.0129l5.9128265-1.15735c.309731-.0606.617861.11147.728664.40694l.932747 2.48448 5.120376-1.13523-.351938-2.44462c-.04563-.31695.147793-.61951.454905-.71096l6.064122-1.80575c.306954-.0914.634384.0561.769575.34635l1.042703 2.23893 4.907466-1.85081-.578471-2.58998c-.06872-.308.09498-.62038.387357-.73926l5.58055-2.26508c.01652-.007.03332-.0124.05042-.0176l-.222762-.74809.0021-.002-2.56879-8.62663.02128-.006c.472043-1.19857.871679-2.43246 1.222033-3.72618-1.352246-1.26041-2.858268-2.29818-4.410151-3.21303-.926608.87321-1.800228 1.80999-2.603225 2.76914-.648467-.34836-1.333181-.58738-2.013377-.8478-.673961-.27489-1.38229-.41266-2.074766-.61272-.210728-1.34049-.502997-2.63492-.8629-3.96955-1.724787-.30826-3.473389-.33248-5.198422-.2102-.322692 1.27805-.563313 2.62968-.73556 3.93226-.640454.0797-1.264663.22445-1.880586.3999l-.000284-.00095c-.0043.001-.008.003-.01163.005-.0038.001-.0081.001-.01188.002l.000284.00095c-.612685.1904-1.213909.41057-1.793807.69424-.856436-.99626-1.796945-1.99618-2.767173-2.88923-1.51012902.84107-2.96080202 1.81795-4.2358391 3.01948.4286621 1.31415.8921121 2.55761 1.44949408 3.79488-.471344.54661-.98812998 1.04919-1.40208408 1.64804-.4261399.58986-.8695158 1.16479-1.2219441 1.81119-1.1968861-.36363-2.4403412-.67-3.6940096-.89398-.7986237 1.61477-1.4909812 3.30716-1.9337706 5.10209 1.0006865.89142 2.010688 1.70555 3.0613464 2.4507z" fill="#478cbf"/><path d="m0 0c0-12.052-9.765-21.815-21.813-21.815-12.042 0-21.81 9.763-21.81 21.815 0 12.044 9.768 21.802 21.81 21.802 12.048 0 21.813-9.758 21.813-21.802" fill="#fff" transform="matrix(.15879653 -.0472856 -.0472856 -.15879653 6.323059 275.89759)"/><path d="m0 0c0-7.994-6.479-14.473-14.479-14.473-7.996 0-14.479 6.479-14.479 14.473s6.483 14.479 14.479 14.479c8 0 14.479-6.485 14.479-14.479" fill="#414042" transform="matrix(.15879653 -.0472856 -.0472856 -.15879653 5.550776 276.35123)"/><path d="m0 0c-3.878 0-7.021 2.858-7.021 6.381v20.081c0 3.52 3.143 6.381 7.021 6.381s7.028-2.861 7.028-6.381v-20.081c0-3.523-3.15-6.381-7.028-6.381" fill="#fff" transform="matrix(.15879653 -.0472856 -.0472856 -.15879653 12.13223 278.28217)"/><path d="m0 0c0-12.052 9.765-21.815 21.815-21.815 12.041 0 21.808 9.763 21.808 21.815 0 12.044-9.767 21.802-21.808 21.802-12.05 0-21.815-9.758-21.815-21.802" fill="#fff" transform="matrix(.15879653 -.0472856 -.0472856 -.15879653 15.691222 273.10799)"/><path d="m0 0c0-7.994 6.477-14.473 14.471-14.473 8.002 0 14.479 6.479 14.479 14.473s-6.477 14.479-14.479 14.479c-7.994 0-14.471-6.485-14.471-14.479" fill="#414042" transform="matrix(.15879653 -.0472856 -.0472856 -.15879653 16.586076 273.0652)"/></g></svg>
