<svg height="23" viewBox="0 0 23 23" width="23" xmlns="http://www.w3.org/2000/svg"><g fill="none" fill-rule="evenodd" transform="translate(1 1)"><path d="m10.535.617c-5.469 0-9.918 4.449-9.918 9.918 0 5.468 4.449 9.917 9.918 9.917s9.918-4.449 9.918-9.917c0-5.469-4.449-9.918-9.918-9.918m0 20.452c-2.814 0-5.459-1.096-7.449-3.085-1.99-1.99-3.086-4.636-3.086-7.449 0-2.814 1.096-5.46 3.086-7.45 1.99-1.989 4.635-3.085 7.449-3.085s5.459 1.096 7.449 3.085c1.99 1.99 3.086 4.636 3.086 7.45 0 2.813-1.096 5.459-3.086 7.449-1.99 1.989-4.635 3.085-7.449 3.085" fill="#fff"/><path d="m10.535.617c-5.469 0-9.918 4.449-9.918 9.918 0 5.468 4.449 9.917 9.918 9.917s9.918-4.449 9.918-9.917c0-5.469-4.449-9.918-9.918-9.918zm0 20.452c-2.814 0-5.459-1.096-7.449-3.085-1.99-1.99-3.086-4.636-3.086-7.449 0-2.814 1.096-5.46 3.086-7.45 1.99-1.989 4.635-3.085 7.449-3.085s5.459 1.096 7.449 3.085c1.99 1.99 3.086 4.636 3.086 7.45 0 2.813-1.096 5.459-3.086 7.449-1.99 1.989-4.635 3.085-7.449 3.085z" stroke="#fff" stroke-width="1.1"/><path d="m10.535 6.6038c-1.781 0-3.23 1.449-3.23 3.23s1.449 3.23 3.23 3.23 3.23-1.449 3.23-3.23-1.449-3.23-3.23-3.23m0 7.077c-2.121 0-3.847-1.726-3.847-3.847s1.726-3.847 3.847-3.847 3.847 1.726 3.847 3.847-1.726 3.847-3.847 3.847" fill="#fff"/><path d="m10.535 6.6038c-1.781 0-3.23 1.449-3.23 3.23s1.449 3.23 3.23 3.23 3.23-1.449 3.23-3.23-1.449-3.23-3.23-3.23zm0 7.077c-2.121 0-3.847-1.726-3.847-3.847s1.726-3.847 3.847-3.847 3.847 1.726 3.847 3.847-1.726 3.847-3.847 3.847z" stroke="#fff" stroke-width="1.1"/><path d="m16.3437 19.0485c-.17 0-.309-.138-.309-.309 0-2.798-2.467-5.074-5.5-5.074s-5.5 2.276-5.5 5.074c0 .171-.138.309-.309.309-.17 0-.308-.138-.308-.309 0-3.138 2.744-5.691 6.117-5.691s6.118 2.553 6.118 5.691c0 .171-.139.309-.309.309" fill="#fff"/><path d="m16.3437 19.0485c-.17 0-.309-.138-.309-.309 0-2.798-2.467-5.074-5.5-5.074s-5.5 2.276-5.5 5.074c0 .171-.138.309-.309.309-.17 0-.308-.138-.308-.309 0-3.138 2.744-5.691 6.117-5.691s6.118 2.553 6.118 5.691c0 .171-.139.309-.309.309z" stroke="#fff" stroke-width="1.1"/></g></svg>
