<svg height="22" viewBox="0 0 22 22" width="22" xmlns="http://www.w3.org/2000/svg"><g fill="#fff" fill-rule="evenodd" transform="translate(.895242)"><path d="m10.1047577 13c1.10457 0 2-.89543 2-2s-.89543-2-2-2c-1.10457003 0-2.00000003.89543-2.00000003 2s.89543 2 2.00000003 2zm4-2c0 2.20914-1.79086 4-4 4-2.20914003 0-4.00000003-1.79086-4.00000003-4s1.79086-4 4.00000003-4c2.20914 0 4 1.79086 4 4z"/><path d="m9.48378976 2-.38756 1.16266c-.37496 1.1249-1.19242 1.90759-2.02613 2.37181-.0593.03302-.11802.06698-.17613.10187-.81998.49225-1.90812.80977-3.07119.57177l-1.20177-.24593.40096-1.9594 1.20177.24593c.56528.11568 1.14613-.03014 1.64083-.32711.07672-.04606.15425-.09091.23257-.13451.50351-.28036.91948-.71015 1.10173-1.25688l.38755-1.16267c.27223-.81668 1.03651-1.36754 1.89737-1.36754h1.24201004c.8608 0 1.6251.550859 1.8973 1.36754l.3876 1.16267c.1822.54673.5982.97652 1.1017 1.25688.0783.0436.1558.08845.2326.1345.4947.29698 1.0755.44279 1.6408.32711l1.2017-.24591c.8434-.17259 1.7026.21387 2.133.95939l.621 1.07557c.4304.74553.3355 1.68284-.2356 2.32694l-.815.91906c-.3819.4307-.547 1.00505-.5379 1.58065.0015.0904.0015.1808 0 .2712-.0091.5755.156 1.1499.5379 1.5806l.815.919c.5711.6441.666 1.5815.2356 2.327l-.621 1.0756c-.4304.7455-1.2896 1.1319-2.133.9593l-1.2016-.2459c-.5653-.1156-1.1462.0302-1.6409.3272-.0767.046-.1543.0909-.2326.1345-.5035.2804-.9195.7102-1.1017 1.2569l-.3876 1.1627c-.2722.8166-1.0365 1.3675-1.8973 1.3675h-1.24201004c-.86086 0-1.62514-.5509-1.89737-1.3675l-.38755-1.1627c-.18225-.5467-.59822-.9765-1.10173-1.2569-.07834-.0436-.15589-.0885-.23263-.1345-.4947-.297-1.07557-.4428-1.64085-.3272l-1.20169.2459c-.84339.1726-1.70259-.2138-2.133016-.9593l-.620981-1.0756c-.43043-.7455-.3355095-1.6829.235646-2.327l1.496401 1.327.62099 1.0756 1.20169-.246c1.16308-.238 2.25123.0796 3.07122.5718.05813.0349.11686.0689.17618.1019.83371.4643 1.65117 1.2469 2.02614 2.3718l.38755 1.1627h1.24201004l.3875-1.1627c.375-1.1249 1.1924-1.9075 2.0261-2.3718.0594-.033.1181-.067.1762-.1019.82-.4922 1.9081-.8098 3.0712-.5717l1.2017.2459.621-1.0756-.815-.9191c-.7848-.885-1.0564-1.9825-1.0412-2.9392.0011-.0693.0011-.1386 0-.2078-.0152-.95674.2564-2.0543 1.0412-2.93929l.815-.91906-.621-1.07557-1.2018.24592c-1.163.238-2.2512-.07952-3.0711-.57177-.0581-.03488-.1169-.06884-.1762-.10186-.8337-.46422-1.6511-1.24691-2.0261-2.37181l-.3875-1.16266zm-8.980171 11.6352 1.496401 1.327.81503-.9191c.78475-.885 1.05635-1.9826 1.04119-2.9392-.00109-.0693-.00109-.1386 0-.2078.01516-.95669-.25643-2.05425-1.04119-2.93923l-.81503-.91912.62099-1.07557.40096-1.9594c-.84339-.17258-1.70259.21387-2.133016.9594l-.620981 1.07557c-.43043.74553-.3355105 1.68284.235645 2.32694l.815032.91912c.38191.43069.54697 1.00509.53785 1.58059-.00144.0904-.00144.1808-.00001.2711.00912.5756-.15593 1.1499-.53785 1.5806z"/></g></svg>
