<svg height="103.19501mm" viewBox="0 0 103.195 103.19501" width="103.195mm" xmlns="http://www.w3.org/2000/svg"><path d="m63.865261 215.73088c.08495-2.68292.05541-2.82321-.645635-3.06644-1.951053-.67694-3.846657-2.70684-5.268595-5.64186-1.128934-2.33023-1.935029-4.75043-3.408857-10.23468-2.040509-7.59291-1.984315-7.19091-2.096958-15.00149-.0852-5.90787-.13427-6.59133-.633729-8.82691-.305808-1.36879-1.163071-3.88254-2.150873-6.30697-3.022433-7.41819-3.752942-9.44767-4.475088-12.43257-.576581-2.38322-.73722-4.62691-.433808-6.05911.311962-1.47257 1.262834-2.75918 2.478881-3.35413 1.766638-.86434 3.048526-.007 4.631386 3.09826 1.347754 2.64386 1.630527 3.46991 2.734152 7.98713 1.483528 6.07218 2.276544 8.34645 3.584472 10.27979.818176 1.2094 2.066581 2.14426 2.954057 2.21212.275763.0211.351042-.017.455874-.23082.627722-1.28014.337505-4.0274-1.320479-12.49997-2.008122-10.26183-2.595177-14.68463-2.441447-18.39356.144095-3.47646.902155-5.56011 2.382479-6.54863 1.116615-.74565 2.518912-.93024 3.50757-.46171 1.902394.90154 2.876908 3.59843 3.293353 9.11407.56509 7.48438 1.408395 13.16849 2.764104 18.63083.697475 2.81022 1.804974 6.33758 1.90503 6.06748.170318-.45978.750199-4.01408 1.013287-6.21081.557976-4.65897.803752-8.88462 1.058709-18.20245.132538-4.84383.248246-6.91424.470857-8.42521.450641-3.05874 1.224581-5.08425 2.388177-6.25021.729543-.73102 1.388201-.98074 2.442407-.92598 1.852861.0962 3.051275 1.24121 3.722113 3.55613.416329 1.43667.559916 2.82408.569214 5.50003.0117 3.36629-.06952 4.74171-.660129 11.17946-.456264 4.97336-.584232 6.92818-.609865 9.31621-.04398 4.09677.424159 6.42978 1.533802 7.6439.264256.28914.510855.52571.547999.52571.107869 0 .898437-1.12599 1.376737-1.96085.887126-1.54847 1.862935-4.13439 2.640143-6.99645.548346-2.01929 1.121716-4.65608 2.010355-9.24516.427412-2.20722.884639-4.46461 1.01606-5.01642s.366068-1.62628.521438-2.38771c.621095-3.04384 1.126401-4.52795 1.957918-5.75051.957099-1.4072 2.233293-1.88685 3.781827-1.42137 2.249847.67628 3.097461 1.84972 3.573171 4.94669.14624.95205.20149 4.22785.0923 5.47286-.44205 5.04057-1.3135 9.98986-2.68346 15.24037-.529941 2.03106-.865726 3.74989-1.573517 8.0546-.368998 2.2442-.868946 4.96183-1.110996 6.03917-.53563 2.38402-.553879 2.49614-.746518 4.58644-.191253 2.07526-.193351 4.70094-.0047 5.86838.235395 1.45662.883582 3.05088 1.58774 3.90514.348429.42271.614341.45166 1.53459.1671 1.468477-.45409 3.230391-1.55978 7.391381-4.63851 3.62672-2.68342 5.8075-4.12097 7.54852-4.97591 3.62475-1.77994 5.64657-1.70327 7.65325.29026 1.02617 1.01944 1.39409 1.74499 1.45288 2.86511.0491.93554-.11888 1.62171-.61645 2.51799-.53276.95967-1.31631 1.7092-2.97157 2.84256-3.11732 2.13444-4.97488 3.65369-7.29383 5.96546-1.73945 1.73407-3.00917 3.19995-4.36031 5.03396-1.86093 2.52599-3.15791 4.77029-5.62483 9.7332-2.000533 4.02462-2.789549 5.41701-3.782191 6.67447-1.121642 1.42088-2.634818 2.47099-4.164332 2.88997l-.597193.16358-.00083 2.11035c-.000457 1.16069-.02795 2.33608-.06109 2.61198l-.06025.50164h-14.423002-14.423014z" fill="#fff" transform="translate(-30.944693 -119.05722)"/></svg>
