<svg fill="none" height="14" viewBox="0 0 17 14" width="17" xmlns="http://www.w3.org/2000/svg"><g fill="#fff"><path d="m5.714 7.77637 2.09069 2.09043-2.7299 2.7296c-.57733.5773-1.51266.5773-2.08998 0-.57752-.5775-.57778-1.5126-.00045-2.0907z"/><path d="m12.1077 5.56469-1.6281 1.62813-2.09068-2.09066 1.62788-1.62794-1.96869-1.96894c-.16168-.16165-.16168-.42413 0-.586069l.36424-.363978c.20008-.200079.48421-.292359.76365-.24744l3.1471.504454c.1836.029432.353.115992.4844.247183l.1392.13948.1138-.11403c.1616-.161653.4241-.161653.5858 0l.851.85105c.1619.16165.1619.42412 0 .58581l-.1138.114 1.6457 1.64535c.1616.16165.1616.42413 0 .58581l-2.0169 2.01688c-.1617.16165-.4242.16165-.5858 0z"/><path d="m1.14103 2.52998c.05719-.05713.13196-.08586.20657-.08586.0746 0 .14944.02873.20656.08586l1.16038 1.1596c.10179.1023.23555.15317.36899.15317.13347 0 .26717-.0509.36902-.15317l.84899-.84925c.09858-.09729.15291-.23028.15291-.36877 0-.13848-.05436-.27115-.15268-.36921l-1.16037-1.160116c-.11404-.114032-.11404-.29917 0-.412945.26466-.264405.61472-.400383.96723-.400383.27424 0 .54989.082319.78788.25046l.63047.445333c.59931.422871.97125 1.097201 1.01064 1.829721l.07461 1.39464 6.62427 6.62464c.5388.5392.5388 1.4121 0 1.951-.2697.2695-.6227.4044-.9758.4044-.353 0-.7058-.1347-.9755-.4041l-6.62488-6.62464-1.39413-.0746c-.73223-.0392-1.40633-.41115-1.82946-1.01045l-.445593-.63067c-.383996-.54343-.320377-1.28439.149893-1.75466zm11.05127 9.62942c.3231 0 .5851-.2619.5851-.5851 0-.3231-.2619-.585-.5851-.585-.323 0-.585.2619-.585.585 0 .3232.262.5851.585.5851z"/></g></svg>
