<svg fill="none" height="18" viewBox="0 0 18 18" width="18" xmlns="http://www.w3.org/2000/svg"><g fill="#fff"><path clip-rule="evenodd" d="m11.4495 9.65366c.3842 0 .6956-.31143.6956-.6956s-.3114-.69561-.6956-.69561-.6956.31144-.6956.69561.3114.6956.6956.6956zm2.0855-.69551c0 1.15255-.9343 2.08685-2.0869 2.08685-1.1525 0-2.08677-.9343-2.08677-2.08685 0-1.15251.93427-2.08681 2.08677-2.08681 1.1526 0 2.0869.9343 2.0869 2.08681z" fill-rule="evenodd"/><path d="m6.5793 7.56719c0-.38417-.31144-.69561-.69561-.69561s-.6956.31144-.6956.69561v.6956h-.69561c-.38417 0-.6956.31143-.6956.69561 0 .38417.31143.6956.6956.6956h.69561v.6956c0 .3842.31143.6956.6956.6956s.69561-.3114.69561-.6956v-.6956h.6956c.38417 0 .69561-.31143.69561-.6956s-.31144-.69561-.69561-.69561h-.6956z"/><path clip-rule="evenodd" d="m9.3626 3.3936c0-.38417-.31142-.6956-.69561-.6956-.38417 0-.6956.31143-.6956.6956v.69561h-3.47803c-1.53669 0-2.78242 1.24573-2.78242 2.78242v4.17367c0 1.5366 1.24573 2.7824 2.78242 2.7824h8.34724c1.5367 0 2.7824-1.2458 2.7824-2.7824v-4.17367c0-1.53669-1.2457-2.78242-2.7824-2.78242h-3.478zm-4.86787 2.08662c-.76835 0-1.39121.62287-1.39121 1.39122v4.17366c0 .7683.62286 1.3912 1.39121 1.3912h8.34727c.7684 0 1.3912-.6229 1.3912-1.3912v-4.17366c0-.76835-.6228-1.39122-1.3912-1.39122z" fill-rule="evenodd"/></g></svg>
