<svg fill="none" height="24" viewBox="0 0 24 24" width="24" xmlns="http://www.w3.org/2000/svg"><g clip-rule="evenodd" fill="#fff" fill-rule="evenodd"><path d="m11.9999 17c4.1121 0 6.5866-3.067 7.683-4.8953.0251-.0417.0319-.0769.0319-.1047s-.0068-.063-.0319-.1047c-1.0964-1.8283-3.5709-4.8953-7.683-4.8953-4.11201 0-6.58653 3.067-7.68296 4.8953-.02505.0417-.03191.0769-.03191.1047s.00686.063.03191.1047c1.09642 1.8283 3.57095 4.8953 7.68296 4.8953zm9.3982-3.8666c-1.1883 1.9814-4.1832 5.8666-9.3982 5.8666-5.21498 0-8.20989-3.8852-9.39817-5.8666-.42226-.7042-.42226-1.5626 0-2.2668 1.18828-1.98139 4.18319-5.8666 9.39817-5.8666 5.215 0 8.2099 3.88521 9.3982 5.8666.4223.7042.4223 1.5626 0 2.2668z"/><path d="m12 13c.5523 0 1-.4477 1-1s-.4477-1-1-1-1 .4477-1 1 .4477 1 1 1zm0 2c1.6568 0 3-1.3432 3-3s-1.3432-3-3-3-3 1.3432-3 3 1.3432 3 3 3z"/></g></svg>
