<svg fill="none" height="24" viewBox="0 0 24 24" width="24" xmlns="http://www.w3.org/2000/svg"><g fill="#3c434f"><path d="m13 10c0-.55229-.4477-1-1-1s-1 .44771-1 1v2h-2c-.55229 0-1 .4477-1 1s.44771 1 1 1h2v2c0 .5523.4477 1 1 1s1-.4477 1-1v-2h2c.5523 0 1-.4477 1-1s-.4477-1-1-1h-2z"/><path clip-rule="evenodd" d="m11 7c-.5304 0-1.03914-.21071-1.41421-.58579l-1.12132-1.12132c-.18754-.18753-.44189-.29289-.70711-.29289h-2.75736c-.55228 0-1 .44772-1 1v12c0 .5523.44772 1 1 1h14c.5523 0 1-.4477 1-1v-10c0-.55228-.4477-1-1-1zm0-2h8c1.6569 0 3 1.34315 3 3v10c0 1.6569-1.3431 3-3 3h-14c-1.65685 0-3-1.3431-3-3v-12c0-1.65685 1.34315-3 3-3h2.75736c.79565 0 1.55871.31607 2.12132.87868z" fill-rule="evenodd"/></g></svg>
