<svg fill="none" height="24" viewBox="0 0 24 24" width="24" xmlns="http://www.w3.org/2000/svg"><g clip-rule="evenodd" fill="#3c434f" fill-rule="evenodd"><path d="m12 10c1.6568 0 3-1.34315 3-3s-1.3432-3-3-3-3 1.34315-3 3 1.3432 3 3 3zm0 2c2.7614 0 5-2.23858 5-5s-2.2386-5-5-5c-2.76142 0-5 2.23858-5 5s2.23858 5 5 5z"/><path d="m9 16c-2.20914 0-4 1.7909-4 4v1c0 .5523-.44772 1-1 1-.55229 0-1-.4477-1-1v-1c0-3.3137 2.68629-6 6-6h6c3.3137 0 6 2.6863 6 6v1c0 .5523-.4477 1-1 1s-1-.4477-1-1v-1c0-2.2091-1.7909-4-4-4z"/></g></svg>
