<svg xmlns="http://www.w3.org/2000/svg" xmlns:xlink="http://www.w3.org/1999/xlink" width="1080" zoomAndPan="magnify" viewBox="0 0 810 809.999993" height="1080" preserveAspectRatio="xMidYMid meet" version="1.0"><defs><clipPath id="05c2c4815a"><path d="M 78.183594 16 L 732 16 L 732 794.433594 L 78.183594 794.433594 Z M 78.183594 16 " clip-rule="nonzero"/></clipPath></defs><g clip-path="url(#05c2c4815a)"><path fill="#ffffff" d="M 411.050781 19.746094 L 521.84375 150.238281 C 526.292969 155.476562 522.582031 163.496094 515.710938 163.496094 L 464.109375 163.496094 L 464.109375 373.65625 C 464.109375 382.519531 456.878906 389.75 448.011719 389.75 L 361.820312 389.75 C 352.957031 389.75 345.726562 382.519531 345.726562 373.65625 L 345.726562 163.492188 L 294.121094 163.492188 C 287.25 163.492188 283.542969 155.476562 287.988281 150.234375 L 398.78125 19.742188 C 401.996094 15.957031 407.835938 15.957031 411.050781 19.746094 Z M 302.214844 725.589844 L 225.734375 725.589844 C 202.167969 725.589844 182.886719 740.996094 182.886719 759.824219 L 182.886719 794.058594 L 626.941406 794.058594 L 626.941406 759.824219 C 626.941406 740.996094 607.660156 725.59375 584.09375 725.59375 L 507.617188 725.59375 L 507.617188 645.765625 L 681.453125 645.765625 C 709.085938 645.765625 731.695312 623.15625 731.695312 595.523438 L 731.695312 249.871094 C 731.695312 222.238281 709.085938 199.628906 681.453125 199.628906 L 490.011719 199.628906 L 490.011719 241.644531 L 682.714844 241.644531 C 686.546875 241.644531 689.683594 244.78125 689.683594 248.609375 L 689.683594 561.132812 L 120.148438 561.132812 L 120.148438 248.609375 C 120.148438 244.777344 123.285156 241.644531 127.117188 241.644531 L 319.820312 241.644531 L 319.820312 199.628906 L 128.378906 199.628906 C 100.746094 199.628906 78.136719 222.238281 78.136719 249.871094 L 78.136719 595.523438 C 78.136719 623.15625 100.746094 645.765625 128.378906 645.765625 L 302.214844 645.765625 Z M 302.214844 725.589844 " fill-opacity="1" fill-rule="evenodd"/></g></svg>
