<svg width="17" height="17" viewBox="0 0 17 17" fill="none" xmlns="http://www.w3.org/2000/svg">
<path fill-rule="evenodd" clip-rule="evenodd" d="M3.53906 1.41602C2.36546 1.41602 1.41406 2.36741 1.41406 3.54102V13.4577C1.41406 14.6313 2.36546 15.5827 3.53906 15.5827H13.4557C14.6294 15.5827 15.5807 14.6313 15.5807 13.4577V5.83789C15.5807 5.2743 15.3568 4.7338 14.9583 4.33528L12.6615 2.03841C12.263 1.6399 11.7224 1.41602 11.1589 1.41602H3.53906ZM4.2474 11.3327C4.2474 10.5503 4.88166 9.91601 5.66406 9.91601H11.3307C12.1132 9.91601 12.7474 10.5503 12.7474 11.3327V13.4577C12.7474 13.8489 12.4303 14.166 12.0391 14.166H4.95573C4.56452 14.166 4.2474 13.8489 4.2474 13.4577V11.3327ZM10.6224 6.37435H6.3724C5.58999 6.37435 4.95573 5.74009 4.95573 4.95768V3.54102C4.95573 3.14982 5.27286 2.83268 5.66406 2.83268H11.0373C11.2252 2.83268 11.4054 2.90731 11.5382 3.04015L11.8316 3.33355C11.9644 3.46639 12.0391 3.64656 12.0391 3.83441V4.95768C12.0391 5.74009 11.4048 6.37435 10.6224 6.37435Z" fill="#3c434f"/>
</svg>
