<svg height="25" viewBox="0 0 24 25" width="24" xmlns="http://www.w3.org/2000/svg"><g fill="none" fill-rule="evenodd" transform="translate(1 1)"><path d="m12.3351967 19.7142346h-4.27646974c-.23224788 0-.42060639-.1841115-.42060639-.4111228v-4.8378435c0-.2270113.18835851-.4111229.42060639-.4111229.23224787 0 .41969203.1841116.41969203.4111229v4.4276144h3.85677771c.2322479 0 .4206064.1841115.4206064.4102291 0 .2270113-.1883585.4111228-.4206064.4111228" fill="#fff"/><path d="m12.3351967 19.7142346h-4.27646974c-.23224788 0-.42060639-.1841115-.42060639-.4111228v-4.8378435c0-.2270113.18835851-.4111229.42060639-.4111229.23224787 0 .41969203.1841116.41969203.4111229v4.4276144h3.85677771c.2322479 0 .4206064.1841115.4206064.4102291 0 .2270113-.1883585.4111228-.4206064.4111228z" stroke="#fff" stroke-width=".72"/><path d="m21.5793936 19.7142346c-.2322479 0-.4206064-.1841115-.4206064-.4111228v-18.48175983h-12.68036821v5.14350441c0 .22701131-.18744416.41022911-.41969203.41022911-.23224788 0-.42060639-.1832178-.42060639-.41022911v-5.55462727c0-.22611757.18835851-.41022911.42060639-.41022911h13.52066664c.2322479 0 .4206064.18411154.4206064.41022911v18.89288269c0 .2270113-.1883585.4111228-.4206064.4111228" fill="#fff"/><path d="m21.5793936 19.7142346c-.2322479 0-.4206064-.1841115-.4206064-.4111228v-18.48175983h-12.68036821v5.14350441c0 .22701131-.18744416.41022911-.41969203.41022911-.23224788 0-.42060639-.1832178-.42060639-.41022911v-5.55462727c0-.22611757.18835851-.41022911.42060639-.41022911h13.52066664c.2322479 0 .4206064.18411154.4206064.41022911v18.89288269c0 .2270113-.1883585.4111228-.4206064.4111228z" stroke="#fff" stroke-width=".72"/><path d="m12.3351967 23c-.0850356 0-.1691569-.0250249-.2413915-.0741809-.1115521-.0768621-.1792149-.2028802-.1792149-.336942v-18.89198889c0-.17249285.1106378-.32711079.2770516-.38609798l9.2441969-3.28540786c.2176181-.07775585.4590096.03217483.5385591.24577996.0795494.2127114-.032917.44866016-.2514495.52641601l-8.9671453 3.18709587v18.01790599l8.6800357-3.0852089c.2176181-.0768621.4590096.0321748.5385591.24578.0795494.2136051-.032917.4486601-.2514495.526416l-9.2441969 3.2854078c-.0466325.0169812-.0950936.0250249-.1435548.0250249" fill="#fff"/><path d="m12.3351967 23c-.0850356 0-.1691569-.0250249-.2413915-.0741809-.1115521-.0768621-.1792149-.2028802-.1792149-.336942v-18.89198889c0-.17249285.1106378-.32711079.2770516-.38609798l9.2441969-3.28540786c.2176181-.07775585.4590096.03217483.5385591.24577996.0795494.2127114-.032917.44866016-.2514495.52641601l-8.9671453 3.18709587v18.01790599l8.6800357-3.0852089c.2176181-.0768621.4590096.0321748.5385591.24578.0795494.2136051-.032917.4486601-.2514495.526416l-9.2441969 3.2854078c-.0466325.0169812-.0950936.0250249-.1435548.0250249z" stroke="#fff" stroke-width=".72"/><path d="m15.2392095 13.8005005c-.2322479 0-.4206064-.1841115-.4206064-.4111229v-2.4640559c0-.2270113.1883585-.4102291.4206064-.4102291s.4206064.1832178.4206064.4102291v2.4640559c0 .2270114-.1883585.4111229-.4206064.4111229" fill="#fff"/><path d="m15.2392095 13.8005005c-.2322479 0-.4206064-.1841115-.4206064-.4111229v-2.4640559c0-.2270113.1883585-.4102291.4206064-.4102291s.4206064.1832178.4206064.4102291v2.4640559c0 .2270114-.1883585.4111229-.4206064.4111229z" stroke="#fff" stroke-width=".72"/><path d="m7.90922882 10.6768605h-7.48862243c-.23224788 0-.42060639-.1841115-.42060639-.4111228 0-.2261176.18835851-.41022912.42060639-.41022912h7.48862243c.23224787 0 .42060639.18411152.42060639.41022912 0 .2270113-.18835852.4111228-.42060639.4111228" fill="#fff"/><path d="m7.90922882 10.6768605h-7.48862243c-.23224788 0-.42060639-.1841115-.42060639-.4111228 0-.2261176.18835851-.41022912.42060639-.41022912h7.48862243c.23224787 0 .42060639.18411152.42060639.41022912 0 .2270113-.18835852.4111228-.42060639.4111228z" stroke="#fff" stroke-width=".72"/><path d="m4.54766942 13.9626259c-.10789469 0-.21487501-.0402185-.29716756-.1206556-.16367075-.1599804-.16367075-.4200603 0-.5809345l3.0640261-2.9949406-3.0640261-2.99494064c-.16367075-.16087416-.16367075-.42095405 0-.58093447.16367075-.16087416.43066437-.16087416.59433511 0l3.36119366 3.28540786c.16458511.16087415.16458511.42095405 0 .58093445l-3.36119366 3.2854079c-.08229255.0804371-.18927287.1206556-.29716755.1206556" fill="#fff"/><path d="m4.54766942 13.9626259c-.10789469 0-.21487501-.0402185-.29716756-.1206556-.16367075-.1599804-.16367075-.4200603 0-.5809345l3.0640261-2.9949406-3.0640261-2.99494064c-.16367075-.16087416-.16367075-.42095405 0-.58093447.16367075-.16087416.43066437-.16087416.59433511 0l3.36119366 3.28540786c.16458511.16087415.16458511.42095405 0 .58093445l-3.36119366 3.2854079c-.08229255.0804371-.18927287.1206556-.29716755.1206556z" stroke="#fff" stroke-width=".72"/></g></svg>
