<svg height="19" viewBox="0 0 15 19" width="15" xmlns="http://www.w3.org/2000/svg"><g fill="none" fill-rule="evenodd" stroke="#fff" transform="translate(1 1)"><path d="m12.9181712 2.19297382c0 1.2111822-2.8734981 2.19297382-6.41812994 2.19297382-3.54463188 0-6.41812992-.98179162-6.41812992-2.19297382 0-1.21118219 2.87349804-2.19297382 6.41812992-2.19297382 3.54463184 0 6.41812994.98179163 6.41812994 2.19297382z" stroke-width="1.35"/><g stroke-width=".68499"><path d="m.08182882 14.9306542c0-.1397933.03823262-.2763482.11139721-.408855"/><path d="m.8264023 13.9045227c1.07738986-.6941088 3.21401595-1.1666534 5.67355644-1.1666534 2.76760193 0 5.12592226.5983046 6.02700196 1.4370644" stroke-dasharray=".88479 .88479"/><path d="m12.806774 14.5216913c.0731646.1325068.1113972.2693315.1113972.408855"/></g><path d="m12.9181712 2.19297382v12.61405238c0 1.2111822-2.8734981 2.1929738-6.41812994 2.1929738-3.54463188 0-6.41812992-.9817916-6.41812992-2.1929738v-12.61405238" stroke-width="1.35"/></g></svg>
