<svg height="16" viewBox="0 0 16 16" width="16" xmlns="http://www.w3.org/2000/svg"><path d="m8 1c-.39498.000002-.7904355.1498106-1.0917969.4511719l-5.4570312 5.4570312c-.60273899.6027391-.60272262 1.5808711 0 2.1835938l1.6367187 1.6386721v2.18164h2.1816406l1.6386719 1.636719c.6027391.602739 1.5808711.602722 2.1835938 0l5.4570311-5.4570311c.602739-.6027397.602722-1.5808711 0-2.1835938l-.001953.0019531-1.636719-1.6386718v-2.1816406h-2.18164l-1.6386722-1.6367188.0019531-.0019531c-.3013699-.3013695-.6968169-.45117395-1.0917969-.4511719zm0 1.5429688 1.6367188 1.6386718v2.1816406h2.1816402l1.638672 1.6367188-2.183593 2.183594-1.089844 1.089844-2.183594 2.183593-.0019531.001953-1.6367188-1.638672v-2.1816401h-2.1816406l-1.6386719-1.6367188.0019532-.0019531 2.1835937-2.1835938 1.0898437-1.0898437z" fill="#8eef97"/><path d="m-1.1609296 11.704303 6.2072783 4.705975 11.3639293-11.3639293-4.705975-6.2072783z" fill="none"/></svg>
