<svg fill="none" height="24" viewBox="0 0 24 24" width="24" xmlns="http://www.w3.org/2000/svg"><path clip-rule="evenodd" d="m14.5355 3.8076c1.1716-1.17158 3.0711-1.17158 4.2427 0l1.4142 1.41421c1.1715 1.17158 1.1715 3.07107 0 4.24264l-10.3925 10.39245c-.1396.1396-.3174.2348-.51099.2735l-5.3033 1.0607c-.69972.1399-1.31664-.477-1.17669-1.1767l1.06066-5.3033c.03871-.1936.13387-.3714.27347-.511zm2.8284 1.41421 1.4143 1.41422c.3905.39052.3905 1.02369 0 1.41421l-1.4143 1.41422-2.8284-2.82843 1.4142-1.41422c.3906-.39052 1.0237-.39052 1.4142 0zm-4.2426 2.82843-7.34994 7.34996-.70711 3.5355 3.53553-.7071 7.34992-7.3499z" fill="#fff" fill-rule="evenodd"/></svg>
