<svg height="250" preserveAspectRatio="xMidYMid meet" viewBox="40 80 295 215" width="500" xmlns="http://www.w3.org/2000/svg" zoomAndPan="magnify"><g fill="#62c8f3"><path d="m47.765625-103.515625c-8.417969 0-12.625 4.578125-12.625 13.734375v5.109375h23.484375v15.984375h-22.84375v68.6875h-19.96875v-68.6875h-14.0625v-15.984375h14.0625v-5.421875c0-9.164062 2.660156-16.382812 7.984375-21.65625 5.332031-5.269531 12.84375-7.90625 22.53125-7.90625 7.664063 0 13.679687 1.546875 18.046875 4.640625l-5.59375 15.015625c-3.40625-2.34375-7.078125-3.515625-11.015625-3.515625zm0 0" transform="translate(1.673476 245.311397)"/><path d="m13.09375-118.53125h19.96875v118.53125h-19.96875zm0 0" transform="translate(60.618299 245.311397)"/><path d="m51.4375 1.125c-8.625 0-16.402344-1.863281-23.328125-5.59375-6.917969-3.726562-12.320313-8.921875-16.203125-15.578125-3.886719-6.65625-5.828125-14.191406-5.828125-22.609375 0-8.414062 1.941406-15.921875 5.828125-22.515625 3.882812-6.601563 9.285156-11.769531 16.203125-15.5 6.925781-3.726563 14.703125-5.59375 23.328125-5.59375 8.726562 0 16.554688 1.867187 23.484375 5.59375 6.925781 3.730469 12.332031 8.898437 16.21875 15.5 3.882813 6.59375 5.828125 14.101563 5.828125 22.515625 0 8.417969-1.945312 15.953125-5.828125 22.609375-3.886719 6.65625-9.292969 11.851563-16.21875 15.578125-6.929687 3.730469-14.757813 5.59375-23.484375 5.59375zm0-17.09375c7.351562 0 13.425781-2.445312 18.21875-7.34375 4.789062-4.90625 7.1875-11.351562 7.1875-19.34375 0-7.988281-2.398438-14.429688-7.1875-19.328125-4.792969-4.894531-10.867188-7.34375-18.21875-7.34375-7.34375 0-13.386719 2.449219-18.125 7.34375-4.742188 4.898437-7.109375 11.339844-7.109375 19.328125 0 7.992188 2.367187 14.4375 7.109375 19.34375 4.738281 4.898438 10.78125 7.34375 18.125 7.34375zm0 0" transform="translate(106.783758 245.311397)"/><path d="m45.6875-86.265625c12.5625 0 22.171875 3.011719 28.828125 9.03125 6.65625 6.011719 9.984375 15.089844 9.984375 27.234375v50h-18.84375v-10.390625c-2.449219 3.730469-5.9375 6.585937-10.46875 8.5625-4.523438 1.96875-9.980469 2.953125-16.375 2.953125-6.386719 0-11.976562-1.09375-16.765625-3.28125-4.792969-2.1875-8.496094-5.222656-11.109375-9.109375-2.605469-3.882813-3.90625-8.273437-3.90625-13.171875 0-7.664062 2.847656-13.816406 8.546875-18.453125 5.695313-4.632813 14.671875-6.953125 26.921875-6.953125h22.03125v-1.28125c0-5.957031-1.789062-10.535156-5.359375-13.734375-3.5625-3.195313-8.855469-4.796875-15.875-4.796875-4.792969 0-9.507813.75-14.140625 2.25-4.636719 1.492188-8.554688 3.5625-11.75 6.21875l-7.828125-14.53125c4.476563-3.40625 9.859375-6.015625 16.140625-7.828125s12.9375-2.71875 19.96875-2.71875zm-2.71875 72.84375c5.007812 0 9.457031-1.140625 13.34375-3.421875 3.882812-2.289062 6.625-5.566406 8.21875-9.828125v-9.90625h-20.59375c-11.511719 0-17.265625 3.78125-17.265625 11.34375 0 3.617187 1.4375 6.492187 4.3125 8.625 2.882813 2.125 6.878906 3.1875 11.984375 3.1875zm0 0" transform="translate(209.817409 245.311397)"/><path d="m64.375-4.625c-2.34375 1.917969-5.195312 3.355469-8.546875 4.3125-3.355469.957031-6.898437 1.4375-10.625 1.4375-9.367187 0-16.605469-2.445312-21.71875-7.34375-5.117187-4.90625-7.671875-12.046875-7.671875-21.421875v-41.046875h-14.0625v-15.984375h14.0625v-19.484375h19.96875v19.484375h22.84375v15.984375h-22.84375v40.578125c0 4.148437 1.007812 7.3125 3.03125 9.5 2.03125 2.179687 4.960938 3.265625 8.796875 3.265625 4.46875 0 8.191406-1.164062 11.171875-3.5zm0 0" transform="translate(306.780869 245.311397)"/></g></svg>
