<svg height="250" preserveAspectRatio="xMidYMid meet" viewBox="40 80 295 215" width="500" xmlns="http://www.w3.org/2000/svg" zoomAndPan="magnify"><g fill="#bc88ec"><path d="m90.203125-82.765625-35.484375 82.765625h-20l-35.5-82.765625h20.15625l25.734375 61.375 26.5-61.375zm0 0" transform="translate(4.368168 242.624984)"/><path d="m90.515625-40.921875c0 1.34375-.105469 3.257813-.3125 5.734375h-64.9375c1.132813 6.09375 4.101563 10.929688 8.90625 14.5 4.8125 3.5625 10.78125 5.34375 17.90625 5.34375 9.09375 0 16.585937-2.992188 22.484375-8.984375l10.375 11.921875c-3.71875 4.449219-8.421875 7.808594-14.109375 10.078125-5.679687 2.2734375-12.085937 3.40625-19.21875 3.40625-9.09375 0-17.105469-1.804687-24.03125-5.421875-6.917969-3.613281-12.261719-8.648438-16.03125-15.109375-3.773437-6.457031-5.65625-13.769531-5.65625-21.9375 0-8.050781 1.832031-15.304687 5.5-21.765625 3.664063-6.457031 8.753906-11.492188 15.265625-15.109375 6.507812-3.625 13.847656-5.4375 22.015625-5.4375 8.0625 0 15.269531 1.789063 21.625 5.359375 6.351563 3.5625 11.3125 8.574219 14.875 15.03125 3.5625 6.460938 5.34375 13.921875 5.34375 22.390625zm-41.84375-27.28125c-6.199219 0-11.445313 1.839844-15.734375 5.515625-4.292969 3.667969-6.902344 8.546875-7.828125 14.640625h46.96875c-.835937-6-3.371094-10.859375-7.609375-14.578125-4.230469-3.71875-9.496094-5.578125-15.796875-5.578125zm0 0" transform="translate(93.953634 242.624984)"/><path d="m50.6875 1.078125c-8.585938 0-16.289062-1.804687-23.109375-5.421875-6.8125-3.613281-12.132813-8.648438-15.953125-15.109375-3.824219-6.457031-5.734375-13.769531-5.734375-21.9375 0-8.15625 1.910156-15.4375 5.734375-21.84375 3.820312-6.40625 9.117188-11.414063 15.890625-15.03125 6.769531-3.625 14.492187-5.4375 23.171875-5.4375 8.164062 0 15.320312 1.65625 21.46875 4.96875 6.144531 3.304687 10.769531 8.054687 13.875 14.25l-14.890625 8.6875c-2.375-3.820313-5.34375-6.6875-8.90625-8.59375-3.5625-1.914063-7.464844-2.875-11.703125-2.875-7.230469 0-13.226562 2.351563-17.984375 7.046875-4.75 4.699219-7.125 10.976562-7.125 18.828125 0 7.855469 2.347656 14.136719 7.046875 18.84375 4.707031 4.699219 10.726562 7.046875 18.0625 7.046875 4.238281 0 8.140625-.953125 11.703125-2.859375 3.5625-1.914063 6.53125-4.785156 8.90625-8.609375l14.890625 8.671875c-3.210938 6.210937-7.886719 10.992187-14.03125 14.34375-6.148438 3.355469-13.25 5.03125-21.3125 5.03125zm0 0" transform="translate(190.358749 242.624984)"/><path d="m85.40625-17.046875v17.046875h-79.984375v-13.484375l43.09375-40.921875c4.851563-4.644531 8.132813-8.695312 9.84375-12.15625 1.707031-3.46875 2.5625-6.90625 2.5625-10.3125 0-5.0625-1.710937-8.9375-5.125-11.625-3.40625-2.6875-8.417969-4.03125-15.03125-4.03125-11.054687 0-19.527344 3.773438-25.421875 11.3125l-14.109375-10.84375c4.238281-5.6875 9.945313-10.101562 17.125-13.25 7.1875-3.15625 15.222656-4.734375 24.109375-4.734375 11.78125 0 21.179688 2.792969 28.203125 8.375 7.03125 5.574219 10.546875 13.167969 10.546875 22.78125 0 5.886719-1.242188 11.414063-3.71875 16.578125-2.480469 5.167969-7.234375 11.058594-14.265625 17.671875l-28.984375 27.59375zm0 0" transform="translate(280.409189 242.624984)"/></g></svg>
