<svg height="19" viewBox="0 0 18 19" width="18" xmlns="http://www.w3.org/2000/svg"><path d="m9 0c-4.97109354 0-9 4.02890646-9 9 0 4.9710935 4.02890646 9 9 9 4.9710935 0 9-4.0289065 9-9 0-4.97109354-4.0289065-9-9-9zm-.84375 5.34375c0-.46406293.37968761-.84375.84375-.84375.46406293 0 .84375.37792969.84375.84375v4.5c0 .4658203-.37792969.84375-.84375.84375s-.84375-.3761723-.84375-.84375zm.84375 8.71875c-.61031252 0-1.10531259-.4949995-1.10531259-1.1053126 0-.610312.4946487-1.1053126 1.10531259-1.1053126s1.1053126.4949996 1.1053126 1.1053126c-.0014066.6096093-.49359406 1.1053126-1.1053126 1.1053126z" fill="#ff6a55" transform="translate(0 .25)"/></svg>
