<svg height="43" viewBox="0 0 140 43" width="140" xmlns="http://www.w3.org/2000/svg"><g fill="none" fill-rule="evenodd"><rect fill="#0b1021" height="43" rx="12" width="139.496659" x=".25167"/><g fill-rule="nonzero"><g fill="#6a7486" transform="translate(42.127999 7.402667)"><path d="m0 .864h1.56v7.08h4.392v1.32h-5.952z"/><path d="m9.924 9.348c-.648 0-1.232-.14-1.752-.42s-.926-.67-1.218-1.17-.438-1.066-.438-1.698.146-1.196.438-1.692.698-.884 1.218-1.164 1.104-.42 1.752-.42c.656 0 1.244.14 1.764.42s.926.668 1.218 1.164.438 1.06.438 1.692-.146 1.198-.438 1.698-.698.89-1.218 1.17-1.108.42-1.764.42zm0-1.284c.552 0 1.008-.184 1.368-.552s.54-.852.54-1.452-.18-1.084-.54-1.452-.816-.552-1.368-.552-1.006.184-1.362.552-.534.852-.534 1.452.178 1.084.534 1.452.81.552 1.362.552z"/><path d="m21.144 2.856v5.436c0 2.256-1.152 3.384-3.456 3.384-.616 0-1.2-.078-1.752-.234s-1.008-.382-1.368-.678l.672-1.128c.28.232.634.418 1.062.558s.862.21 1.302.21c.704 0 1.22-.16 1.548-.48s.492-.808.492-1.464v-.336c-.256.28-.568.492-.936.636s-.772.216-1.212.216c-.608 0-1.158-.13-1.65-.39s-.88-.626-1.164-1.098-.426-1.012-.426-1.62.142-1.146.426-1.614.672-.83 1.164-1.086 1.042-.384 1.65-.384c.464 0 .886.076 1.266.228s.698.384.954.696v-.852zm-3.42 4.848c.568 0 1.034-.17 1.398-.51s.546-.782.546-1.326c0-.536-.182-.972-.546-1.308s-.83-.504-1.398-.504c-.576 0-1.046.168-1.41.504s-.546.772-.546 1.308c0 .544.182.986.546 1.326s.834.51 1.41.51z"/><path d="m23.112 2.856h1.5v6.408h-1.5zm.756-1.056c-.272 0-.5-.086-.684-.258s-.276-.386-.276-.642.092-.47.276-.642.412-.258.684-.258.5.082.684.246.276.37.276.618c0 .264-.09.486-.27.666s-.41.27-.69.27z"/><path d="m30.216 2.784c.808 0 1.456.236 1.944.708s.732 1.172.732 2.1v3.672h-1.5v-3.48c0-.56-.132-.982-.396-1.266s-.64-.426-1.128-.426c-.552 0-.988.166-1.308.498s-.48.81-.48 1.434v3.24h-1.5v-6.408h1.428v.828c.248-.296.56-.52.936-.672s.8-.228 1.272-.228z"/><path d="m48.108 2.856-2.364 6.408h-1.44l-1.656-4.416-1.68 4.416h-1.44l-2.352-6.408h1.416l1.692 4.728 1.764-4.728h1.26l1.728 4.752 1.74-4.752z"/><path d="m49.14 2.856h1.5v6.408h-1.5zm.756-1.056c-.272 0-.5-.086-.684-.258s-.276-.386-.276-.642.092-.47.276-.642.412-.258.684-.258.5.082.684.246.276.37.276.618c0 .264-.09.486-.27.666s-.41.27-.69.27z"/><path d="m56.46 8.916c-.176.144-.39.252-.642.324s-.518.108-.798.108c-.704 0-1.248-.184-1.632-.552s-.576-.904-.576-1.608v-3.084h-1.056v-1.2h1.056v-1.464h1.5v1.464h1.716v1.2h-1.716v3.048c0 .312.076.55.228.714s.372.246.66.246c.336 0 .616-.088.84-.264z"/><path d="m61.332 2.784c.808 0 1.456.236 1.944.708s.732 1.172.732 2.1v3.672h-1.5v-3.48c0-.56-.132-.982-.396-1.266s-.64-.426-1.128-.426c-.552 0-.988.166-1.308.498s-.48.81-.48 1.434v3.24h-1.5v-8.904h1.5v3.24c.248-.264.554-.466.918-.606s.77-.21 1.218-.21z"/></g><g fill="#fff"><g transform="translate(42.327999 20.074667)"><path d="m0 1.392h5.088c1.216 0 2.29066667.232 3.224.696s1.65866667 1.11733333 2.176 1.96c.5173333.84266667.776 1.824.776 2.944s-.2586667 2.10133333-.776 2.944c-.51733333.8426667-1.24266667 1.496-2.176 1.96s-2.008.696-3.224.696h-5.088zm4.96 9.072c1.12 0 2.01333333-.312 2.68-.936s1-1.46933333 1-2.536-.33333333-1.912-1-2.536-1.56-.936-2.68-.936h-2.368v6.944z"/><path d="m13.04 3.984h2.496v8.608h-2.496zm1.248-1.2c-.4586667 0-.832-.13333333-1.12-.4s-.432-.59733333-.432-.992.144-.72533333.432-.992.6613333-.4 1.12-.4.832.128 1.12.384.432.576.432.96c0 .416-.144.76-.432 1.032s-.6613333.408-1.12.408z"/><path d="m20.752 12.72c-.7146667 0-1.4133333-.088-2.096-.264s-1.2266667-.3973333-1.632-.664l.832-1.792c.384.2453333.848.4453333 1.392.6s1.0773333.232 1.6.232c1.056 0 1.584-.2613333 1.584-.784 0-.24533333-.144-.42133333-.432-.528s-.7306667-.19733333-1.328-.272c-.704-.10666667-1.2853333-.22933333-1.744-.368s-.856-.384-1.192-.736-.504-.85333333-.504-1.504c0-.544.1573333-1.02666667.472-1.448s.7733333-.74933333 1.376-.984 1.3146667-.352 2.136-.352c.608 0 1.2133333.06666667 1.816.2s1.1013333.31733333 1.496.552l-.832 1.776c-.7573333-.42666667-1.584-.64-2.48-.64-.5333333 0-.9333333.07466667-1.2.224s-.4.34133333-.4.576c0 .26666667.144.45333333.432.56s.7466667.208 1.376.304c.704.11733333 1.28.24266667 1.728.376s.8373333.376 1.168.728.496.84266667.496 1.472c0 .5333333-.16 1.008-.48 1.424s-.7866667.7386667-1.4.968-1.3413333.344-2.184.344z"/><path d="m30.512 12.72c-.9173333 0-1.7413333-.1893333-2.472-.568s-1.3013333-.904-1.712-1.576-.616-1.43466667-.616-2.288.2053333-1.616.616-2.288.9813333-1.19733333 1.712-1.576 1.5546667-.568 2.472-.568c.9066667 0 1.6986667.18933333 2.376.568s1.1706667.92 1.48 1.624l-1.936 1.04c-.448-.78933333-1.0933333-1.184-1.936-1.184-.6506667 0-1.1893333.21333333-1.616.64s-.64 1.008-.64 1.744.2133333 1.31733333.64 1.744c.4266667.4266667.9653333.64 1.616.64.8533333 0 1.4986667-.3946667 1.936-1.184l1.936 1.056c-.3093333.6826667-.8026667 1.216-1.48 1.6s-1.4693333.576-2.376.576z"/><path d="m39.904 12.72c-.9066667 0-1.72-.1893333-2.44-.568s-1.2826667-.904-1.688-1.576-.608-1.43466667-.608-2.288.2026667-1.616.608-2.288.968-1.19733333 1.688-1.576 1.5333333-.568 2.44-.568 1.7173333.18933333 2.432.568 1.2746667.904 1.68 1.576.608 1.43466667.608 2.288-.2026667 1.616-.608 2.288-.9653333 1.1973333-1.68 1.576-1.5253333.568-2.432.568zm0-2.048c.64 0 1.1653333-.216 1.576-.648s.616-1.01066667.616-1.736-.2053333-1.304-.616-1.736-.936-.648-1.576-.648-1.168.216-1.584.648-.624 1.01066667-.624 1.736.208 1.304.624 1.736.944.648 1.584.648z"/><path d="m48.672 5.12c.2986667-.416.7013333-.73066667 1.208-.944s1.0906667-.32 1.752-.32v2.304c-.2773333-.02133333-.464-.032-.56-.032-.7146667 0-1.2746667.2-1.68.6s-.608 1-.608 1.8v4.064h-2.496v-8.608h2.384z"/><path d="m61.952.72v11.872h-2.384v-.992c-.6186667.7466667-1.5146667 1.12-2.688 1.12-.8106667 0-1.544-.1813333-2.2-.544s-1.1706667-.88-1.544-1.552-.56-1.45066667-.56-2.336.1866667-1.664.56-2.336.888-1.18933333 1.544-1.552 1.3893333-.544 2.2-.544c1.0986667 0 1.9573333.34666667 2.576 1.04v-4.176zm-4.64 9.952c.6293333 0 1.152-.216 1.568-.648s.624-1.01066667.624-1.736-.208-1.304-.624-1.736-.9386667-.648-1.568-.648c-.64 0-1.168.216-1.584.648s-.624 1.01066667-.624 1.736.208 1.304.624 1.736.944.648 1.584.648z"/></g><path d="m15.5790903 1.1823968c-.0051078-.00989628-.0135708-.0176506-.0238742-.02187538-1.191351-.54660511-2.4485684-.93637657-3.7401886-1.15956211-.0240679-.00447464-.0482932.00698948-.0600939.02843761-.1711941.31071473-.3265991.62987137-.4656248.9562502-1.39229587-.21134949-2.80851654-.21134949-4.20081238 0-.13994598-.32720757-.29784202-.64644337-.47296857-.9562502-.01229239-.02093505-.03614331-.03221607-.06012488-.02843761-1.29175663.22271633-2.5490551.61251831-3.74025059 1.15959358-.01019716.00432301-.01880121.01170445-.0246253.02112484-2.38215637 3.5574379-3.03471899 7.02740669-2.71459388 10.45440677.00181961.0169697.01044607.0324754.02390623.0429687 1.38710785 1.0270481 2.93860435 1.8110018 4.58828163 2.3184061.02379274.0071373.04951382-.0012912.06446886-.0211248.3543148-.4821005.66826439-.9926014.93865585-1.5263128.01575375-.0310545.00085354-.0688973-.03184366-.0808754-.4950757-.1894274-.97436666-.4177771-1.43337488-.6829062-.03612518-.0212364-.03914929-.0723381-.00578118-.0976877.09631253-.072156.19268752-.1472187.28465605-.2230311.01666594-.0137262.03966999-.0168256.05937481-.0080003 3.0071559 1.372406 6.26281209 1.372406 9.23437549 0 .0197649-.0093956.0431738-.0065604.0601253.0072813.092.0758123.188344.1515941.2853747.2237501.0335474.0250902.030899.0761995-.0050621.0976877-.4579649.2673597-.9376898.4955664-1.434062.6821871-.0326691.0124321-.0472565.050519-.03125.0815935.2749185.5307436.5884056 1.0406017.9379377 1.5254688.0145493.0203972.0405111.0292073.0644684.0218754 1.6526327-.5056848 3.2068415-1.289711 4.5956869-2.3183117.0136795-.009984.0223923-.0253811.0239067-.0422497.3832493-3.96196934-.6416263-7.40350052-2.7166881-10.4544067zm-9.43875071 8.36699963c-.905375 0-1.65137482-.83084393-1.65137482-1.85121823 0-1.02037429.73153115-1.85128116 1.65137482-1.85128116.92703152 0 1.66581249.83812523 1.65134335 1.85121822.00000095 1.0204382-.73156214 1.85128117-1.65134335 1.85128117zm6.10562511 0c-.905344 0-1.6513433-.83084393-1.6513433-1.85121823 0-1.02037429.7315311-1.85128116 1.6513433-1.85128116.9270935 0 1.665844.83812523 1.6513749 1.85121822 0 1.0204382-.7242814 1.85128117-1.6513749 1.85128117z" transform="translate(11.312503 14.999978)"/></g></g></g></svg>
