<svg height="43" viewBox="0 0 140 43" width="140" xmlns="http://www.w3.org/2000/svg"><g fill="none" fill-rule="evenodd"><rect fill="#0b1021" height="43" rx="12" width="139.496659" x=".503341"/><g fill-rule="nonzero"><g fill="#6a7486" transform="translate(43.128001 7.402667)"><path d="m0 .864h1.56v7.08h4.392v1.32h-5.952z"/><path d="m9.924 9.348c-.648 0-1.232-.14-1.752-.42s-.926-.67-1.218-1.17-.438-1.066-.438-1.698.146-1.196.438-1.692.698-.884 1.218-1.164 1.104-.42 1.752-.42c.656 0 1.244.14 1.764.42s.926.668 1.218 1.164.438 1.06.438 1.692-.146 1.198-.438 1.698-.698.89-1.218 1.17-1.108.42-1.764.42zm0-1.284c.552 0 1.008-.184 1.368-.552s.54-.852.54-1.452-.18-1.084-.54-1.452-.816-.552-1.368-.552-1.006.184-1.362.552-.534.852-.534 1.452.178 1.084.534 1.452.81.552 1.362.552z"/><path d="m21.144 2.856v5.436c0 2.256-1.152 3.384-3.456 3.384-.616 0-1.2-.078-1.752-.234s-1.008-.382-1.368-.678l.672-1.128c.28.232.634.418 1.062.558s.862.21 1.302.21c.704 0 1.22-.16 1.548-.48s.492-.808.492-1.464v-.336c-.256.28-.568.492-.936.636s-.772.216-1.212.216c-.608 0-1.158-.13-1.65-.39s-.88-.626-1.164-1.098-.426-1.012-.426-1.62.142-1.146.426-1.614.672-.83 1.164-1.086 1.042-.384 1.65-.384c.464 0 .886.076 1.266.228s.698.384.954.696v-.852zm-3.42 4.848c.568 0 1.034-.17 1.398-.51s.546-.782.546-1.326c0-.536-.182-.972-.546-1.308s-.83-.504-1.398-.504c-.576 0-1.046.168-1.41.504s-.546.772-.546 1.308c0 .544.182.986.546 1.326s.834.51 1.41.51z"/><path d="m23.112 2.856h1.5v6.408h-1.5zm.756-1.056c-.272 0-.5-.086-.684-.258s-.276-.386-.276-.642.092-.47.276-.642.412-.258.684-.258.5.082.684.246.276.37.276.618c0 .264-.09.486-.27.666s-.41.27-.69.27z"/><path d="m30.216 2.784c.808 0 1.456.236 1.944.708s.732 1.172.732 2.1v3.672h-1.5v-3.48c0-.56-.132-.982-.396-1.266s-.64-.426-1.128-.426c-.552 0-.988.166-1.308.498s-.48.81-.48 1.434v3.24h-1.5v-6.408h1.428v.828c.248-.296.56-.52.936-.672s.8-.228 1.272-.228z"/><path d="m48.108 2.856-2.364 6.408h-1.44l-1.656-4.416-1.68 4.416h-1.44l-2.352-6.408h1.416l1.692 4.728 1.764-4.728h1.26l1.728 4.752 1.74-4.752z"/><path d="m49.14 2.856h1.5v6.408h-1.5zm.756-1.056c-.272 0-.5-.086-.684-.258s-.276-.386-.276-.642.092-.47.276-.642.412-.258.684-.258.5.082.684.246.276.37.276.618c0 .264-.09.486-.27.666s-.41.27-.69.27z"/><path d="m56.46 8.916c-.176.144-.39.252-.642.324s-.518.108-.798.108c-.704 0-1.248-.184-1.632-.552s-.576-.904-.576-1.608v-3.084h-1.056v-1.2h1.056v-1.464h1.5v1.464h1.716v1.2h-1.716v3.048c0 .312.076.55.228.714s.372.246.66.246c.336 0 .616-.088.84-.264z"/><path d="m61.332 2.784c.808 0 1.456.236 1.944.708s.732 1.172.732 2.1v3.672h-1.5v-3.48c0-.56-.132-.982-.396-1.266s-.64-.426-1.128-.426c-.552 0-.988.166-1.308.498s-.48.81-.48 1.434v3.24h-1.5v-8.904h1.5v3.24c.248-.264.554-.466.918-.606s.77-.21 1.218-.21z"/></g><g fill="#fff"><g transform="translate(43.328001 20.794667)"><path d="m2.592 2.752v2.96h5.184v2.08h-5.184v4.08h-2.592v-11.2h8.464v2.08z"/><path d="m13.52 3.136c1.3333333 0 2.3573333.31733333 3.072.952s1.072 1.592 1.072 2.872v4.912h-2.336v-1.072c-.4693333.8-1.344 1.2-2.624 1.2-.6613333 0-1.2346667-.112-1.72-.336s-.856-.5333333-1.112-.928-.384-.84266667-.384-1.344c0-.8.30133333-1.42933333.904-1.888.6026667-.45866667 1.5333333-.688 2.792-.688h1.984c0-.544-.1653333-.96266667-.496-1.256s-.8266667-.44-1.488-.44c-.4586667 0-.9093333.072-1.352.216s-.8186667.33866667-1.128.584l-.896-1.744c.4693333-.33066667 1.032-.58666667 1.688-.768s1.3306667-.272 2.024-.272zm-.192 7.184c.4266667 0 .8053333-.0986667 1.136-.296.3306667-.19733333.5653333-.488.704-.872v-.88h-1.712c-1.024 0-1.536.336-1.536 1.008 0 .32.1253333.57333333.376.76.2506667.1866667.5946667.28 1.032.28z"/><path d="m24.08 12c-.9173333 0-1.7413333-.1893333-2.472-.568s-1.3013333-.904-1.712-1.576-.616-1.43466667-.616-2.288.2053333-1.616.616-2.288.9813333-1.19733333 1.712-1.576 1.5546667-.568 2.472-.568c.9066667 0 1.6986667.18933333 2.376.568s1.1706667.92 1.48 1.624l-1.936 1.04c-.448-.78933333-1.0933333-1.184-1.936-1.184-.6506667 0-1.1893333.21333333-1.616.64s-.64 1.008-.64 1.744.2133333 1.31733333.64 1.744.9653333.64 1.616.64c.8533333 0 1.4986667-.39466667 1.936-1.184l1.936 1.056c-.3093333.6826667-.8026667 1.216-1.48 1.6s-1.4693333.576-2.376.576z"/><path d="m37.808 7.6c0 .032-.016.256-.048.672h-6.512c.1173333.53333333.3946667.95466667.832 1.264s.9813333.464 1.632.464c.448 0 .8453333-.06666667 1.192-.2s.6693333-.344.968-.632l1.328 1.44c-.8106667.928-1.9946667 1.392-3.552 1.392-.9706667 0-1.8293333-.1893333-2.576-.568s-1.3226667-.904-1.728-1.576-.608-1.43466667-.608-2.288c0-.84266667.2-1.60266667.6-2.28s.9493333-1.20533333 1.648-1.584 1.48-.568 2.344-.568c.8426667 0 1.6053333.18133333 2.288.544s1.2186667.88266667 1.608 1.56.584 1.464.584 2.36zm-4.464-2.576c-.5653333 0-1.04.16-1.424.48s-.6186667.75733333-.704 1.312h4.24c-.0853333-.544-.32-.97866667-.704-1.304s-.8533333-.488-1.408-.488z"/><path d="m44.56 3.136c.8 0 1.528.184 2.184.552s1.1706667.88533333 1.544 1.552.56 1.44266667.56 2.328-.1866667 1.66133333-.56 2.328c-.3733333.6666667-.888 1.184-1.544 1.552s-1.384.552-2.184.552c-1.184 0-2.0853333-.3733333-2.704-1.12v.992h-2.384v-11.872h2.496v4.176c.6293333-.69333333 1.4933333-1.04 2.592-1.04zm-.432 6.816c.64 0 1.1653333-.216 1.576-.648s.616-1.01066667.616-1.736-.2053333-1.304-.616-1.736-.936-.648-1.576-.648-1.1653333.216-1.576.648-.616 1.01066667-.616 1.736.2053333 1.304.616 1.736.936.648 1.576.648z"/><path d="m54.608 12c-.9066667 0-1.72-.1893333-2.44-.568s-1.2826667-.904-1.688-1.576-.608-1.43466667-.608-2.288.2026667-1.616.608-2.288.968-1.19733333 1.688-1.576 1.5333333-.568 2.44-.568 1.7173333.18933333 2.432.568 1.2746667.904 1.68 1.576.608 1.43466667.608 2.288-.2026667 1.616-.608 2.288-.9653333 1.1973333-1.68 1.576-1.5253333.568-2.432.568zm0-2.048c.64 0 1.1653333-.216 1.576-.648s.616-1.01066667.616-1.736-.2053333-1.304-.616-1.736-.936-.648-1.576-.648-1.168.216-1.584.648-.624 1.01066667-.624 1.736.208 1.304.624 1.736.944.648 1.584.648z"/><path d="m65.088 12c-.9066667 0-1.72-.1893333-2.44-.568s-1.2826667-.904-1.688-1.576-.608-1.43466667-.608-2.288.2026667-1.616.608-2.288.968-1.19733333 1.688-1.576 1.5333333-.568 2.44-.568 1.7173333.18933333 2.432.568 1.2746667.904 1.68 1.576.608 1.43466667.608 2.288-.2026667 1.616-.608 2.288-.9653333 1.1973333-1.68 1.576-1.5253333.568-2.432.568zm0-2.048c.64 0 1.1653333-.216 1.576-.648s.616-1.01066667.616-1.736-.2053333-1.304-.616-1.736-.936-.648-1.576-.648-1.168.216-1.584.648-.624 1.01066667-.624 1.736.208 1.304.624 1.736.944.648 1.584.648z"/><path d="m75.168 8.496-1.2 1.184v2.192h-2.496v-11.872h2.496v6.72l3.648-3.456h2.976l-3.584 3.648 3.904 4.96h-3.024z"/></g><path d="m8.00781298 9 .44437503-2.89562511h-2.77843761v-1.87906266c0-.79218769.38812494-1.56437492 1.6324997-1.56437492h1.26312446v-2.465312s-1.14624977-.19562531-2.24218702-.19562531c-2.28812504 0-3.78375006 1.38687515-3.78375006 3.89750004v2.20687485h-2.54343748v2.89562511h2.54343748v7h3.13031244v-7z" transform="translate(18.215313 14)"/></g></g></g></svg>
