<svg height="43" viewBox="0 0 140 43" width="140" xmlns="http://www.w3.org/2000/svg"><g fill="none" fill-rule="evenodd"><rect fill="#0b1021" height="43" rx="12" width="139.496659"/><g fill-rule="nonzero"><g fill="#6a7486" transform="translate(42.128 7.402667)"><path d="m0 .864h1.56v7.08h4.392v1.32h-5.952z"/><path d="m9.924 9.348c-.648 0-1.232-.14-1.752-.42s-.926-.67-1.218-1.17-.438-1.066-.438-1.698.146-1.196.438-1.692.698-.884 1.218-1.164 1.104-.42 1.752-.42c.656 0 1.244.14 1.764.42s.926.668 1.218 1.164.438 1.06.438 1.692-.146 1.198-.438 1.698-.698.89-1.218 1.17-1.108.42-1.764.42zm0-1.284c.552 0 1.008-.184 1.368-.552s.54-.852.54-1.452-.18-1.084-.54-1.452-.816-.552-1.368-.552-1.006.184-1.362.552-.534.852-.534 1.452.178 1.084.534 1.452.81.552 1.362.552z"/><path d="m21.144 2.856v5.436c0 2.256-1.152 3.384-3.456 3.384-.616 0-1.2-.078-1.752-.234s-1.008-.382-1.368-.678l.672-1.128c.28.232.634.418 1.062.558s.862.21 1.302.21c.704 0 1.22-.16 1.548-.48s.492-.808.492-1.464v-.336c-.256.28-.568.492-.936.636s-.772.216-1.212.216c-.608 0-1.158-.13-1.65-.39s-.88-.626-1.164-1.098-.426-1.012-.426-1.62.142-1.146.426-1.614.672-.83 1.164-1.086 1.042-.384 1.65-.384c.464 0 .886.076 1.266.228s.698.384.954.696v-.852zm-3.42 4.848c.568 0 1.034-.17 1.398-.51s.546-.782.546-1.326c0-.536-.182-.972-.546-1.308s-.83-.504-1.398-.504c-.576 0-1.046.168-1.41.504s-.546.772-.546 1.308c0 .544.182.986.546 1.326s.834.51 1.41.51z"/><path d="m23.112 2.856h1.5v6.408h-1.5zm.756-1.056c-.272 0-.5-.086-.684-.258s-.276-.386-.276-.642.092-.47.276-.642.412-.258.684-.258.5.082.684.246.276.37.276.618c0 .264-.09.486-.27.666s-.41.27-.69.27z"/><path d="m30.216 2.784c.808 0 1.456.236 1.944.708s.732 1.172.732 2.1v3.672h-1.5v-3.48c0-.56-.132-.982-.396-1.266s-.64-.426-1.128-.426c-.552 0-.988.166-1.308.498s-.48.81-.48 1.434v3.24h-1.5v-6.408h1.428v.828c.248-.296.56-.52.936-.672s.8-.228 1.272-.228z"/><path d="m48.108 2.856-2.364 6.408h-1.44l-1.656-4.416-1.68 4.416h-1.44l-2.352-6.408h1.416l1.692 4.728 1.764-4.728h1.26l1.728 4.752 1.74-4.752z"/><path d="m49.14 2.856h1.5v6.408h-1.5zm.756-1.056c-.272 0-.5-.086-.684-.258s-.276-.386-.276-.642.092-.47.276-.642.412-.258.684-.258.5.082.684.246.276.37.276.618c0 .264-.09.486-.27.666s-.41.27-.69.27z"/><path d="m56.46 8.916c-.176.144-.39.252-.642.324s-.518.108-.798.108c-.704 0-1.248-.184-1.632-.552s-.576-.904-.576-1.608v-3.084h-1.056v-1.2h1.056v-1.464h1.5v1.464h1.716v1.2h-1.716v3.048c0 .312.076.55.228.714s.372.246.66.246c.336 0 .616-.088.84-.264z"/><path d="m61.332 2.784c.808 0 1.456.236 1.944.708s.732 1.172.732 2.1v3.672h-1.5v-3.48c0-.56-.132-.982-.396-1.266s-.64-.426-1.128-.426c-.552 0-.988.166-1.308.498s-.48.81-.48 1.434v3.24h-1.5v-8.904h1.5v3.24c.248-.264.554-.466.918-.606s.77-.21 1.218-.21z"/></g><g fill="#fff"><g transform="translate(41.624 20.794667)"><path d="m8.272 6.096h2.368v4.544c-.608.4586667-1.312.8106667-2.112 1.056s-1.60533333.368-2.416.368c-1.16266667 0-2.208-.248-3.136-.744s-1.656-1.184-2.184-2.064-.792-1.87466667-.792-2.984.264-2.104.792-2.984 1.26133333-1.568 2.2-2.064 1.99466667-.744 3.168-.744c.98133333 0 1.872.16533333 2.672.496s1.472.81066667 2.016 1.44l-1.664 1.536c-.8-.84266667-1.76533333-1.264-2.896-1.264-.71466667 0-1.34933333.14933333-1.904.448s-.98666667.72-1.296 1.264-.464 1.168-.464 1.872c0 .69333333.15466667 1.312.464 1.856s.73866667.968 1.288 1.272 1.176.456 1.88.456c.74666667 0 1.41866667-.16 2.016-.48z"/><path d="m16.96 12c-.9066667 0-1.72-.1893333-2.44-.568s-1.2826667-.904-1.688-1.576-.608-1.43466667-.608-2.288.2026667-1.616.608-2.288.968-1.19733333 1.688-1.576 1.5333333-.568 2.44-.568 1.7173333.18933333 2.432.568 1.2746667.904 1.68 1.576.608 1.43466667.608 2.288-.2026667 1.616-.608 2.288-.9653333 1.1973333-1.68 1.576-1.5253333.568-2.432.568zm0-2.048c.64 0 1.1653333-.216 1.576-.648s.616-1.01066667.616-1.736-.2053333-1.304-.616-1.736-.936-.648-1.576-.648-1.168.216-1.584.648-.624 1.01066667-.624 1.736.208 1.304.624 1.736.944.648 1.584.648z"/><path d="m27.44 12c-.9066667 0-1.72-.1893333-2.44-.568s-1.2826667-.904-1.688-1.576-.608-1.43466667-.608-2.288.2026667-1.616.608-2.288.968-1.19733333 1.688-1.576 1.5333333-.568 2.44-.568 1.7173333.18933333 2.432.568 1.2746667.904 1.68 1.576.608 1.43466667.608 2.288-.2026667 1.616-.608 2.288-.9653333 1.1973333-1.68 1.576-1.5253333.568-2.432.568zm0-2.048c.64 0 1.1653333-.216 1.576-.648s.616-1.01066667.616-1.736-.2053333-1.304-.616-1.736-.936-.648-1.576-.648-1.168.216-1.584.648-.624 1.01066667-.624 1.736.208 1.304.624 1.736.944.648 1.584.648z"/><path d="m42.704 3.264v7.168c0 1.5786667-.4106667 2.752-1.232 3.52s-2.0213333 1.152-3.6 1.152c-.832 0-1.6213333-.1013333-2.368-.304s-1.3653333-.496-1.856-.88l.992-1.792c.3626667.2986667.8213333.536 1.376.712s1.1093333.264 1.664.264c.864 0 1.5013333-.1946667 1.912-.584s.616-.9786667.616-1.768v-.368c-.6506667.7146667-1.5573333 1.072-2.72 1.072-.7893333 0-1.512-.1733333-2.168-.52s-1.176-.8346667-1.56-1.464c-.384-.62933333-.576-1.35466667-.576-2.176s.192-1.54666667.576-2.176.904-1.11733333 1.56-1.464 1.3786667-.52 2.168-.52c1.248 0 2.1973333.41066667 2.848 1.232v-1.104zm-4.72 6.144c.6613333 0 1.2026667-.19466667 1.624-.584s.632-.89866667.632-1.528-.2106667-1.13866667-.632-1.528-.9626667-.584-1.624-.584-1.2053333.19466667-1.632.584-.64.89866667-.64 1.528.2133333 1.13866667.64 1.528.9706667.584 1.632.584z"/><path d="m45.024 0h2.496v11.872h-2.496z"/><path d="m58.272 7.6c0 .032-.016.256-.048.672h-6.512c.1173333.53333333.3946667.95466667.832 1.264s.9813333.464 1.632.464c.448 0 .8453333-.06666667 1.192-.2s.6693333-.344.968-.632l1.328 1.44c-.8106667.928-1.9946667 1.392-3.552 1.392-.9706667 0-1.8293333-.1893333-2.576-.568s-1.3226667-.904-1.728-1.576-.608-1.43466667-.608-2.288c0-.84266667.2-1.60266667.6-2.28s.9493333-1.20533333 1.648-1.584 1.48-.568 2.344-.568c.8426667 0 1.6053333.18133333 2.288.544s1.2186667.88266667 1.608 1.56.584 1.464.584 2.36zm-4.464-2.576c-.5653333 0-1.04.16-1.424.48s-.6186667.75733333-.704 1.312h4.24c-.0853333-.544-.32-.97866667-.704-1.304s-.8533333-.488-1.408-.488z"/></g><path d="m15.25 7.93124962c0 4.42187498-3.0281248 7.56875038-7.5 7.56875038-4.2874999 0-7.75-3.4624996-7.75-7.75 0-4.28750038 3.4625001-7.75 7.75-7.75 2.08749962 0 3.84375.765625 5.1968746 2.02812481l-2.109375 2.02812481c-2.7593746-2.66249943-7.8906245-.66249943-7.8906245 3.69375038 0 2.703125 2.15937471 4.8937502 4.8031249 4.8937502 3.0687504 0 4.21875-2.1999998 4.3999996-3.34062482h-4.3999996v-2.66562509h7.3781252c.0718746.3968749.1218748.77812481.1218748 1.29375028z" transform="translate(13.875 14.25)"/></g></g></g></svg>
