<svg height="68" viewBox="0 0 116 68" width="116" xmlns="http://www.w3.org/2000/svg" xmlns:xlink="http://www.w3.org/1999/xlink"><mask id="a" fill="#fff"><path d="m0 0h116v68h-116z" fill="#fff" fill-rule="evenodd"/></mask><path d="m25.1805541 61.1518434-.6583614-2.8327432h-9.8046296l-1.9609259 9.6667361h5.4580284l1.7060764-8.1370548 1.7768679 8.1512185h4.4032343l5.1960997-8.3636742-1.7131554 8.3495105h5.5925323l1.9680051-9.6667361h-10.1869039zm15.3830036-12.0391585h-6.9658884l-4.6722423 7.2305769h10.1939831zm-23.8638312 7.2305769h9.7975504l-1.7131555-7.2305769h-6.5694558zm20.975536 11.6425745h15.4467161l.9202901-4.2491148h-15.5104284zm12.2257006-11.6425745h-8.2188989l-.8494986 4.2491148h8.2188989zm-7.6879623-2.8681524h15.2484998l.9202901-4.341179h-15.3476079zm70.7490742-18.745678c.260513-.3328474.459437-.708894.58757-1.1118517h-16.8979427l-1.9396885 9.7942095h5.6633242l1.189298-5.5875859h2.888295l2.237013 5.5875859h6.427873l-3.0228-6.5082274c1.139036-.4447407 2.131534-1.1975422 2.867058-2.1741304zm1.182219-8.8098313c-1.468217-1.0020829-3.222431-1.4992293-4.997883-1.4163716h-8.940973l-.8565777 4.2066236h8.4949857c.631461-.0389502 1.262921.0757759 1.84058.3328473.38723.2308686.597481.6727765.530937 1.1189336.03398.7400541-.462269 1.3993751-1.182219 1.5721725h6.640248c.211666-.6352427.322101-1.299521.325641-1.9687566.03044-1.5041866-.65907-2.9333055-1.854739-3.8454488zm-38.4610486 17.5630077h15.4891909l.8494986-4.2491148h-15.489191zm3.2210154-7.4359509h8.2188989l.7857862-4.2066236h-8.2188989zm17.4855127-11.4442824h-15.3192912l-.8565778 4.2491148h15.2555789zm-82.9747749-11.1822537h2.8953744l2.2299338 5.5946678h6.4491101l-3.0298783-6.5153093c1.1482389-.4376588 2.1513552-1.1883358 2.8953744-2.1670486.2583891-.33780458.4594371-.71597579.594649-1.11893351h-16.89794284l-1.97508423 9.73047281h5.66332397zm5.1960997 20.3249323h-16.57230168l-2.03879662 9.6667361h5.85446113l1.11850648-5.1980837h2.56265408c2.95908681 0 5.25981211-.5877942 6.97296761-1.8412831.9287851-.6664028 1.6558143-1.5750052 2.102509-2.6273693zm-5.9181735-5.2618204c.6307527-.0368257 1.2607975.0750677 1.8405803.3257654.3822743.2032493.5925252.6274526.5238574 1.0551969 0 1.246407-.9202901 1.841283-2.8316619 1.9050197h8.2826112c.3305966-.7910435.4870459-1.642991.4601451-2.4998958.0927369-1.4935638-.5429712-2.9396792-1.7060763-3.8808582-1.1822189-.8498229-2.8953744-1.3101437-5.1960998-1.3101437h-8.49498587l-.92029014 4.4049157zm59.6701969-3.9445949-4.7996671 5.9841699-2.3007253-5.9841699h-6.2792104l3.2210155 7.2305769h10.6187324l6.1801022-7.2305769zm-10.6187324 12.563216-1.3167228 6.3099354h6.1163898l1.2671688-6.0479067 3.0227991-3.6188294h-10.6045741zm-13.6132149-12.563216-4.4740259 7.2305769h5.9181735l1.5149391-2.691106.4601451 2.691106h5.3943161l-1.5149392-7.2305769zm-4.52358 16.3732556h7.03668l.460145 2.4998958h5.981886l-2.1237465-9.6667361h-5.3872369l.3964326 2.7335972h-3.8793769l1.5149392-2.6981879h-5.9181735l-5.9181735 9.6313268h6.4420309zm-20.5295493-9.1426787h6.1163898l1.415831-7.2305769h-5.9818859zm11.7089222 6.7773381h-8.5516191l.9910817-4.8014997h-6.1376274l-1.9538467 9.6667361h14.6963256zm8.2826113-23.8729431h-15.5175076l-.8565778 4.2491147h15.5175076zm-4.205018-6.71360137.1911371-.92064153h-8.2188988l-.1911372.92064153-.6583614 3.29306397h8.2188989zm8.54454-7.88918975h-15.2555789l-.9202902 4.24911477h15.3405288zm-30.3129414 4.20662362h2.6334456c.6314606-.03753385 1.2622133.07648407 1.8405803.33284732.385106.22874401.5925252.66923558.5238574 1.1118517.0375196.74217871-.4594371 1.40645699-1.1822188 1.57925432h6.6402473c.2166221-.63878358.3270569-1.30872735.3256411-1.98292022.0736232-1.51480942-.6144706-2.96588211-1.8335011-3.86669444-1.4597218-.9822537-3.1983622-1.46665278-4.9554085-1.3809623h-8.9905267l-.8494986 4.20662362zm86.8612308 3.02395334 6.173023-7.23057696h-6.569456l-4.7996666 5.95584253-2.3007253-5.95584253h-6.3146062l3.2847279 7.23057696zm-4.9978832 5.59466776 3.0298782-3.61882939h-10.5337825l1.415831 3.35680069-1.3167228 6.3099354h6.1163899zm-21.3436522-8.09456361h2.4352293c.9726759-.0701104 1.9418122.17846282 2.7608705.70818579.511115.45182254.8190582 1.08918975.8565777 1.77046449h6.2438147v-.04249115c.1160981-2.05940429-.7348163-4.05507186-2.3007254-5.39637575-1.5149391-1.18267028-3.7519521-1.84128307-6.7747513-1.84128307h-8.2826112l-1.5432558 7.30139554h6.0031234zm4.4669468 12.95980001c1.7527988-.6855238 3.2627825-1.8759841 4.339522-3.4205374 1.0208141-1.4886065 1.5503349-3.259071 1.5149391-5.06352839h-6.2438146c0 .19829202.0637124.32576547.0637124.52405749.075039 1.2393251-.452358 2.4389919-1.415831 3.2222454-1.0944374.8285773-2.4444322 1.2471151-3.8156645 1.1826702h-2.3644378l.9840026-4.95730052h-6.1093107l-1.9326093 9.69506352h8.2826112c2.27878.0439075 4.5441096-.3576338 6.668564-1.1826703zm-16.9899718 1.1826703-2.0387966-9.66673609h-5.4580285l.3964327 2.69818789h-3.8793769l1.5786515-2.69818789h-5.9818859l-5.9181735 9.66673609h6.442031l1.415831-2.4998958h7.0791549l.3964327 2.4998958zm-5.9181735-14.33368048.3964326 2.69110602h5.4580285l-1.5786516-7.23057696h-7.2986087l-4.4669468 7.23057696h5.981886z" fill="#f6f6f6" fill-rule="evenodd" mask="url(#a)"/></svg>
